<svg xmlns="http://www.w3.org/2000/svg" viewBox="0 0 280 280" fill="none" shape-rendering="auto" aria-hidden="true"><metadata xmlns:rdf="http://www.w3.org/1999/02/22-rdf-syntax-ns#" xmlns:xsi="http://www.w3.org/2001/XMLSchema-instance" xmlns:dc="http://purl.org/dc/elements/1.1/" xmlns:dcterms="http://purl.org/dc/terms/"><rdf:RDF><rdf:Description><dc:title>Avataaars</dc:title><dc:creator>Pablo Stanley</dc:creator><dc:source xsi:type="dcterms:URI">https://avataaars.com/</dc:source><dcterms:license xsi:type="dcterms:URI">https://avataaars.com/</dcterms:license><dc:rights>Remix of “Avataaars” (https://avataaars.com/) by “Pablo Stanley”, licensed under “Free for personal and commercial use” (https://avataaars.com/)</dc:rights></rdf:Description></rdf:RDF></metadata><defs><g id="clothes-blazerAndSweater-be8912ee"><path d="M100 42.36c14.91 0 27-11.2 27-25q0-1.53-.2-3h1.2a72 72 0 0 1 72 72v8.95H0v-8.95a72 72 0 0 1 72-72h1.2q-.2 1.47-.2 3c0 13.8 12.09 25 27 25" fill="#E6E6E6"/><path d="M68.78 14.43 69 13.3c-2.96.06-6 1-6 1l-.42.67A72 72 0 0 0 0 86.36v8.95h74s-10.7-51.56-5.24-80.8zM126 95.3s11-53 5-82c2.96.06 6 1 6 1l.42.67A72 72 0 0 1 200 86.36v8.95z" fill="#a7ffc4"/><path fill-rule="evenodd" clip-rule="evenodd" d="M69 13.3c-6 29 5 82 5 82H58l-14-36 6-9-6-6 19-30s3.04-.94 6-1m62 0c6 29-5 82-5 82h16l14-36-6-9 6-6-19-30s-3.04-.94-6-1" fill="black" fill-opacity=".15"/><path d="M76 6.84c-6.77 4.6-11 11.12-11 18.35 0 7.4 4.43 14.06 11.48 18.67l5.94-4.68 4.58.33-1-3.15.08-.06C79.98 33.16 76 28 76 22.18zm48 15.34c0 5.83-3.98 10.98-10.08 14.12l.08.06-1 3.15 4.58-.33 5.94 4.68C130.57 39.26 135 32.6 135 25.2c0-7.23-4.23-13.75-11-18.35z" fill="#F2F2F2"/><path d="m151.42 71.07.87-2.24 6.27-4.7a4 4 0 0 1 4.85.05l6.6 5.13z" fill="#E6E6E6"/></g><g id="mouth-vomit-be8912ee"><path fill-rule="evenodd" clip-rule="evenodd" d="M26 24.4C27.14 13.9 30.24 5 46 5s18.92 8.96 20 19.5c.08.84-.83 1.5-1.96 1.5-6.69 0-9.37-1.5-18.05-1.5-8.7 0-13.25 1.5-17.9 1.5-1.16 0-2.2-.55-2.1-1.6" fill="black" fill-opacity=".7"/><path d="M59.86 9.1c-.8.57-1.8.9-2.86.9H36c-1.3 0-2.49-.5-3.38-1.31C35.56 6.39 39.8 5 46 5c6.54 0 10.9 1.54 13.86 4.1" fill="white"/><path d="M34 19a6 6 0 0 0-6 6v7a6 6 0 0 0 12 0v-2h.08a6 6 0 0 1 11.84 0H52a6 6 0 0 0 12 0v-5a6 6 0 0 0-6-6z" fill="#7BB24B"/><path d="M64 25a6 6 0 0 0-6-6H34a6 6 0 0 0-6 6v6a6 6 0 0 0 12 0v-2h.08a6 6 0 0 1 11.84 0H52a6 6 0 0 0 12 0z" fill="#88C553"/></g><g id="nose-default-be8912ee"><path fill-rule="evenodd" clip-rule="evenodd" d="M0 0c0 4.42 5.37 8 12 8s12-3.58 12-8" fill="black" fill-opacity=".16"/></g><g id="eyes-hearts-be8912ee"><path d="M21.96 2c-2.55 0-5.08 1.98-6.46 3.82C14.1 3.98 11.6 2 9.04 2 3.55 2 0 5.33 0 9.64c0 5.73 4.41 9.13 9.04 12.74 1.66 1.23 4.78 4.4 5.17 5.1.4.68 2.13.7 2.62 0 .47-.73 3.5-3.87 5.16-5.1 4.63-3.6 9.04-7 9.04-12.74C31 5.34 27.46 2 21.97 2m53 0c-2.55 0-5.08 1.98-6.46 3.82C67.1 3.98 64.6 2 62.04 2 56.54 2 53 5.33 53 9.64c0 5.73 4.41 9.13 9.04 12.74 1.66 1.23 4.78 4.4 5.17 5.1.38.68 2.1.7 2.58 0 .48-.73 3.5-3.87 5.17-5.1 4.63-3.6 9.04-7 9.04-12.74C84 5.34 80.45 2 74.96 2" fill="#FF5353" fill-opacity=".8"/></g><g id="eyebrows-raisedExcitedNatural-be8912ee"><path fill-rule="evenodd" clip-rule="evenodd" d="m14.9 1.58.91-.4C21.06-.9 29-.03 33.86 2.3c.57.27.18 1.15-.4 1.1C18.54 2.27 8.5 11.56 5.08 17.86c-.1.18-.4.2-.48.03C2.3 12.56 9.05 3.9 14.9 1.58m66.47 0-.91-.4C75.22-.9 67.27-.03 62.4 2.3c-.56.27-.18 1.15.4 1.1 14.93-1.14 24.98 8.15 28.4 14.45.1.18.4.2.47.03 2.3-5.32-4.45-13.98-10.3-16.3" fill="black" fill-opacity=".6"/></g><g id="top-dreads01-be8912ee"><g fill="#c93305"><path d="M186.7 56.12c.9 3.25 2.17 11.95-.06 14.84-.75.96-5.84-1.74-7.97-2.92l-3.53-1.96c-14.92-8.32-19.74-11-45.9-10.62-28.11.4-47.37 13.58-48.46 14.93-.75.93-1.71 3.44-2.5 10.41-.25 2.2-.32 4.97-.4 7.71-.14 5.98-.3 11.8-2.25 11.8-2.44-.01-2.97-23.78-1.92-33.21q.06-.55.18-1.23c.23-1.4.5-3.13.16-4.11-.16-.44-.54-.7-.94-1-.62-.42-1.26-.87-1.08-2.02.2-1.3 1.1-1.42 1.97-1.55.57-.08 1.13-.16 1.5-.56 1.13-1.23.46-1.87-.31-2.6-.46-.43-.95-.9-1.12-1.53-.63-2.36 1.03-3.1 2.69-3.83l.38-.17c.69-.3 1.1-.42 1.42-.5.6-.15.85-.21 1.89-1.35-2.14-1.56-2.9-3.7 0-4.83.57-.22 1.53-.2 2.5-.2 1.2.02 2.4.03 2.95-.37.15-.11.24-.53.33-.9.06-.27.1-.5.18-.6 1.35-1.93 1.23-3.4 1.08-5.4l-.07-.92c-.13-2.04-.11-3.9 2.33-4.11 1-.08 1.9.4 2.77.86.54.29 1.08.58 1.64.73.87.23 1.1.43 1.32.43.19 0 .37-.15.96-.55 1.18-.82 1.3-2.05 1.43-3.3.1-1.08.22-2.18 1.04-3 1.58-1.6 2.8-.64 4 .3.64.5 1.28 1 1.96 1.1 2.55.36 3.06-1.06 3.62-2.6.32-1 .69-2.05 1.69-2.67 1.84-1.15 2.65-.05 3.44 1 .5.69.98 1.34 1.7 1.4 1 .09 2.52-1.1 3.85-2.13a12 12 0 0 1 2.1-1.44c2.28-.93 3.92.07 5.59 1.08 1.4.86 2.83 1.73 4.65 1.44l.83-.13c2.24-.37 3.1-.51 5.45.96a4.2 4.2 0 0 0 3.74.69c.6-.12 1.3-.25 2.26-.26 1.1 0 1.98.5 2.83.99.7.4 1.36.79 2.13.87.42.04.84-.16 1.26-.36s.84-.4 1.3-.38c1.83.09 2.69 1.49 3.55 2.87.65 1.08 1.32 2.15 2.44 2.66 1.62.72 3.44.24 5.17-.21.79-.2 1.55-.4 2.28-.5 3.96-.46 3.27 1.97 2.55 4.56a11 11 0 0 0-.6 3.26c1.15.27 2.3-.15 3.46-.57 1.1-.4 2.18-.8 3.27-.6 3.4.58 2.25 4.02 1.44 6.45l-.08.2c.65 0 1.55-.2 2.57-.41 2.85-.6 6.6-1.41 7.77 1.13.47 1.05 0 2.3-.44 3.54a7 7 0 0 0-.6 2.4c.01 1.54.7 2.9 1.4 4.28.44.9.9 1.82 1.16 2.78"/><path d="m185.36 73.6.47.33c1.76.99 3.15 10.9 3.22 14.69.04 2.34.08 11.25-2.4 10.48-.75-.23-1.9-4.95-2.06-7.72s-1.74-12.16-4.14-16.49q-.2-.36-.53-.8c-.65-.96-1.44-2.12-.92-2.76.72-.88 1.43-.57 2.26-.2l.44.18c.87.35 2.77 1.68 3.66 2.3"/></g></g><clipPath id="clip-be8912ee"><rect width="280" height="280" rx="0" ry="0"/></clipPath></defs><g clip-path="url(#clip-be8912ee)"><path d="M140 36a56 56 0 0 0-56 56v6.17A12 12 0 0 0 74 110v14a12 12 0 0 0 10.3 11.88A56 56 0 0 0 116 180.6V199h-4a72 72 0 0 0-72 72v9h200v-9a72 72 0 0 0-72-72h-4v-18.38a56 56 0 0 0 31.7-44.73A12 12 0 0 0 206 124v-14a12 12 0 0 0-10-11.83V92a56 56 0 0 0-56-56" fill="#edb98a"/><path d="M116 180.61v8a56 56 0 0 0 24 5.39 56 56 0 0 0 24-5.39v-8a56 56 0 0 1-24 5.39 56 56 0 0 1-24-5.39" fill="black" fill-opacity=".1"/><use transform="translate(40 184.7)" href="#clothes-blazerAndSweater-be8912ee"/><use transform="translate(94 140)" href="#mouth-vomit-be8912ee"/><use transform="translate(128 130)" href="#nose-default-be8912ee"/><use transform="translate(98 98)" href="#eyes-hearts-be8912ee"/><use transform="translate(91.86 82)" href="#eyebrows-raisedExcitedNatural-be8912ee"/><use transform="translate(8)" href="#top-dreads01-be8912ee"/></g></svg>