<svg xmlns="http://www.w3.org/2000/svg" viewBox="0 0 112 112" fill="none" shape-rendering="auto" aria-hidden="true"><metadata xmlns:rdf="http://www.w3.org/1999/02/22-rdf-syntax-ns#" xmlns:xsi="http://www.w3.org/2001/XMLSchema-instance" xmlns:dc="http://purl.org/dc/elements/1.1/" xmlns:dcterms="http://purl.org/dc/terms/"><rdf:RDF><rdf:Description><dc:title>Avataaars</dc:title><dc:creator>Pablo Stanley</dc:creator><dc:source xsi:type="dcterms:URI">https://avataaars.com/</dc:source><dcterms:license xsi:type="dcterms:URI">https://avataaars.com/</dcterms:license><dc:rights>Remix of “Avataaars” (https://avataaars.com/) by “Pablo Stanley”, licensed under “Free for personal and commercial use.” (https://avataaars.com/)</dc:rights></rdf:Description></rdf:RDF></metadata><defs><g id="mouth-grimace-ee622fc7"><rect x="14" y="1" width="64" height="26" rx="13" fill="black" fill-opacity=".6"/><rect x="16" y="3" width="60" height="22" rx="11" fill="white"/><path d="M16.18 12H24V3.41A11 11 0 0 1 27 3h1v9h9V3h4v9h9V3h4v9h9V3h2q1.02 0 2 .18V12h8.82l.05.28v3.44l-.05.28H67v8.82q-.98.18-2 .18h-2v-9h-9v9h-4v-9h-9v9h-4v-9h-9v9h-1a11 11 0 0 1-3-.41V16h-7.82a11 11 0 0 1 0-4" fill="#E6E6E6"/></g><g id="nose-default-ee622fc7"><path fill-rule="evenodd" clip-rule="evenodd" d="M0 0c0 4.42 5.37 8 12 8s12-3.58 12-8" fill="black" fill-opacity=".16"/></g><g id="eyes-hearts-ee622fc7"><path d="M21.96 2c-2.55 0-5.08 1.98-6.46 3.82C14.1 3.98 11.6 2 9.04 2 3.55 2 0 5.33 0 9.64c0 5.73 4.41 9.13 9.04 12.74 1.66 1.23 4.78 4.4 5.17 5.1.4.68 2.13.7 2.62 0 .47-.73 3.5-3.87 5.16-5.1 4.63-3.6 9.04-7 9.04-12.74C31 5.34 27.46 2 21.97 2m53 0c-2.55 0-5.08 1.98-6.46 3.82C67.1 3.98 64.6 2 62.04 2 56.54 2 53 5.33 53 9.64c0 5.73 4.41 9.13 9.04 12.74 1.66 1.23 4.78 4.4 5.17 5.1.38.68 2.1.7 2.58 0 .48-.73 3.5-3.87 5.17-5.1 4.63-3.6 9.04-7 9.04-12.74C84 5.34 80.45 2 74.96 2" fill="#FF5353" fill-opacity=".8"/></g><g id="eyebrows-angry-ee622fc7"><path d="M7.75 15.18c4.24-5.76 6.88-5.48 13.31-.62l.67.5c4.83 3.67 7.12 4.94 10.4 4.94a2 2 0 0 0 0-4c-2.06 0-3.9-1.02-7.98-4.12l-.68-.52C19.71 8.53 17.51 7.3 14.77 7c-3.68-.4-7.05 1.48-10.24 5.83a2 2 0 1 0 3.22 2.36m80.78 0c-4.24-5.77-6.88-5.49-13.32-.63l-.67.5c-4.82 3.67-7.1 4.94-10.4 4.94a2 2 0 0 1 0-4c2.06 0 3.9-1.02 7.99-4.12l.67-.52C76.56 8.53 78.76 7.3 81.5 7c3.68-.4 7.06 1.48 10.25 5.83a2 2 0 1 1-3.22 2.36" fill="black" fill-opacity=".6"/></g><clipPath id="clip-ee622fc7"><rect width="112" height="112" rx="0" ry="0"/></clipPath></defs><g clip-path="url(#clip-ee622fc7)"><rect width="112" height="112" fill="#fd9841"/><use transform="translate(10 69)" href="#mouth-grimace-ee622fc7"/><use transform="translate(44 59)" href="#nose-default-ee622fc7"/><use transform="translate(14 27)" href="#eyes-hearts-ee622fc7"/><use transform="translate(7.86 11)" href="#eyebrows-angry-ee622fc7"/></g></svg>