<svg xmlns="http://www.w3.org/2000/svg" viewBox="0 0 120 120" fill="none" shape-rendering="auto" aria-hidden="true"><metadata xmlns:rdf="http://www.w3.org/1999/02/22-rdf-syntax-ns#" xmlns:xsi="http://www.w3.org/2001/XMLSchema-instance" xmlns:dc="http://purl.org/dc/elements/1.1/" xmlns:dcterms="http://purl.org/dc/terms/"><rdf:RDF><rdf:Description><dc:title>Bottts</dc:title><dc:creator>Pablo Stanley</dc:creator><dc:source xsi:type="dcterms:URI">https://bottts.com/</dc:source><dcterms:license xsi:type="dcterms:URI">https://bottts.com/</dcterms:license><dc:rights>Remix of “Bottts” (https://bottts.com/) by “Pablo Stanley”, licensed under “Free for personal and commercial use” (https://bottts.com/)</dc:rights></rdf:Description></rdf:RDF></metadata><defs><g id="texture-circuits-6aba8e24"><path d="M66 36h49.42a5 5 0 1 1 0 4H62V6h4zm-8-12h-4V6h4z" fill="black" fill-opacity=".1"/><path d="M163 31a5 5 0 0 1 2 9.58V66h19v4h-23V40.58a5 5 0 0 1 2-9.58" fill="white" fill-opacity=".2"/><path d="M157 74h27v4h-31V52h4zm-85 26a5 5 0 0 0-2 9.58V135H51v4h23v-29.42a5 5 0 0 0-2-9.58" fill="black" fill-opacity=".2"/></g><g id="mouth-smile02-6aba8e24"><path fill-rule="evenodd" clip-rule="evenodd" d="M14 6.22C14 17.78 20.47 24 34 24c13.52 0 20-6.34 20-17.78C54 5.5 53.17 4 51 4H17c-2.05 0-3 1.38-3 2.22" fill="black" fill-opacity=".8"/><mask id="mouthSmile02-a" style="mask-type:luminance"><path fill-rule="evenodd" clip-rule="evenodd" d="M14 6.22C14 17.78 20.47 24 34 24c13.52 0 20-6.34 20-17.78C54 5.5 53.17 4 51 4H17c-2.05 0-3 1.38-3 2.22" fill="white"/></mask><g mask="url(#mouthSmile02-a)"><rect x="26" y="-2" width="16" height="14" rx="2" fill="white"/></g></g><g id="eyes-glow-6aba8e24"><circle cx="21" cy="30" r="15" fill="white" fill-opacity=".1"/><circle cx="83" cy="30" r="15" fill="white" fill-opacity=".1"/><circle cx="21" cy="30" r="12" fill="white" fill-opacity=".1"/><circle cx="83" cy="30" r="12" fill="white" fill-opacity=".1"/><circle cx="21" cy="30" r="6" fill="white" fill-opacity=".8"/><circle cx="83" cy="30" r="6" fill="white" fill-opacity=".8"/><circle cx="21" cy="30" r="3" fill="white" fill-opacity=".8"/><circle cx="83" cy="30" r="3" fill="white" fill-opacity=".8"/></g><clipPath id="clip-6aba8e24"><rect width="120" height="120" rx="0" ry="0"/></clipPath></defs><g clip-path="url(#clip-6aba8e24)"><rect width="120" height="120" fill="#b18911"/><mask id="botttsNeutral-a" style="mask-type:alpha"><rect width="120" height="120" fill="#D9D9D9"/></mask><g mask="url(#botttsNeutral-a)"><use transform="translate(-48.5 -9.89)" href="#texture-circuits-6aba8e24"/></g><use transform="translate(26 72)" href="#mouth-smile02-6aba8e24"/><use transform="translate(8 20)" href="#eyes-glow-6aba8e24"/></g></svg>