<svg xmlns="http://www.w3.org/2000/svg" viewBox="0 0 180 180" fill="none" shape-rendering="auto" aria-hidden="true"><metadata xmlns:rdf="http://www.w3.org/1999/02/22-rdf-syntax-ns#" xmlns:xsi="http://www.w3.org/2001/XMLSchema-instance" xmlns:dc="http://purl.org/dc/elements/1.1/" xmlns:dcterms="http://purl.org/dc/terms/"><rdf:RDF><rdf:Description><dc:title>Bottts</dc:title><dc:creator>Pablo Stanley</dc:creator><dc:source xsi:type="dcterms:URI">https://bottts.com/</dc:source><dcterms:license xsi:type="dcterms:URI">https://bottts.com/</dcterms:license><dc:rights>Remix of “Bottts” (https://bottts.com/) by “Pablo Stanley”, licensed under “Free for personal and commercial use” (https://bottts.com/)</dc:rights></rdf:Description></rdf:RDF></metadata><defs><g id="sides-cables02-45757397"><g opacity=".9"><ellipse cx="26.5" cy="23" rx="16.5" ry="18" stroke="#2A3544" stroke-width="6"/><path d="M23.51 36.76c-7.4 4.29-17 1.55-21.42-6.1" stroke="#2A3544" stroke-width="4"/><ellipse cx="22.5" cy="52.5" rx="16.5" ry="14.5" stroke="#2A3544" stroke-width="4"/></g><g opacity=".9"><path d="M162.6 60.42c-4.27-7.41-13.95-9.84-21.6-5.42" stroke="#2A3544" stroke-width="4"/><ellipse cx="142.5" cy="22.5" rx="16.5" ry="15.5" stroke="#2A3544" stroke-width="6"/></g><mask id="sidesCables02-a" style="mask-type:luminance"><rect x="15" y="27" width="16" height="22" rx="2" fill="white"/><rect x="16" y="60" width="16" height="12" rx="2" fill="white"/><rect x="137" y="42" width="16" height="22" rx="2" fill="white"/><rect x="137" width="16" height="22" rx="2" fill="white"/></mask><g mask="url(#sidesCables02-a)"><path d="M-6 0h180v76H-6z" fill="#de6811"/><path d="M-6 0h180v76H-6z" fill="white" fill-opacity=".3"/></g></g><g id="top-lights-45757397"><mask id="topLights-a" style="mask-type:luminance"><path d="M2 42.6a2 2 0 0 1 2-2h76a2 2 0 0 1 2 2v10H2z" fill="white"/><path d="M10 27.6a5 5 0 0 1 5-5h6a5 5 0 0 1 5 5v25H10zm24 0a5 5 0 0 1 5-5h6a5 5 0 0 1 5 5v25H34zm24 0a5 5 0 0 1 5-5h6a5 5 0 0 1 5 5v25H58z" fill="white"/></mask><g mask="url(#topLights-a)"><path d="M-8 .6H92v52H-8z" fill="#de6811"/><path d="M-8 .6H92v52H-8z" fill="white" fill-opacity=".3"/><rect x="-8" y=".59" width="100" height="40" fill="white" fill-opacity=".6"/><rect x="16" y="28.59" width="4" height="8" rx="2" fill="white" fill-opacity=".6"/><rect x="40" y="28.59" width="4" height="8" rx="2" fill="white" fill-opacity=".6"/><rect x="64" y="28.59" width="4" height="8" rx="2" fill="white" fill-opacity=".6"/></g></g><g id="texture-circuits-45757397"><path d="M66 36h49.42a5 5 0 1 1 0 4H62V6h4zm-8-12h-4V6h4z" fill="black" fill-opacity=".1"/><path d="M163 31a5 5 0 0 1 2 9.58V66h19v4h-23V40.58a5 5 0 0 1 2-9.58" fill="white" fill-opacity=".2"/><path d="M157 74h27v4h-31V52h4zm-85 26a5 5 0 0 0-2 9.58V135H51v4h23v-29.42a5 5 0 0 0-2-9.58" fill="black" fill-opacity=".2"/></g><g id="head-square04-45757397"><mask id="headSquare04-a" style="mask-type:luminance"><path fill-rule="evenodd" clip-rule="evenodd" d="M0 102V68.85a40 40 0 0 1 2.28-13.31L19.76 12A18 18 0 0 1 36.74 0h56.52a18 18 0 0 1 16.98 12l17.48 43.54a40 40 0 0 1 2.28 13.3V102a18 18 0 0 1-18 18H18a18 18 0 0 1-18-18" fill="white"/></mask><g mask="url(#headSquare04-a)"><path d="M-2-2h134v124H-2z" fill="#de6811"/><use transform="translate(-44 -7)" href="#texture-circuits-45757397"/></g></g><g id="mouth-grill02-45757397"><rect x="24" y="6" width="6" height="14" rx="2" fill="black" fill-opacity=".6"/><rect x="10" y="6" width="6" height="14" rx="2" fill="black" fill-opacity=".6"/><rect x="38" y="6" width="6" height="14" rx="2" fill="black" fill-opacity=".6"/><rect x="52" y="6" width="6" height="14" rx="2" fill="black" fill-opacity=".6"/></g><g id="eyes-frame2-45757397"><rect x="8" y="10" width="88" height="36" rx="4" fill="black" fill-opacity=".8"/><rect x="28" y="21" width="10" height="17" rx="2" fill="#5EF2B8"/><rect x="66" y="21" width="10" height="17" rx="2" fill="#5EF2B8"/><path fill-rule="evenodd" clip-rule="evenodd" d="M83 10h5L76 46h-5z" fill="white" fill-opacity=".4"/></g><clipPath id="clip-45757397"><rect width="180" height="180" rx="0" ry="0"/></clipPath></defs><g clip-path="url(#clip-45757397)"><use transform="translate(6 66)" href="#sides-cables02-45757397"/><use transform="translate(49 -.6)" href="#top-lights-45757397"/><use transform="translate(25 44)" href="#head-square04-45757397"/><use transform="translate(56 128)" href="#mouth-grill02-45757397"/><use transform="translate(38 76)" href="#eyes-frame2-45757397"/></g></svg>