<svg xmlns="http://www.w3.org/2000/svg" viewBox="0 0 120 120" fill="none" shape-rendering="auto" aria-hidden="true"><metadata xmlns:rdf="http://www.w3.org/1999/02/22-rdf-syntax-ns#" xmlns:xsi="http://www.w3.org/2001/XMLSchema-instance" xmlns:dc="http://purl.org/dc/elements/1.1/" xmlns:dcterms="http://purl.org/dc/terms/"><rdf:RDF><rdf:Description><dc:title>Bottts</dc:title><dc:creator>Pablo Stanley</dc:creator><dc:source xsi:type="dcterms:URI">https://bottts.com/</dc:source><dcterms:license xsi:type="dcterms:URI">https://bottts.com/</dcterms:license><dc:rights>Remix of “Bottts” (https://bottts.com/) by “Pablo Stanley”, licensed under “Free for personal and commercial use” (https://bottts.com/)</dc:rights></rdf:Description></rdf:RDF></metadata><defs><g id="texture-dots-3e2e4d11"><path d="M51.4 123.8a2.1 2.1 0 1 1 0 4.2 2.1 2.1 0 0 1 0-4.2m12.6 0a2.1 2.1 0 1 1 0 4.2 2.1 2.1 0 0 1 0-4.2m12.6 0a2.1 2.1 0 1 1 0 4.2 2.1 2.1 0 0 1 0-4.2m-31.5-6.32a2.1 2.1 0 1 1 0 4.2 2.1 2.1 0 0 1 0-4.2m12.6 0a2.1 2.1 0 1 1 0 4.2 2.1 2.1 0 0 1 0-4.2m12.6 0a2.1 2.1 0 1 1 0 4.2 2.1 2.1 0 0 1 0-4.2m12.6 0a2.1 2.1 0 1 1 0 4.2 2.1 2.1 0 0 1 0-4.2m-31.5-6.31a2.1 2.1 0 1 1 0 4.2 2.1 2.1 0 0 1 0-4.2m12.6 0a2.1 2.1 0 1 1 0 4.2 2.1 2.1 0 0 1 0-4.2m13.1-.17a2.1 2.1 0 1 1 0 4.2 2.1 2.1 0 0 1 0-4.2m13 0a2.1 2.1 0 1 1 0 4.2 2.1 2.1 0 0 1 0-4.2m-20-6a2.1 2.1 0 1 1 0 4.2 2.1 2.1 0 0 1 0-4.2m24 0a2.1 2.1 0 1 1 0 4.2 2.1 2.1 0 0 1 0-4.2m-49-.14a2.1 2.1 0 1 1 0 4.2 2.1 2.1 0 0 1 0-4.2m12.6 0a2.1 2.1 0 1 1 0 4.2 2.1 2.1 0 0 1 0-4.2m25.2 0a2.1 2.1 0 1 1 0 4.2 2.1 2.1 0 0 1 0-4.2m-31.5-6.31a2.1 2.1 0 1 1 0 4.2 2.1 2.1 0 0 1 0-4.2m12.6 0a2.1 2.1 0 1 1 0 4.2 2.1 2.1 0 0 1 0-4.2m12.6 0a2.1 2.1 0 1 1 0 4.2 2.1 2.1 0 0 1 0-4.2m-31.5-6.31a2.1 2.1 0 1 1 0 4.2 2.1 2.1 0 0 1 0-4.2m12.6 0a2.1 2.1 0 1 1 0 4.2 2.1 2.1 0 0 1 0-4.2m12.6 0a2.1 2.1 0 1 1 0 4.2 2.1 2.1 0 0 1 0-4.2m12.6 0a2.1 2.1 0 1 1 0 4.2 2.1 2.1 0 0 1 0-4.2m-31.5-6.3a2.1 2.1 0 1 1 0 4.2 2.1 2.1 0 0 1 0-4.2m12.6 0a2.1 2.1 0 1 1 0 4.2 2.1 2.1 0 0 1 0-4.2m12.6 0a2.1 2.1 0 1 1 0 4.2 2.1 2.1 0 0 1 0-4.2m-31.5-6.32a2.1 2.1 0 1 1 0 4.2 2.1 2.1 0 0 1 0-4.2m12.6 0a2.1 2.1 0 1 1 0 4.2 2.1 2.1 0 0 1 0-4.2m12.6 0a2.1 2.1 0 1 1 0 4.2 2.1 2.1 0 0 1 0-4.2m12.6 0a2.1 2.1 0 1 1 0 4.2 2.1 2.1 0 0 1 0-4.2M51.4 73.3a2.1 2.1 0 1 1 0 4.2 2.1 2.1 0 0 1 0-4.2m12.6 0a2.1 2.1 0 1 1 0 4.2 2.1 2.1 0 0 1 0-4.2m12.6 0a2.1 2.1 0 1 1 0 4.2 2.1 2.1 0 0 1 0-4.2M57.7 67a2.1 2.1 0 1 1 0 4.2 2.1 2.1 0 0 1 0-4.2m12.6 0a2.1 2.1 0 1 1 0 4.2 2.1 2.1 0 0 1 0-4.2" fill="black" fill-opacity=".2"/><path d="M154 62.8a2.1 2.1 0 1 1 0 4.2 2.1 2.1 0 0 1 0-4.2m12.6 0a2.1 2.1 0 1 1 0 4.2 2.1 2.1 0 0 1 0-4.2m-18.9-6.32a2.1 2.1 0 1 1 0 4.2 2.1 2.1 0 0 1 0-4.2m25.2 0a2.1 2.1 0 1 1 0 4.2 2.1 2.1 0 0 1 0-4.2m-31.5-6.3a2.1 2.1 0 1 1 0 4.2 2.1 2.1 0 0 1 0-4.2m12.6 0a2.1 2.1 0 1 1 0 4.2 2.1 2.1 0 0 1 0-4.2m12.6 0a2.1 2.1 0 1 1 0 4.2 2.1 2.1 0 0 1 0-4.2m-18.9-6.32a2.1 2.1 0 1 1 0 4.2 2.1 2.1 0 0 1 0-4.2m12.6 0a2.1 2.1 0 1 1 0 4.2 2.1 2.1 0 0 1 0-4.2m12.6 0a2.1 2.1 0 1 1 0 4.2 2.1 2.1 0 0 1 0-4.2m-31.5-6.31a2.1 2.1 0 1 1 0 4.2 2.1 2.1 0 0 1 0-4.2m12.6 0a2.1 2.1 0 1 1 0 4.2 2.1 2.1 0 0 1 0-4.2m12.6 0a2.1 2.1 0 1 1 0 4.2 2.1 2.1 0 0 1 0-4.2m-31.5-6.3a2.1 2.1 0 1 1 0 4.19 2.1 2.1 0 0 1 0-4.2m12.6 0a2.1 2.1 0 1 1 0 4.2 2.1 2.1 0 0 1 0-4.2m12.6 0a2.1 2.1 0 1 1 0 4.2 2.1 2.1 0 0 1 0-4.2m12.6 0a2.1 2.1 0 1 1 0 4.2 2.1 2.1 0 0 1 0-4.2m-31.5-6.3a2.1 2.1 0 1 1 0 4.19 2.1 2.1 0 0 1 0-4.2m12.6 0a2.1 2.1 0 1 1 0 4.2 2.1 2.1 0 0 1 0-4.2m12.6 0a2.1 2.1 0 1 1 0 4.2 2.1 2.1 0 0 1 0-4.2m-31.5-6.3a2.1 2.1 0 1 1 0 4.2 2.1 2.1 0 0 1 0-4.2m12.6 0a2.1 2.1 0 1 1 0 4.2 2.1 2.1 0 0 1 0-4.2m12.6 0a2.1 2.1 0 1 1 0 4.2 2.1 2.1 0 0 1 0-4.2m12.6 0a2.1 2.1 0 1 1 0 4.2 2.1 2.1 0 0 1 0-4.2m-31.5-6.32a2.1 2.1 0 1 1 0 4.23 2.1 2.1 0 0 1 0-4.2m12.6 0a2.1 2.1 0 1 1 0 4.2 2.1 2.1 0 0 1 0-4.2m12.6 0a2.1 2.1 0 1 1 0 4.2 2.1 2.1 0 0 1 0-4.2M147.7 6a2.1 2.1 0 1 1 0 4.2 2.1 2.1 0 0 1 0-4.2m12.6 0a2.1 2.1 0 1 1 0 4.2 2.1 2.1 0 0 1 0-4.2" fill="black" fill-opacity=".1"/></g><g id="mouth-square01-3e2e4d11"><rect x="20" y="2" width="27" height="8" rx="4" fill="black" fill-opacity=".8"/></g><g id="eyes-eva-3e2e4d11"><path fill-rule="evenodd" clip-rule="evenodd" d="M53 0c34.75 0 49 17.47 49 31S82.4 48 53 48C23.95 48 2 44.53 2 31S17.11 0 53 0" fill="black" fill-opacity=".8"/><path fill-rule="evenodd" clip-rule="evenodd" d="M28.82 34.65C22.29 33.3 17.58 28.31 18.3 23.5c.72-4.78 6.6-7.57 13.12-6.22 6.53 1.36 11.24 6.35 10.52 11.15s-6.6 7.59-13.12 6.23m46.6 0C68.9 36 63.02 33.2 62.3 28.4s4-9.8 10.52-11.15 12.4 1.44 13.12 6.24-4 9.8-10.52 11.14" fill="#25A6F5"/></g><clipPath id="clip-3e2e4d11"><rect width="120" height="120" rx="0" ry="0"/></clipPath></defs><g clip-path="url(#clip-3e2e4d11)"><rect width="120" height="120" fill="#15a2a9"/><mask id="botttsNeutral-a" style="mask-type:alpha"><rect width="120" height="120" fill="#D9D9D9"/></mask><g mask="url(#botttsNeutral-a)"><use transform="translate(-48.5 -9.89)" href="#texture-dots-3e2e4d11"/></g><use transform="translate(26 72)" href="#mouth-square01-3e2e4d11"/><use transform="translate(8 20)" href="#eyes-eva-3e2e4d11"/></g></svg>