<svg xmlns="http://www.w3.org/2000/svg" viewBox="0 0 180 180" fill="none" shape-rendering="auto" aria-hidden="true"><metadata xmlns:rdf="http://www.w3.org/1999/02/22-rdf-syntax-ns#" xmlns:xsi="http://www.w3.org/2001/XMLSchema-instance" xmlns:dc="http://purl.org/dc/elements/1.1/" xmlns:dcterms="http://purl.org/dc/terms/"><rdf:RDF><rdf:Description><dc:title>Bottts</dc:title><dc:creator>Pablo Stanley</dc:creator><dc:source xsi:type="dcterms:URI">https://bottts.com/</dc:source><dcterms:license xsi:type="dcterms:URI">https://bottts.com/</dcterms:license><dc:rights>Remix of “Bottts” (https://bottts.com/) by “Pablo Stanley”, licensed under “Free for personal and commercial use” (https://bottts.com/)</dc:rights></rdf:Description></rdf:RDF></metadata><defs><g id="sides-antenna02-42756ede"><mask id="sidesAntenna02-a" style="mask-type:luminance"><rect x="4" y="28" width="36" height="32" rx="4" fill="white"/><rect x="154" y="9" width="2" height="20" fill="white"/><rect x="128" y="28" width="36" height="32" rx="4" fill="white"/></mask><g mask="url(#sidesAntenna02-a)"><path d="M-6 0h180v76H-6z" fill="#c67c11"/><path d="M-6 0h180v76H-6z" fill="white" fill-opacity=".3"/><rect x="-6" y="38" width="180" height="38" fill="black" fill-opacity=".1"/></g><rect x="154" y="8" width="2" height="20" fill="white" fill-opacity=".4"/><circle cx="155" cy="5" r="4" fill="#E1E6E8"/><circle cx="156" cy="4" r="2" fill="white"/></g><filter id="topGlowingBulb02-a" x="14" y="5.59" width="56" height="47" filterUnits="userSpaceOnUse" color-interpolation-filters="sRGB"><feFlood flood-opacity="0" result="r0"/><feColorMatrix in="SourceAlpha" values="0 0 0 0 0 0 0 0 0 0 0 0 0 0 0 0 0 0 127 0" result="r1"/><feOffset/><feGaussianBlur stdDeviation="4"/><feColorMatrix values="0 0 0 0 1 0 0 0 0 1 0 0 0 0 1 0 0 0 0.5 0"/><feBlend in2="r0" result="r2"/><feBlend in="SourceGraphic" in2="r2" result="r3"/><feColorMatrix in="SourceAlpha" values="0 0 0 0 0 0 0 0 0 0 0 0 0 0 0 0 0 0 127 0" result="r1"/><feOffset/><feGaussianBlur stdDeviation="2"/><feComposite in2="r1" operator="arithmetic" k2="-1" k3="1"/><feColorMatrix values="0 0 0 0 1 0 0 0 0 1 0 0 0 0 1 0 0 0 0.5 0"/><feBlend in2="r3" result="r4"/></filter><g id="top-glowingBulb02-42756ede"><g filter="url(#topGlowingBulb02-a)"><path fill-rule="evenodd" clip-rule="evenodd" d="M22 33.6a20 20 0 1 1 40 0v11H22z" fill="white" fill-opacity=".3"/></g><ellipse cx="42" cy="30.59" rx="4" ry="6" fill="white" fill-opacity=".6"/><path d="M42 16.1c4.93 0 9.37 2.12 12.44 5.51m2.43 3.5q1.05 1.98 1.53 4.23" stroke="white" stroke-width="2" stroke-linecap="round"/><rect x="12" y="36.59" width="60" height="16" rx="1" fill="#48494B"/></g><g id="texture-dirty02-42756ede"><path fill-rule="evenodd" clip-rule="evenodd" d="M143 130.65c-3.19-17.34-9.55-2.58-24.85-5.63-6.76-1.35-1.3-7.25-6.34-9.8-4.26-2.17-10.06-.43-14.94-1.82-7.04-2.02-6.95-6.12-13.5-6.73-6.2-.58-12.7 1.33-18.97.61-11.8-1.35-6.96-19.22-15.82-22.38-8.85-3.15-23.43 2.3-25.34 11.23-1.86 8.71 10.57 41.12 10.57 41.12H143" fill="black" fill-opacity=".2"/><path fill-rule="evenodd" clip-rule="evenodd" d="M179 122.77c-51.24 0-56.58-25.8-81.8-37.61C72 73.34 49.9 103.9 41.44 74.2S33 137.07 33 137.07h146z" fill="black" fill-opacity=".1"/><path fill-rule="evenodd" clip-rule="evenodd" d="M184.58 9.18c-11.94-.98-5.04 10.8-9.75 10.8-6.97 0-2.1-7.97-10.58-7.78-2.22.06-4.95 1.94-5.12 4.5-.36 5.52 3.72 15.03-1.83 15.3-5.18.25-1.1-9.64-1.65-16.24-.3-3.77-4.18-6.75-6.97-6.75-7.57 0-1.68 15.7-7.13 15.7s-1.21-9.05-5.08-13.84c-4.5-5.57-19.3-8.3-8.75-10.87h57.15" fill="black" fill-opacity=".4"/></g><g id="head-square04-42756ede"><mask id="headSquare04-a" style="mask-type:luminance"><path fill-rule="evenodd" clip-rule="evenodd" d="M0 102V68.85a40 40 0 0 1 2.28-13.31L19.76 12A18 18 0 0 1 36.74 0h56.52a18 18 0 0 1 16.98 12l17.48 43.54a40 40 0 0 1 2.28 13.3V102a18 18 0 0 1-18 18H18a18 18 0 0 1-18-18" fill="white"/></mask><g mask="url(#headSquare04-a)"><path d="M-2-2h134v124H-2z" fill="#c67c11"/><use transform="translate(-44 -7)" href="#texture-dirty02-42756ede"/></g></g><g id="mouth-smile01-42756ede"><path d="M23.05 4.44a2 2 0 1 1 3.9-.88C27.72 6.96 30.4 9 34 9s6.28-2.04 7.05-5.44a2 2 0 1 1 3.9.88C43.75 9.7 39.43 13 34 13s-9.76-3.3-10.95-8.56" fill="black" fill-opacity=".6"/></g><g id="eyes-roundFrame02-42756ede"><rect y="11" width="104" height="34" rx="17" fill="black" fill-opacity=".8"/><circle cx="29" cy="28" r="13" fill="#F1EEDA"/><circle cx="75" cy="28" r="13" fill="#F1EEDA"/><rect x="24" y="23" width="10" height="10" rx="2" fill="black" fill-opacity=".8"/><rect x="70" y="23" width="10" height="10" rx="2" fill="black" fill-opacity=".8"/></g><clipPath id="clip-42756ede"><rect width="180" height="180" rx="0" ry="0"/></clipPath></defs><g clip-path="url(#clip-42756ede)"><use transform="translate(6 66)" href="#sides-antenna02-42756ede"/><use transform="translate(49 -.6)" href="#top-glowingBulb02-42756ede"/><use transform="translate(25 44)" href="#head-square04-42756ede"/><use transform="translate(56 128)" href="#mouth-smile01-42756ede"/><use transform="translate(38 76)" href="#eyes-roundFrame02-42756ede"/></g></svg>