<svg xmlns="http://www.w3.org/2000/svg" viewBox="0 0 600 600" fill="none" shape-rendering="auto" aria-hidden="true"><metadata xmlns:rdf="http://www.w3.org/1999/02/22-rdf-syntax-ns#" xmlns:xsi="http://www.w3.org/2001/XMLSchema-instance" xmlns:dc="http://purl.org/dc/elements/1.1/" xmlns:dcterms="http://purl.org/dc/terms/"><rdf:RDF><rdf:Description><dc:title>Lorelei Neutral</dc:title><dc:creator>Lisa Wischofsky</dc:creator><dc:source xsi:type="dcterms:URI">https://www.figma.com/community/file/1198749693280469639</dc:source><dcterms:license xsi:type="dcterms:URI">https://creativecommons.org/publicdomain/zero/1.0/</dcterms:license><dc:rights>Remix of “Lorelei Neutral” (https://www.figma.com/community/file/1198749693280469639) by “Lisa Wischofsky”, licensed under “CC0 1.0” (https://creativecommons.org/publicdomain/zero/1.0/)</dc:rights></rdf:Description></rdf:RDF></metadata><defs><g id="eyebrows-variant09-63f8ae24"><path d="M142 36q11 1 20 6 5 3 7 8 1 5-2 6-7 1-14-3l-9-1q-20-1-38 5a169 169 0 0 0-61 30q-6 5-14 5-4-3-2-7 4-10 13-16 15-13 34-21 32-14 66-12m156 2q11-2 20 3 7 5 10 12 1 3-2 7-6 1-11-2-6-4-15-6l-13 4q-13 6-21 18l-6 9-3 1v-7q4-12 13-22 12-12 28-17" fill="#000000"/></g><g id="eyes-variant17-63f8ae24"><path d="M313 25q13 1 21 10 6 5 5 12l-5 8q-3 12-16 17-7 3-13-1-4-5-4-12-1-13 6-24-6 0-12 4-15 11-24 29-1 5-5 10-3 2-5-1-1-4 1-9 5-21 22-34 12-10 29-9M89 35q32-4 60 12 15 9 20 24l-2 11q-5 5-12 6-17 4-35 0-9-1-15-6-4-8-1-17 2-11 9-20H91q-26 3-47 20-4 4-8 3-9-1-7-9 2-5 7-8 24-14 53-16" fill="#000000"/></g><g id="mouth-happy02-63f8ae24"><path d="M57 26q4 1 7 4l13 7q17 8 34 12 22 5 45 6l34 1 3 1c-17 10-40 11-60 10q-35-1-66-18-11-5-15-16 0-5 5-7" fill="#000000"/></g><g id="nose-variant03-63f8ae24"><path d="M52 101q0 4-4 9-7 9-18 12c-5 1-9-2-13 0H5q-3-3 0-7 5-6 12-7 6-2 10 2l1 7 11-8z" fill="#000000"/></g><clipPath id="clip-63f8ae24"><rect width="600" height="600" rx="0" ry="0"/></clipPath></defs><g clip-path="url(#clip-63f8ae24)"><rect width="600" height="600" fill="#ffffff"/><use transform="translate(115 124)" href="#eyebrows-variant09-63f8ae24"/><use transform="translate(109 229)" href="#eyes-variant17-63f8ae24"/><use transform="translate(173 400)" href="#mouth-happy02-63f8ae24"/><use transform="translate(309 271)" href="#nose-variant03-63f8ae24"/></g></svg>