<svg xmlns="http://www.w3.org/2000/svg" viewBox="0 0 600 600" fill="none" shape-rendering="auto" aria-hidden="true"><metadata xmlns:rdf="http://www.w3.org/1999/02/22-rdf-syntax-ns#" xmlns:xsi="http://www.w3.org/2001/XMLSchema-instance" xmlns:dc="http://purl.org/dc/elements/1.1/" xmlns:dcterms="http://purl.org/dc/terms/"><rdf:RDF><rdf:Description><dc:title>Lorelei Neutral</dc:title><dc:creator>Lisa Wischofsky</dc:creator><dc:source xsi:type="dcterms:URI">https://www.figma.com/community/file/1198749693280469639</dc:source><dcterms:license xsi:type="dcterms:URI">https://creativecommons.org/publicdomain/zero/1.0/</dcterms:license><dc:rights>Remix of “Lorelei Neutral” (https://www.figma.com/community/file/1198749693280469639) by “Lisa Wischofsky”, licensed under “CC0 1.0” (https://creativecommons.org/publicdomain/zero/1.0/)</dc:rights></rdf:Description></rdf:RDF></metadata><defs><g id="eyebrows-variant05-5ff8a7d8"><path d="M106 19q25 2 44 15 7 5 10 12 2 4-3 5-5-1-8-4-17-14-38-14-11 1-23 5-22 5-38 22-3 6-10 8-9 2-10-8 0-6 5-10 19-22 48-30 12-3 23-1m205 11q8 3 13 10 6 5 5 11-2 11-12 8c-4-1-6-7-10-10q-6-6-13-9-18-4-32 9l-9 9q1-10 9-17c12-13 32-17 49-11" fill="#000000"/></g><g id="eyes-variant21-5ff8a7d8"><path d="M327 4q12 10 13 25 1 9-2 16c-3 5-10 5-13 0q-2-7-2-15-2-7-8-13-5-2-11 0c10 13 9 30 5 45q-3 9-10 16l-11 8q-8 3-14-2-7-7-7-18-2 8-6 13l-4-6q-1-10 2-21 6-20 21-35 10-11 25-16 12-3 22 3M123 9q29 12 41 41 5 10 4 22 0 4-3 4l-7-9q-7-13-16-25-12-15-30-19 9 15 9 34-2 16-12 30-8 10-20 10-9 0-16-5-13-11-14-28-2-12 1-22-2 5-6 8-7 6-13-1-4-5 0-12Q57 15 83 7q20-4 40 2" fill="#000000"/></g><g id="mouth-happy05-5ff8a7d8"><path d="M207 23q12-2 24 0 6 4 4 10-3 4-8 3l-14 14-20 18-17 8q-10 5-21 5-13 1-25-2-15-2-28-8-14-4-27-12l-13-7-7-9-24-6q-3 0-4-3 7-2 15 0l31 1 35-3 41-3zm6 10q-18-3-36-1l-42 6q-36 5-71 6l25 10q25 11 53 16 23 4 42-8c12-7 19-19 29-29" fill="#000000"/></g><g id="nose-variant04-5ff8a7d8"><path d="M39 67a37 37 0 0 1 19 29q-1 15-13 22-9 5-18 7-4 2-8 0-2-3 1-6l21-12q5-3 5-9c0-10-5-17-7-26z" fill="#000000"/></g><clipPath id="clip-5ff8a7d8"><rect width="600" height="600" rx="0" ry="0"/></clipPath></defs><g clip-path="url(#clip-5ff8a7d8)"><rect width="600" height="600" fill="#ffffff"/><use transform="translate(115 124)" href="#eyebrows-variant05-5ff8a7d8"/><use transform="translate(109 229)" href="#eyes-variant21-5ff8a7d8"/><use transform="translate(173 400)" href="#mouth-happy05-5ff8a7d8"/><use transform="translate(309 271)" href="#nose-variant04-5ff8a7d8"/></g></svg>