<svg xmlns="http://www.w3.org/2000/svg" viewBox="0 0 600 600" fill="none" shape-rendering="auto" aria-hidden="true"><metadata xmlns:rdf="http://www.w3.org/1999/02/22-rdf-syntax-ns#" xmlns:xsi="http://www.w3.org/2001/XMLSchema-instance" xmlns:dc="http://purl.org/dc/elements/1.1/" xmlns:dcterms="http://purl.org/dc/terms/"><rdf:RDF><rdf:Description><dc:title>Lorelei Neutral</dc:title><dc:creator>Lisa Wischofsky</dc:creator><dc:source xsi:type="dcterms:URI">https://www.figma.com/community/file/1198749693280469639</dc:source><dcterms:license xsi:type="dcterms:URI">https://creativecommons.org/publicdomain/zero/1.0/</dcterms:license><dc:rights>Remix of “Lorelei Neutral” (https://www.figma.com/community/file/1198749693280469639) by “Lisa Wischofsky”, licensed under “CC0 1.0” (https://creativecommons.org/publicdomain/zero/1.0/)</dc:rights></rdf:Description></rdf:RDF></metadata><defs><g id="eyebrows-variant02-66f8b2dd"><path d="M144 28q12 0 23 6 7 5 10 13l-2 3-6-3q-14-7-32-6-14 0-27 5l-24 9-19 8-40 10q-10 5-17 13L0 94q2-12 10-22l13-13q12-9 26-11 15-2 29-8l19-6 23-5q12-2 24-1m166 14 22 3v3q-10 9-24 10c-11 2-25-1-36 4q-3 0-5 3-13 16-21 33c-2-7 3-15 5-22l10-18q7-16 23-17 14-1 26 1" fill="#000000"/></g><g id="eyes-variant07-66f8b2dd"><path d="M91 15q23-1 43 11t28 34q4 6 1 12-7-5-12-13-9-13-22-22-18-11-38-10-23 4-38 19L40 57q-5-7 1-15 18-24 50-27m230 2q8 3 12 11 4 13-1 25-2 5-7 5-5-2-5-9 2-10-1-19-4-4-10-4-14 1-24 8-18 10-28 28-1 4-5 5-2-4 0-10 8-20 26-32 11-7 21-9 11-3 22 1" fill="#000000"/><path d="M289 42q9 2 11 12 3 13-3 24 15-3 29-10c-4 9-15 14-24 18q-15 7-31 8-8 1-13-4 4-6 11-6-3-9-2-19 1-9 7-16 6-6 15-7M129 52q6-2 11 4 5 5 7 13 2 10 0 22h13q4 1 3 4-2 4-7 4-16 5-33 4-26 0-50-10-8-2-14-8l11 3q19 4 38 5-5-16 1-28 7-12 20-13" fill="#000000"/></g><g id="freckles-variant01-66f8b2dd"><path d="M339 1q6-3 7 4-1 5-6 3c-3 0-4-6-1-7M29 9q4-2 7 1 5 5 0 9-4 5-9 0c-3-3-2-9 2-10m259 1q3-3 4 1 0 2-2 3-5 0-2-4m24 0q9-2 8 7-3 6-9 2-5-6 1-9m-173 2q4-2 5 3 0 4-5 3c-2 0-3-5 0-6m216 1q4-3 7 3-2 5-6 3t-1-6M75 13q8 2 6 9-2 4-6 4-3 0-5-4-3-8 5-9M3 21q5-1 6 5c0 3-5 5-7 2q-4-4 1-7m331 5q6-3 8 5-2 6-9 4-5-5 1-9m-221 3q4 1 5 5l-2 3q-5 3-8-2 0-6 5-6M47 42q6 1 8 7-1 6-7 7-5 0-7-5-1-7 6-9" fill="#000000"/></g><g id="mouth-sad04-66f8b2dd"><path d="M202 34q3 0 5 3 2 8 0 16 0 6-4 11l-5 3-2-7 4-20-30 6-13 4q-16 11-29 24l-9 6q-5-1-5-6 2-6 7-10 14-15 32-23c9-3 18 0 27-2z" fill="#000000"/></g><g id="nose-variant01-66f8b2dd"><path d="m42 0 3 15 3 26 8 13 6 12 5 14q5 7 5 16-1 15-14 20l-19 8q-7 5-15 5-8 1-14-5-1-3 3-5l12-3 16-5 13-5q10-4 7-14l-5-8-7-17-7-19q-6-12-5-26 0-11 4-22" fill="#000000"/></g><clipPath id="clip-66f8b2dd"><rect width="600" height="600" rx="0" ry="0"/></clipPath></defs><g clip-path="url(#clip-66f8b2dd)"><rect width="600" height="600" fill="#ffffff"/><use transform="translate(115 124)" href="#eyebrows-variant02-66f8b2dd"/><use transform="translate(109 229)" href="#eyes-variant07-66f8b2dd"/><use transform="translate(91 340)" href="#freckles-variant01-66f8b2dd"/><use transform="translate(173 400)" href="#mouth-sad04-66f8b2dd"/><use transform="translate(309 271)" href="#nose-variant01-66f8b2dd"/></g></svg>