<svg xmlns="http://www.w3.org/2000/svg" viewBox="0 0 600 600" fill="none" shape-rendering="auto" aria-hidden="true"><metadata xmlns:rdf="http://www.w3.org/1999/02/22-rdf-syntax-ns#" xmlns:xsi="http://www.w3.org/2001/XMLSchema-instance" xmlns:dc="http://purl.org/dc/elements/1.1/" xmlns:dcterms="http://purl.org/dc/terms/"><rdf:RDF><rdf:Description><dc:title>Lorelei Neutral</dc:title><dc:creator>Lisa Wischofsky</dc:creator><dc:source xsi:type="dcterms:URI">https://www.figma.com/community/file/1198749693280469639</dc:source><dcterms:license xsi:type="dcterms:URI">https://creativecommons.org/publicdomain/zero/1.0/</dcterms:license><dc:rights>Remix of “Lorelei Neutral” (https://www.figma.com/community/file/1198749693280469639) by “Lisa Wischofsky”, licensed under “CC0 1.0” (https://creativecommons.org/publicdomain/zero/1.0/)</dc:rights></rdf:Description></rdf:RDF></metadata><defs><g id="eyebrows-variant04-62f8ac91"><path d="M315 23q6 2 9 8l-35 13-16 9q-10 6-22 8l-13 3-7 8-6 12-3-3q-2-9 2-16 3-10 8-18l9-10q8-4 15 0v6l25-13q16-9 34-7m-194 3c13 2 31 0 44 6q12 6 17 20l-1 3q-5 5-14 2l-9-8-8-2q-12-3-25-2c-12-1-23-7-36-8l-27-4-4-2q14-5 28-6 18-1 35 1" fill="#000000"/><path d="M180 29q8-3 16 2 7 6 10 15 1-6 5-11 11 4 13 14 4 9 0 16c-2 4-8 8-12 4q-6-8-6-17 0 5-5 9-5 3-8-2-4-5-6-12l-7-15z" fill="#000000"/></g><g id="eyes-variant08-62f8ac91"><path d="M328 22q5-1 10 3 6 6-1 13l-10 2-18 4q0 11-5 22-3 7-10 11-9 5-16-3l-3-9-9 9q-5 1-5-3 2-9 8-16a91 91 0 0 1 42-31zM86 35q15 1 31 5 22 5 40 18 5 3 9 10 1 3-2 3-6-2-11-6-17-7-35-9-1 14-10 25-5 7-14 7-13-2-21-11-7-11-7-23l-14 3q-4 3-9 2-8-3-6-11 2-5 8-8 20-6 41-5" fill="#000000"/></g><g id="mouth-sad04-62f8ac91"><path d="M202 34q3 0 5 3 2 8 0 16 0 6-4 11l-5 3-2-7 4-20-30 6-13 4q-16 11-29 24l-9 6q-5-1-5-6 2-6 7-10 14-15 32-23c9-3 18 0 27-2z" fill="#000000"/></g><g id="nose-variant02-62f8ac91"><path d="M48 108v1q-6 13-20 18-5 2-9-1v-4q10-8 24-12z" fill="#000000"/></g><clipPath id="clip-62f8ac91"><rect width="600" height="600" rx="0" ry="0"/></clipPath></defs><g clip-path="url(#clip-62f8ac91)"><rect width="600" height="600" fill="#ffffff"/><use transform="translate(115 124)" href="#eyebrows-variant04-62f8ac91"/><use transform="translate(109 229)" href="#eyes-variant08-62f8ac91"/><use transform="translate(173 400)" href="#mouth-sad04-62f8ac91"/><use transform="translate(309 271)" href="#nose-variant02-62f8ac91"/></g></svg>