<svg xmlns="http://www.w3.org/2000/svg" viewBox="0 0 980 980" fill="none" shape-rendering="auto" aria-hidden="true"><metadata xmlns:rdf="http://www.w3.org/1999/02/22-rdf-syntax-ns#" xmlns:xsi="http://www.w3.org/2001/XMLSchema-instance" xmlns:dc="http://purl.org/dc/elements/1.1/" xmlns:dcterms="http://purl.org/dc/terms/"><rdf:RDF><rdf:Description><dc:title>Lorelei</dc:title><dc:creator>Lisa Wischofsky</dc:creator><dc:source xsi:type="dcterms:URI">https://www.figma.com/community/file/1198749693280469639</dc:source><dcterms:license xsi:type="dcterms:URI">https://creativecommons.org/publicdomain/zero/1.0/</dcterms:license><dc:rights>Remix of “Lorelei” (https://www.figma.com/community/file/1198749693280469639) by “Lisa Wischofsky”, licensed under “CC0 1.0” (https://creativecommons.org/publicdomain/zero/1.0/)</dc:rights></rdf:Description></rdf:RDF></metadata><defs><g id="eyes-variant22-4c8a610e"><path d="M330 37q3 0 5 2 2 3-2 5-9 6-20 9h12q5-2 10 3 4 4 1 10-3 5-8 5-24 1-47 7-6 2-11 0-6-6-2-13 5-5 11-6l37-17zM73 38q29 3 56 14l31 11q8 0 15 6c3 4 0 11-5 12q-14 1-27-2L64 66q-12 0-23-5-3-1-4-4 3-7 11-9 11-2 22 1 17 1 34 6-12-6-25-8l-15-4q-3-1 0-4z" fill="#000000"/></g><g id="eyebrows-variant05-4c8a610e"><path d="M106 19q25 2 44 15 7 5 10 12 2 4-3 5-5-1-8-4-17-14-38-14-11 1-23 5-22 5-38 22-3 6-10 8-9 2-10-8 0-6 5-10 19-22 48-30 12-3 23-1m205 11q8 3 13 10 6 5 5 11-2 11-12 8c-4-1-6-7-10-10q-6-6-13-9-18-4-32 9l-9 9q1-10 9-17c12-13 32-17 49-11" fill="#000000"/></g><g id="nose-variant02-4c8a610e"><path d="M48 108v1q-6 13-20 18-5 2-9-1v-4q10-8 24-12z" fill="#000000"/></g><g id="mouth-happy16-4c8a610e"><path d="M33 13q15 0 31 5c23 5 46 13 69 16 22 2 42-8 65-2q9 2 14 11 6 7 3 15-3 11-13 17-12 6-24 8l-30 2q-15 1-29-2l-31-7-26-8q-12-2-23-8-9-4-17-10-11-9-8-23 4-13 19-14m146 26-38 5q0 14-5 28l-2 5 20 1 19-2V63zm-87-4q2 8-1 15-1 9-5 18l22 5 22 4q-3-17 3-34-20-2-41-8m95 3q0 10-3 20-2 9-6 17 9-1 18-6 8-4 11-13v-8l-8-8zM46 23v11l-4 20 18 6 22 7q0-18 4-34zm-8-1H28q-6 3-8 8l3 9q5 6 12 11-1-15 3-28M6 4q6-3 13-4-7 11-19 13 1-5 6-9" fill="#000000"/></g><g id="head-variant03-4c8a610e"><path d="M299 3q42 2 83 14 33 10 59 28 23 16 41 38 30 38 36 86a361 361 0 0 1 2 101l-5 34-4 20q-1 2-3 2l-3-12 3-44q2-36 1-72-2-23-6-45-10-43-40-75-28-27-63-43-33-14-67-19-27-4-54-5a277 277 0 0 0-128 30q-20 13-35 32-18 23-30 50-20 42-24 89-5 36 7 70 4 7 6 15 7-1 12 1 3 2 1 3l-10 3q-15 3-29 12-11 7-18 19-6 15-2 32 9 31 33 50 19 13 40 16l30-1q7 7 11 17l18 27a136 136 0 0 0 66 50q33 12 67 19l42 8q8 1 17 5 2 2-1 3l-11 1a535 535 0 0 1-67-9 255 255 0 0 1-84-32q-16-12-30-27a214 214 0 0 1-15 123q-24 42-70 57-5 2-10 1-2-1-2-3 1-4 6-6 19-11 37-24 21-15 31-38t13-48q3-20 2-40l-4-38-18-36q-9 3-19 3a88 88 0 0 1-75-37 93 93 0 0 1-20-58q0-14 8-25 7-11 19-17 8-5 18-8l-9-24q-8-33-3-67a292 292 0 0 1 64-149q12-15 29-26l20-9Q228-2 299 3" fill="black"/><path d="M279 11q27 1 54 5 34 5 67 19 34 15 63 43 30 32 40 75 5 22 6 45 1 36-1 72l-3 44 3 12-1 20q-3 8-2 15l-6 75q-1 19-8 36-5 13-15 24-20 19-43 33-29 14-59 23l-13 9q12 1 24-2-6 17-7 36l2 16q4 8 13 11 17 9 35 14l65 27 6 11q9 17 3 36-8 19-27 31-25 16-55 23-56 14-113 11-63-1-122-18-30-8-58-23-23-12-40-32-10-12-12-28a122 122 0 0 0 85-107q7-36 0-73 13 15 30 27l26 14q27 13 58 18a331 331 0 0 0 67 9l11-1q3-1 1-3-9-4-17-5l-42-8q-34-7-67-19-21-9-39-22-15-12-27-28l-18-27q-4-10-11-17l-30 1q-21-3-40-16a94 94 0 0 1-33-50q-4-17 2-32 7-12 18-19 14-9 29-12l10-3q2-2-1-3-5-2-12-1-2-8-6-15-12-34-7-70a276 276 0 0 1 54-139q15-19 35-32 17-9 35-15 45-16 93-15" fill="#ffffff"/><path d="M63 340q6-1 12 1 9 2 14 9 3 5-1 9c-4 7-11 10-15 17l21 9q6 1 11 6l1 2q-4 1-8-1l-24-7q-7-1-9-7-1-6 3-10l15-14c-5-6-16-7-20-14m444 6q2 1 2 3l2 16a483 483 0 0 1-2 89q-2 17-11 32-8 16-22 27a198 198 0 0 1-84 44c0 15-3 32-1 48q1 3 5 5 13 7 27 11a451 451 0 0 1 68 29q11 6 18 15-9 0-16-2l-65-27q-18-5-35-14-9-3-13-11-3-8-2-16 1-19 7-36-12 3-24 2l13-9q30-9 59-23 23-14 43-33 10-10 15-24 7-17 8-36l6-75q-1-7 2-15" fill="black"/><use transform="translate(159 232)" href="#eyes-variant22-4c8a610e"/><use transform="translate(164 126)" href="#eyebrows-variant05-4c8a610e"/><use transform="translate(359 274)" href="#nose-variant02-4c8a610e"/><use transform="translate(223 402)" href="#mouth-happy16-4c8a610e"/></g><g id="hair-variant22-4c8a610e"><path d="M469 78q10-1 20 2 11 3 19 12 9 13 8 28l31-16q32-14 65-14 18 0 34 11 15 10 16 28 0 12-8 23-14 21-36 38 14 9 15 26-1 10-6 19 14 20 19 45 1 19-9 34-8 16-26 21-3 0-3-3l-5-18-14-56q-13 2-27-1-12-2-22-9a85 85 0 0 1-63 30q-22-2-40-16-16-9-23-26-13 9-26 14l-41 18-33 13q-15 7-27 19-9 8-13 20l-2 14q-4 10-11 19-11 16-15 36-4 25 2 51l7 32q8 4 12 10l-17-2-12-2-3 2q15 3 27 11 6 3 8 9l-22-2-25-9q-6 6-13 8l-14-12-11-16-8-13q-6-12-9-26a220 220 0 0 1 5-119q9-33 27-64 23-38 63-57 18-10 38-14 3-20 17-32a74 74 0 0 1 81-5q7-21 23-37 20-19 47-24" fill="#000000"/><use transform="translate(131 168)" href="#head-variant03-4c8a610e"/><path d="M469 78q10-1 20 1 11 4 19 13 9 13 8 28 15-9 31-16 30-14 64-14 20 0 35 11 15 10 16 28 0 12-8 23-14 21-36 38 16 11 15 30-2 13-12 22-10 11-27 15a76 76 0 0 1-54-9q-11 12-26 21-20 11-41 9-26-6-45-22-11-9-14-19l-24 13-44 18q-22 8-43 19-20 12-29 32c-2 6 0 12-3 18l-10 17q-11 15-14 33-5 27 1 53l7 32q8 4 12 10-16 0-31-5a206 206 0 0 1-53-15l-5-6q-6-10-9-24-8-31-6-64a265 265 0 0 1 37-121q23-38 63-57 18-10 38-14 3-20 18-33 19-13 43-14 21 1 37 10 6-20 21-35 20-21 49-26M223 478q14 1 27 6 10 5 18 12l2 4q-13 0-26-3-13-4-24-10-4-1-4-6 4-4 7-3" fill="#000000"/></g><g id="hairAccessories-flowers-4c8a610e"><path d="M185 7c8-2 18 4 19 12q3 8-1 17-5 11-18 9c-9 0-16-9-15-18q-1-5 3-11 4-7 12-9" fill="#000000"/><path d="M186 16q10-1 13 9c2 8-6 15-14 14q-11-5-7-17 3-4 8-6" fill="white"/><path d="M130 3q7-4 14-2 6 2 9 8 5 11 3 22 12 3 17 14c3 9 1 21-6 27q-9 7-20 4l-3 11q-5 8-15 10-12 0-22-7-7-6-8-15l-7-2v14q9 3 14 12 5 8 3 17a31 31 0 0 1-24 23q0 8-3 12-6 7-14 9-11 3-20-2-8-5-12-14H21q-11-2-18-11-8-18 7-32-3-9-1-19 4-9 10-14 7-6 16-5l11 3q7-8 17-11-6-3-11-10-5-11 1-23 5-8 15-9 7-3 13-1 7 2 10 8 12-15 30-10 4-5 9-7M85 50l-9 6 8 4z" fill="#000000"/><path d="M64 20q4-3 10-1 10 3 11 15-1 9-9 14c-9 5-22-2-22-13q1-10 10-15m72-11q9 0 13 8 4 11 0 22 9 3 13 12 2 9-4 16-7 6-17 4-3 11-14 16-8 3-15-4-6-6-7-16-6 0-11-4-6-8-1-17l7-6q-3-7-4-15 2-8 9-10 9-1 16 5 5-10 15-11M84 71q3 12-3 23 8 1 13 4 7 6 8 15 0 8-6 13-9 5-19 6 3 7-1 13c-4 7-14 9-21 5q-10-5-12-16-10 3-20 2-6-2-11-7-5-9 1-18l9-7q-7-12-4-25 4-8 12-8 10 1 18 7 4-12 15-16c8-3 18 0 21 9" fill="white"/></g><clipPath id="clip-4c8a610e"><rect width="980" height="980" rx="0" ry="0"/></clipPath></defs><g clip-path="url(#clip-4c8a610e)"><use transform="translate(76 3)" href="#hair-variant22-4c8a610e"/><use transform="translate(183 329)" href="#hairAccessories-flowers-4c8a610e"/></g></svg>