<svg xmlns="http://www.w3.org/2000/svg" viewBox="0 0 600 600" fill="none" shape-rendering="auto" aria-hidden="true"><metadata xmlns:rdf="http://www.w3.org/1999/02/22-rdf-syntax-ns#" xmlns:xsi="http://www.w3.org/2001/XMLSchema-instance" xmlns:dc="http://purl.org/dc/elements/1.1/" xmlns:dcterms="http://purl.org/dc/terms/"><rdf:RDF><rdf:Description><dc:title>Lorelei Neutral</dc:title><dc:creator>Lisa Wischofsky</dc:creator><dc:source xsi:type="dcterms:URI">https://www.figma.com/community/file/1198749693280469639</dc:source><dcterms:license xsi:type="dcterms:URI">https://creativecommons.org/publicdomain/zero/1.0/</dcterms:license><dc:rights>Remix of “Lorelei Neutral” (https://www.figma.com/community/file/1198749693280469639) by “Lisa Wischofsky”, licensed under “CC0 1.0” (https://creativecommons.org/publicdomain/zero/1.0/)</dc:rights></rdf:Description></rdf:RDF></metadata><defs><g id="eyebrows-variant03-65f8b14a"><path d="M119 47q15-1 29 3t23 18q5 12-6 20-11 4-23 2-31-6-61-14l-20-4-10-3q-2 0-3-4 2-5 9-7l20-7 18-3zm176 5q12 2 23 7l8 5q4 3 1 7-4 4-9 5-26 8-52 12l-9 1-8-4q-4-4-4-10 0-12 8-20 8-4 16-4 14-2 26 1" fill="#000000"/></g><g id="eyes-variant13-65f8b14a"><path d="M287 46q8-1 12 7 6 12-1 24-5 8-15 4-6-4-8-12-1-8 3-14 2-7 9-9m-148 4q9-2 14 4 8 10 3 21-4 11-14 12-9-1-12-9-5-10 1-20 3-5 8-8" fill="#000000"/></g><g id="mouth-happy18-65f8b14a"><path d="M189 33q4-1 4 3v15q7-4 16-2-2 5-8 8l-34 12q-25 6-51 8-12 2-22-3-4 0-4-4h12q4-8 11-11 15-10 31-18l10-5c4-1 7 4 11 4 7-1 16-7 24-7m-1 45q2 6-1 12-4 7-12 10-9 4-18 3-5-2-6-6l7-3q13-4 25-13z" fill="#000000"/></g><g id="nose-variant03-65f8b14a"><path d="M52 101q0 4-4 9-7 9-18 12c-5 1-9-2-13 0H5q-3-3 0-7 5-6 12-7 6-2 10 2l1 7 11-8z" fill="#000000"/></g><clipPath id="clip-65f8b14a"><rect width="600" height="600" rx="0" ry="0"/></clipPath></defs><g clip-path="url(#clip-65f8b14a)"><rect width="600" height="600" fill="#ffffff"/><use transform="translate(115 124)" href="#eyebrows-variant03-65f8b14a"/><use transform="translate(109 229)" href="#eyes-variant13-65f8b14a"/><use transform="translate(173 400)" href="#mouth-happy18-65f8b14a"/><use transform="translate(309 271)" href="#nose-variant03-65f8b14a"/></g></svg>