<svg xmlns="http://www.w3.org/2000/svg" viewBox="0 0 600 600" fill="none" shape-rendering="auto" aria-hidden="true"><metadata xmlns:rdf="http://www.w3.org/1999/02/22-rdf-syntax-ns#" xmlns:xsi="http://www.w3.org/2001/XMLSchema-instance" xmlns:dc="http://purl.org/dc/elements/1.1/" xmlns:dcterms="http://purl.org/dc/terms/"><rdf:RDF><rdf:Description><dc:title>Lorelei Neutral</dc:title><dc:creator>Lisa Wischofsky</dc:creator><dc:source xsi:type="dcterms:URI">https://www.figma.com/community/file/1198749693280469639</dc:source><dcterms:license xsi:type="dcterms:URI">https://creativecommons.org/publicdomain/zero/1.0/</dcterms:license><dc:rights>Remix of “Lorelei Neutral” (https://www.figma.com/community/file/1198749693280469639) by “Lisa Wischofsky”, licensed under “CC0 1.0” (https://creativecommons.org/publicdomain/zero/1.0/)</dc:rights></rdf:Description></rdf:RDF></metadata><defs><g id="eyebrows-variant01-60f8a96b"><path d="M172 1q9 3 10 13 0 13-7 22-4 5-10 1-3-6-2-14l-13 9-19 10-30 7-26 8-22 12-25 17-11 12q-2-5 1-11l12-12 23-17q25-18 55-28 14-4 28-11l22-15q6-5 14-3m93 18q4 2 6 6c17 8 33 8 49 17q6 3 9 10 4 6-2 11l-16-6c-12-6-24-7-36-11q-10-2-19-9l-7 25q-1 4-5 4l-1-8 2-11q2-13 7-24 4-8 13-4" fill="#000000"/></g><g id="eyes-variant21-60f8a96b"><path d="M327 4q12 10 13 25 1 9-2 16c-3 5-10 5-13 0q-2-7-2-15-2-7-8-13-5-2-11 0c10 13 9 30 5 45q-3 9-10 16l-11 8q-8 3-14-2-7-7-7-18-2 8-6 13l-4-6q-1-10 2-21 6-20 21-35 10-11 25-16 12-3 22 3M123 9q29 12 41 41 5 10 4 22 0 4-3 4l-7-9q-7-13-16-25-12-15-30-19 9 15 9 34-2 16-12 30-8 10-20 10-9 0-16-5-13-11-14-28-2-12 1-22-2 5-6 8-7 6-13-1-4-5 0-12Q57 15 83 7q20-4 40 2" fill="#000000"/></g><g id="mouth-happy13-60f8a96b"><path d="M188 50q3 4 1 10-3 11-10 21-6 8-16 12-16 5-31-3-7-2-11-9l-2-4q5-3 9-2c9 0 18 5 27 7q10 0 17-8l12-22q1-3 4-2" fill="#000000"/></g><g id="nose-variant05-60f8a96b"><path d="m36 23 2 2 7 22 15 23q6 9 5 20-2 10-9 16-11 10-25 16-7 5-18 2l6-4 36-24q4-4 4-9-2-9-8-16-8-13-13-25-4-11-2-23" fill="#000000"/></g><clipPath id="clip-60f8a96b"><rect width="600" height="600" rx="0" ry="0"/></clipPath></defs><g clip-path="url(#clip-60f8a96b)"><rect width="600" height="600" fill="#ffffff"/><use transform="translate(115 124)" href="#eyebrows-variant01-60f8a96b"/><use transform="translate(109 229)" href="#eyes-variant21-60f8a96b"/><use transform="translate(173 400)" href="#mouth-happy13-60f8a96b"/><use transform="translate(309 271)" href="#nose-variant05-60f8a96b"/></g></svg>