<svg xmlns="http://www.w3.org/2000/svg" viewBox="0 0 980 980" fill="none" shape-rendering="auto" aria-hidden="true"><metadata xmlns:rdf="http://www.w3.org/1999/02/22-rdf-syntax-ns#" xmlns:xsi="http://www.w3.org/2001/XMLSchema-instance" xmlns:dc="http://purl.org/dc/elements/1.1/" xmlns:dcterms="http://purl.org/dc/terms/"><rdf:RDF><rdf:Description><dc:title>Lorelei</dc:title><dc:creator>Lisa Wischofsky</dc:creator><dc:source xsi:type="dcterms:URI">https://www.figma.com/community/file/1198749693280469639</dc:source><dcterms:license xsi:type="dcterms:URI">https://creativecommons.org/publicdomain/zero/1.0/</dcterms:license><dc:rights>Remix of “Lorelei” (https://www.figma.com/community/file/1198749693280469639) by “Lisa Wischofsky”, licensed under “CC0 1.0” (https://creativecommons.org/publicdomain/zero/1.0/)</dc:rights></rdf:Description></rdf:RDF></metadata><defs><g id="eyes-variant19-4e8a6434"><path d="M268 35q3-1 6 3 12 12 30 13 8 0 15-3l8-6q5-1 9 2c4 3 3 10 0 13q-9 10-22 11-17 1-31-8-11-7-17-19-1-4 2-6m-93 2 3-1q3 3 0 7a97 97 0 0 1-50 38c-24 8-52 4-72-13q-4-4-4-9 2-7 9-7 4 0 8 3 11 9 25 11 17 2 33-3 20-8 37-20z" fill="#000000"/></g><g id="eyebrows-variant13-4e8a6434"><path d="m327 63 2 2-14 14-21 15-27 18q-6 5-13 7l-8 1-11 20h-2q-2-10 1-20 2-10 8-16l10-4 31-21q12-9 26-13zM10 72q15 0 28 2l26 7 15 1 24 2q11 4 23 6l34 11 3-5q3-2 5 1 7 13 11 25 2 8-6 9-7 0-12-6l-11-9-30-9-20-5-15-3-15-4-24-9c-10-4-20-4-29-9q-5-1-7-5" fill="#000000"/></g><g id="nose-variant05-4e8a6434"><path d="m36 23 2 2 7 22 15 23q6 9 5 20-2 10-9 16-11 10-25 16-7 5-18 2l6-4 36-24q4-4 4-9-2-9-8-16-8-13-13-25-4-11-2-23" fill="#000000"/></g><g id="mouth-sad02-4e8a6434"><path d="M199 26q2 4-1 8-9 12-21 21-1 7-4 12-2 13-12 22-5 2-11 2-5-1-7-6-1-7 2-13 11-16 27-26l21-17q3-4 6-3" fill="#000000"/></g><g id="beard-variant02-4e8a6434"><path d="M412 3q4 4 6 10a143 143 0 0 1 6 65l15-3q6 0 7 6 1 3-3 6l-25 26 21 1 33 1q5 1 9 5 3 5 0 10-5 6-12 10l-34 22 23 8q5 1 8 5 5 6 0 11-6 7-14 10-15 10-32 15l-28 6q3 8 9 14l13 12q4 6 0 12-3 4-8 4a300 300 0 0 1-92-3l-22-4q1 8-4 14-5 4-11 3-14-1-29-6l-50-11-14-2c-4 2-4 9-5 12q-1 7-8 9l-13-3q-12-6-23-15l-23-22q-12-14-28-25l-4 5q-3 2-8 0l-8-8-18-32q-7-13-11-27l-4-7-10-1q-6-5-5-11-1-18 5-33-5-3-8-8l-3-7q-1-8 1-14l-3 1q-5-4-5-12Q5 30 14 9l4-6h5l1 8-4 21q4-8 10-15 2-3 6-1l-1 6-6 24q4-7 10-13 3-2 5 1l-2 14 4-6q8-11 18-17l10-2q16 0 31 3 18 5 36 7-5-1-10-6-3-5 3-9 10-2 20 0l34 7q20 5 38 13 23 9 43 21l45-17 25-12q5-2 10 0 2 3 1 8l22-17 18-16c5-5 16-7 22-2" fill="#000000"/><g opacity=".4"><mask id="beardVariant02-a" style="mask-type:alpha"><use transform="translate(117 56)" href="#mouth-sad02-4e8a6434"/></mask><g mask="url(#beardVariant02-a)"><rect x="-302" y="-577" width="981" height="1068" fill="white"/></g></g></g><g id="head-variant02-4e8a6434"><path d="M290 4c57-1 115 19 159 56q39 34 59 81c14 34 20 73 14 109q-1 8-4 12l-2-2 1-33A215 215 0 0 0 345 21 235 235 0 0 0 75 174q-18 57-6 115l17-1q4 0 6 3 1 3-2 4l-11 3q-21 5-37 19a63 63 0 0 0-22 45q-1 18 8 35 12 20 32 31 30 16 63 6h6q3 2 4 6l15 29q10 15 21 27 23 23 51 36 43 21 90 27 6 1 10 4 1 3-2 4l-11 1a231 231 0 0 1-147-62q8 26 8 54 0 17-7 33-6 15-18 27a196 196 0 0 1-61 43l3-3 17-14q19-17 35-38a93 93 0 0 0 16-65l-3-39-2-10q-7-8-12-17-9-15-14-31-11 3-22 3c-28 1-56-12-74-34a81 81 0 0 1-18-51q0-18 8-34 14-25 39-36-11-47-2-93 12-61 51-108C149 38 219 6 290 4" fill="black"/><path d="M345 21a214 214 0 0 1 172 206l-1 33v15q-3 2-3 5-3 27 1 55 7 43 2 88-4 43-30 79-26 31-63 43-21 7-44 12l-33 9q3 2 7 2l36-2q-7 11-10 26-1 15 10 26 10 10 24 14 8 3 17 3 11 13 14 30 3 18-8 34-15 20-37 30-27 13-58 18a352 352 0 0 1-191-24c-18-9-38-23-48-41q-7-11-7-25 28-14 48-37 12-12 18-27 7-16 7-33 0-28-8-54l19 16a235 235 0 0 0 128 46l11-1q2-1 2-4-4-3-10-4-47-6-90-27-28-13-51-36-11-12-21-27l-15-29q-1-4-4-6h-6a82 82 0 0 1-95-37q-8-17-8-35 2-28 22-45 16-14 37-19l11-3q3-1 2-4-2-3-6-3l-17 1q-12-58 6-115 21-59 69-101a236 236 0 0 1 201-52" fill="#ffffff"/><path d="m516 275 3 3 1 13 3 45q5 30 5 60 0 23-5 47-10 43-40 76-15 15-33 25-26 16-55 21c-1 8-5 16-4 25q0 8 5 14 13 13 28 20l18 9-12 2q-9 0-17-3-14-4-24-14-11-11-10-26 3-15 10-26-18 3-36 2-4 0-7-2l33-9q23-4 44-12 38-13 63-43 26-36 30-79 5-45-2-88-4-27-1-55 0-3 3-5M66 334q8 0 15 7 3 5 1 10l-11 22q-1 5 3 9l23 10-1 2H85q-9-1-17-6-9-6-7-17l11-23c-6-4-13-2-19-8q5-6 13-6" fill="black"/><use transform="translate(159 232)" href="#eyes-variant19-4e8a6434"/><use transform="translate(164 126)" href="#eyebrows-variant13-4e8a6434"/><use transform="translate(359 274)" href="#nose-variant05-4e8a6434"/><use transform="translate(223 402)" href="#mouth-sad02-4e8a6434"/><use transform="translate(106 346)" href="#beard-variant02-4e8a6434"/></g><g id="hair-variant28-4e8a6434"><path d="M440 156q47 10 85 37 11 9 19 19 3 3 3 8-3 3-7 1l-17-14q-30-23-65-34c11 6 24 14 29 27q2 4-1 6l-11-4a280 280 0 0 0-76-18l23 10 4 5h-18q-30-3-61 2-21 3-43 12l-6 4q-10 5-19 12-10 9-15 20-8 13-6 28l4 22-1 3q-23 23-35 53-6 15-6 33-1 15 1 30l8 32 7 22 2 8-5 6-16 18q-2 3-6 5-4 1-8-2l-9-14a266 266 0 0 1-31-93q-4-20-3-39-1-25 5-49 11-47 43-83 21-23 47-40a253 253 0 0 1 185-33" fill="#000000"/><use transform="translate(131 168)" href="#head-variant02-4e8a6434"/><path d="M397 151q55 1 103 27 21 11 38 27l9 11q1 4-2 5-6 0-12-4-21-12-44-19c1 4 4 7 1 12l-26-8-45-9 7 6-31-1q-46-2-89 14l-5 3-12 7-15 12q-13 14-16 31 0 14 2 26l2 10-6 6a142 142 0 0 0-32 55q-6 21-4 42c0 17 6 34 10 50l8 26-1 1-11-4q-15-7-29-17-10-6-12-18l4 2c-23-33-33-76-27-116q8-53 42-93 32-39 79-61 55-24 114-23" fill="#000000"/></g><clipPath id="clip-4e8a6434"><rect width="980" height="980" rx="0" ry="0"/></clipPath></defs><g clip-path="url(#clip-4e8a6434)"><use transform="translate(76 3)" href="#hair-variant28-4e8a6434"/></g></svg>