<svg xmlns="http://www.w3.org/2000/svg" viewBox="0 0 980 980" fill="none" shape-rendering="auto" aria-hidden="true"><metadata xmlns:rdf="http://www.w3.org/1999/02/22-rdf-syntax-ns#" xmlns:xsi="http://www.w3.org/2001/XMLSchema-instance" xmlns:dc="http://purl.org/dc/elements/1.1/" xmlns:dcterms="http://purl.org/dc/terms/"><rdf:RDF><rdf:Description><dc:title>Lorelei</dc:title><dc:creator>Lisa Wischofsky</dc:creator><dc:source xsi:type="dcterms:URI">https://www.figma.com/community/file/1198749693280469639</dc:source><dcterms:license xsi:type="dcterms:URI">https://creativecommons.org/publicdomain/zero/1.0/</dcterms:license><dc:rights>Remix of “Lorelei” (https://www.figma.com/community/file/1198749693280469639) by “Lisa Wischofsky”, licensed under “CC0 1.0” (https://creativecommons.org/publicdomain/zero/1.0/)</dc:rights></rdf:Description></rdf:RDF></metadata><defs><g id="eyes-variant20-4f8a65c7"><path d="M135 28q11 6 18 13 10 9 14 23 1 4-2 5l-5-7c3 9-3 20-11 24q-10 5-19 3-14-2-23-13-6-10-5-21 3-12 12-19-18-2-34 4l-21 9q-8 5-13 13-5 5-9 4-10-2-8-11 3-6 8-11 18-16 40-22 30-7 58 6m191-7q11 2 17 9 4 11-6 14 3 13-3 24c-7 8-23 11-31 3q-8-10-8-22l5-11q-17 6-27 20l-10 15q-1 2-4 1v-5q5-12 13-21 11-14 26-23 13-7 28-4" fill="#000000"/></g><g id="eyebrows-variant03-4f8a65c7"><path d="M119 47q15-1 29 3t23 18q5 12-6 20-11 4-23 2-31-6-61-14l-20-4-10-3q-2 0-3-4 2-5 9-7l20-7 18-3zm176 5q12 2 23 7l8 5q4 3 1 7-4 4-9 5-26 8-52 12l-9 1-8-4q-4-4-4-10 0-12 8-20 8-4 16-4 14-2 26 1" fill="#000000"/></g><g id="nose-variant04-4f8a65c7"><path d="M39 67a37 37 0 0 1 19 29q-1 15-13 22-9 5-18 7-4 2-8 0-2-3 1-6l21-12q5-3 5-9c0-10-5-17-7-26z" fill="#000000"/></g><g id="mouth-happy03-4f8a65c7"><path d="m217 17-7 8-17 17q-14 14-32 21-28 8-57 0-17-4-31-13l-6-5q0-4 4-3 9 1 17 5 16-4 33-5 20-3 39 0 3 1 4-1l20-8 13-3z" fill="#000000"/></g><g id="head-variant01-4f8a65c7"><path d="M331 12q63 11 114 48 42 32 65 81 20 43 18 90 0 23-7 44l-2 1 1-21q2-45-13-87-17-46-51-79c-41-40-98-63-155-64a243 243 0 0 0-196 95 207 207 0 0 0-41 139l3 24c8 0 19 1 25 8l-4 2q-8 2-16 1-19 2-33 14a64 64 0 0 0-18 39c-4 32 13 65 40 83q25 17 55 8 6-3 14-2 3 2 5 7 8 19 21 37a251 251 0 0 0 68 63q14 11 29 17 28 12 57 20l32 8 13 3-4 1q-37 2-72-10-18-4-34-12a306 306 0 0 1-85-63l3 28q2 26-6 52-6 19-20 33-14 16-33 27-15 10-32 18-7 4-16 4l9-8 30-21 23-16q11-10 18-23 10-15 13-33 3-22 3-43v-28c-10-13-23-29-27-45-17 8-38 6-55-1q-27-11-43-34-18-24-22-55-2-32 16-56 14-17 35-21-6-22-6-44 0-38 13-74 22-58 70-99a249 249 0 0 1 198-56" fill="black"/><path d="M456 89q35 34 51 79 15 42 13 87l-1 21-5 15q-2 6-2 13l2 56-1 62-3 48q-3 24-15 44-15 29-43 45-20 11-41 16l-39 10-16 3q0 3 2 3 13 6 27 4-6 11-2 21 6 11 17 15 17 7 36 8 12 10 16 25 3 12-2 23-8 15-24 23-20 11-42 18-60 14-121 12-52-1-101-13-25-6-48-17-18-8-32-23-8-9-10-22 17-8 32-18 19-11 33-27 14-14 20-33 8-26 6-52l-3-28q12 13 23 22 28 24 62 41 16 8 34 12 35 12 72 10l4-1-13-3-32-8q-29-8-57-20-15-6-29-17-18-11-34-26a251 251 0 0 1-55-74q-2-5-5-7-8-1-14 2-30 9-55-8a88 88 0 0 1-40-83q3-23 18-39 14-12 33-14 8 1 16-1l4-2c-6-7-17-8-25-8l-3-24 2-46q8-52 39-93 35-47 87-72 52-24 109-23c57 1 114 24 155 64" fill="#ffffff"/><path d="M514 291q4 1 4 6 4 16 5 34l1 21q3 33 2 65 0 32-5 65-6 27-22 50-22 33-58 49-24 9-48 13v15l5 6q17 8 36 10 18 4 36 12-5 3-11 4-12 1-23-2-19-1-36-8-12-4-17-15-3-10 2-21-14 2-27-4-2 0-2-3l16-3 39-10q21-5 41-16 28-16 43-45 12-20 15-44l3-48 1-62-2-56q0-7 2-13M56 318q13-1 23 6 8 7 12 16 1 4-3 7l-12 9c-7 6-7 19 0 24q10 8 21 11 4 1 6 4l-5 3q-16 0-28-9-7-5-10-13-3-13 5-24 7-8 17-12-4-9-13-13l-23-5z" fill="black"/><use transform="translate(159 232)" href="#eyes-variant20-4f8a65c7"/><use transform="translate(164 126)" href="#eyebrows-variant03-4f8a65c7"/><use transform="translate(359 274)" href="#nose-variant04-4f8a65c7"/><use transform="translate(223 402)" href="#mouth-happy03-4f8a65c7"/></g><g id="hair-variant14-4f8a65c7"><path d="M306 63q28-10 55-6 33 3 59 22 18 14 26 35 2-16-2-30-4-12-12-19 2-3 6-1 18 10 24 30 5 14 1 29-5 18-21 30a391 391 0 0 1 212 79l24 26q16 20 20 45 4 29-3 56-4 10-10 19l-3-1q9 33 13 67l6 77q-1 34-11 66-6 19-16 36l-6 3-1-6-5-32q-7 15-18 26-8 9-17 15l-13 8q-23 15-50 22-29 8-61 12-68 10-137 3l-17-2q-28-3-55-15l-10-4q-10 7-16 19-5 11-6 24 0 13 5 26 2 3 0 5-8-5-14-13-8-14-8-29 4-24 22-42l-11-7-1 15-2 5-14-14q-28-28-44-64l-8-14a296 296 0 0 1-11-298q-12-19-11-39a115 115 0 0 1 62-107q10-5 22-7l4-1 7-10q17-27 46-39m365 250-2 25q0 4 2 7l11 32q2-6 0-13-2-25-10-48zM355 72q-34-4-64 15l17-5q16-2 33-2 29 3 54 13 22 8 36 25-5-14-17-24-26-19-59-22" fill="#000000"/><use transform="translate(131 168)" href="#head-variant01-4f8a65c7"/><path d="M426 153q53 1 104 16 33 10 65 25 35 17 64 43 22 20 34 47 5 12 6 26 2 20-2 38-2 18-13 30l-1-5q-1-31-12-60c0 19-3 40-16 55q-4 5-12 7-6 3-13 2-11-1-21-7-5-1-7-5l-9-40q-2-9-6-17l-7 28q-6 16-16 30l-8 6-2-13-4-17q-9-33-26-61 1 14-1 29-1 23-9 45-3 11-11 17-13 6-27 5c-13 0-28 3-40-1q-9-2-11-12l-15-30-10-20q-4 31-2 64l-1 5q-3 2-6 0-13-7-22-19-15-17-26-36l3 17q3 18 11 35l3 8-5-2q-11-9-17-19-12-20-13-41-6 29-8 59l-1 10q-2 4-7 5l-33 5h-11a670 670 0 0 0 14 152l14 61q1 3-1 7-23-15-37-38l1 35q1 14-1 28l-2 6-22-22a245 245 0 0 1-42-72l-7-16a397 397 0 0 1-27-151q1-61 26-117a217 217 0 0 1 77-90l31-17q16-8 33-10 15-3 32-1 6 2 11-1 30-7 61-6" fill="#000000"/></g><clipPath id="clip-4f8a65c7"><rect width="980" height="980" rx="0" ry="0"/></clipPath></defs><g clip-path="url(#clip-4f8a65c7)"><use transform="translate(76 3)" href="#hair-variant14-4f8a65c7"/></g></svg>