<svg xmlns="http://www.w3.org/2000/svg" viewBox="0 0 1744 1744" fill="none" shape-rendering="auto" aria-hidden="true"><metadata xmlns:rdf="http://www.w3.org/1999/02/22-rdf-syntax-ns#" xmlns:xsi="http://www.w3.org/2001/XMLSchema-instance" xmlns:dc="http://purl.org/dc/elements/1.1/" xmlns:dcterms="http://purl.org/dc/terms/"><rdf:RDF><rdf:Description><dc:title>Notionists</dc:title><dc:creator>Zoish</dc:creator><dc:source xsi:type="dcterms:URI">https://heyzoish.gumroad.com/l/notionists</dc:source><dcterms:license xsi:type="dcterms:URI">https://creativecommons.org/publicdomain/zero/1.0/</dcterms:license><dc:rights>Remix of “Notionists” (https://heyzoish.gumroad.com/l/notionists) by “Zoish”, licensed under “CC0 1.0” (https://creativecommons.org/publicdomain/zero/1.0/)</dc:rights></rdf:Description></rdf:RDF></metadata><defs><g id="head-variant01-efea9df8"><path d="M553 723.7c-99 297-363.7 388.6-503.6 19.8-19.3-50.7 31-69.5 66.2-91.9 24.1-15.3 36.8-28.5 35.3-42.2C144 545 114 365.6 114 365.6l-3-5.8s.7-1.6-2.2 1.2c-3 3-9.9 34.2-37 34.2-24.5 0-49.2-10.9-61-86.3C6.3 281.6 8.7 210 39 197c12.5-5.3 24-7.2 35.2-.8s-13-22 112-126C267.5 2.4 395.8-7.5 447.6 4S551 40.8 574 94.5c27.8 65-25.9 114.3-14 262.5-2.2 53.6.8 171.2-146.6 210.6-28 7.5-19.3 48.4 22.7 58.4 67 21 117 72.3 117 97.9" fill="white"/><path d="M7.6 228.9c5.2-16.1 23.7-44.7 42.2-42C71.7 185 83.8 198 94 213a140 140 0 0 1 22.4 61.5c.5 3.7 1 7.6-1.2 11.3-4.5.6-4.9-3-5-5.6-.5-20.7-9.7-38.7-18.9-56.1-6.6-12.5-16.2-24.6-31.4-27.6-17.2-3.5-33 12-40.8 32.2-14.5 37.6-12 74.6 1.4 111 5.8 15.9 13.1 32.1 27.8 43.2 14.8 11.3 32.7 9.3 43.6-5.7 2.5-3.4 5.6-6.7 7-10.6 2.1-5.7 5.4-11 11.3-10.3 6.8 1 8 8.3 8.7 14C126.2 436 137 501 147 566c2.6 17.1 5.6 41.7 3.6 52.1-.7 3.7 0 7-4.5 7.8-4.9.7-7-2.1-7.7-6.5-2.3-17-3-23.6-4-49.6-1.2-34.3-9.6-68-15.3-102a604 604 0 0 1-10.9-97c-8.5 12.7-14.8 23.3-26.5 27.2a40.5 40.5 0 0 1-46.1-12.6 128 128 0 0 1-28.8-55.8c-8.4-34-9.9-67.1.9-100.6m572.7-71.5c6.5 4.4 5.7 10 3.7 15.2-21.6 55.7-17.6 113.8-15.8 171.6 2.1 66.4-14.5 126.8-58.7 177.5-15.4 17.6-35.8 29.8-56.5 40.3-21.4 11-25.9 20.1-19.2 43.6 1.3 4.7 4.4 9.6-.2 14.4s-9.8 3.1-15.4 1.7a406 406 0 0 1-137-68.3c-6-4.5-11-10.6-15.8-16.5-2.5-3-3-7.8.5-10.4 3.7-2.9 6.4.1 9.8 2.7A146 146 0 0 0 352 561c21 2.1 41.5-.2 62.3-.1 11.5 0 20.6-5.9 29.5-10.8 27.8-15.5 54.3-32.8 72.2-60.7a230 230 0 0 0 31.6-80.9c9.6-48 5.3-96.6 5.5-146.2 4.2-36.9 8.1-72.7 27.3-104.8M60.6 238.6c21 1 34.7 28 35.8 70.3-6 18.8-12.8-1-21 2.7-4 14.5 15.1 20 16.3 34-14-.6-21.1-9.3-25.9-19.8-5.5-12.2-1-22.2 9.7-29.9-6.7-13.4-21.7-18-30-30.5 10-3.5 15.1 2.9 21 6.8 5.9 4 9 11.3 17 15-.8-19.8-11.7-34-23-48.6" fill="black"/></g><g id="clothes-variant11-efea9df8"><path d="M1319.6 720.7H110.3l8.6-63.3S41.2 631 33.5 615.7s84.2-214.2 96.8-245.7S227.1 215.8 266 196a3408 3408 0 0 1 147-69.7c4.8-2.1 7.2-3 14.8-16.1 7.7-13 33.6-18.8 43-26.5 4.3-3.5 14.6-31.5 35.3-28a32 32 0 0 1 26.2 19.6s11.8 99.2 188.1 84.8c52.6-4.3 156-39 160.7-77.5 2.2-18.4-11.5-32-11.5-32s53-8.9 77.1 5 14.8 52 14.8 52 83.3 47 110.1 72.8C1117 224 1211 331.6 1252 432.2c23.1 57 77.8 160.3 85.9 173.4s-27 36-27 36z" fill="white"/><path fill-rule="evenodd" clip-rule="evenodd" d="M979.9 126.4a689 689 0 0 1 108.5 79.4c1.2 1 58 53.1 111.2 143.2 53.5 90.7 103.4 219.4 103.4 219.4 10.1 26.7-34.4 57-63 73.5-50.6 29.1-78.5 51.8-75.3 51.1 30-5.9 75.6-29.2 102.5-45a98 98 0 0 1 18.8-7.7q4.8-1.5 9.7-3.4l2.5 9.4c4 14 7.6 27.5 7.8 42v3.7c0 9 0 18 3.7 27.7 5.2 1 9 1 13.1 0l-.2-2c-2-20.2-4-39.4-6.8-58.5-.9-6.2 0-10.3 5.2-12 5.7-2 10.1-6 14.5-10q3.3-3.4 7-6c9.8-7.2 10.9-16.9 4.5-26.1-8-11.8-13.7-24.9-19.5-38q-3.1-7.5-6.7-15l-8.8-18.9c-23.3-50-50-107-69.5-140.9-28.7-49.7-87.5-149.1-151.5-203.5l-1.8-1.5c-29.2-24.9-76.7-65.3-121.5-85.2l-.2-8.4c-.1-6.1-.3-12 .3-17.7a26 26 0 0 0-10.4-24 54 54 0 0 0-31.2-13.2c-14.7-.6-33.4.5-52.4 1.5-24 1.4-48.5 2.8-67 1-11.3-1.1-12.8 2.2-9.6 15.1-10.5 8.4-10.3 12.6 1 18.9q4.6 2.4 9.6 3.2c10 1.5 35.5.7 49 .3l4.8-.2h1.7c3.8-.3 7.9-.6 10.4 4.8a94 94 0 0 1-17.7 21.1c-36.1 29.9-77.7 41.6-121.2 47.2-31.6 4-63 3.8-94.6-2-32.7-6-62.2-18.1-87.7-42.4-1.3-1.2-4.2-3.3-7.6-5.8-9.1-6.6-22.5-16.3-24-22.9 26.7-24.2-23.2-43.7-42.2-16.8-7.6 10.8-16.3 21.4-30 25.5-10.8 3.2-22 8.7-27.3 22.3-.8 2-3.4 3.3-5.4 4.2l-19.4 9.3c-17.3 8.3-34.6 16.6-52.2 24a752 752 0 0 0-67.8 33.7 257 257 0 0 0-85.2 75.6C157 303 130.4 354.7 107 409q-19.6 45-40 89.8l-2 4.2q-3.5 8-7.2 15.6c-11.7 25.3-23.5 50.6-28.7 78.8-3.8 20.3-4.5 34.6 16.3 48.9 16.6 11.3 32.8 22.5 52 26.8 8.8 2 10.9 7.8 9.5 16.5l-1.6 9.2a275 275 0 0 0-3.3 22h15a243 243 0 0 1 8-47.1l3.6-15.7c19 9.4 38.5 17.3 57.9 25 27 11 54.2 22 80.5 37.2q14.5 1 29-.4l-.4-.7q-1-2.4-2-3c-13.6-6.1-26.6-13.6-39.6-21a460 460 0 0 0-39-20.7q-14.7-6.7-29-13.8a555 555 0 0 0-50-22.6 240 240 0 0 0-27.5-8 350 350 0 0 1-57-18.7c-8-3.3-11.1-8.7-7.4-19.6a764 764 0 0 1 20.3-52.4q13.2-30.4 27-60.5l23.5-51.6 24.3-53.7a670 670 0 0 1 47-83.8c26.6-43 60.7-75.8 104.2-95.7q19.9-9.2 39.6-19 13.8-6.9 27.7-13.5l10-5c13.2-6.6 26.4-13.3 40.8-14.9 22.7-2.4 47.6.5 57 32.2a19 19 0 0 0 2.9 5l1.5 2.4c12.6 21.4 31.1 33.6 51 44.6 34.8 19 70.6 28.1 109 20 10.5-2.3 14 .8 14.3 12.7l-.1 6.3c-.2 5.1-.5 10.2 1.4 15.1 8.8 23.2 10.8 45.9-2.7 68q-1.4 2.3-2.2 5.2l-1 2.9-.4 1c-1.3 3.2-2.7 6.7.4 9.4 3.7 3.3 7 1 10-2.1 13.8-14 21.4-52.7 13.8-71.9a63 63 0 0 1-4.3-21c-.3-7.7.6-12.2 9-13.8a26.5 26.5 0 0 0 22.2-24c1.2-15.9 8-15.5 18.2-13 2.3 14.7 5.4 30.8 20.2 33.3 11.5 2 18.1 9.3 25.3 17l1.5 1.8q3.2 3.5 7.4 5.4c12.7 5 19.3 14 17.4 29.9q-.4 3.4-.1 7 .2 3.5-.1 7c-2.9 22.5 8.8 34.6 21 47.1q4.7 4.9 9.3 10.2c5.7-10.4.9-16.7-4-21.4-12.3-12-16-26.1-13.7-44.3 2.3-18-.8-35-17-44.8q-3-1.8-5.7-3.7-4-2.7-8-5l-1.2-.5c-3.6-2-7.5-4-6.2-9 1.4-5.8 5.7-7 11.7-6.3a130 130 0 0 0 57-5 257 257 0 0 0 52.2-23.2c23.3-14.6 44.6-30.3 61-54.5l5.5-8.8c5.5-8.8 11-17.8 19.2-23.9 6-4.4 11.3-6.9 18.7-2.6m-527-20.6 2-.5c11-1.6 15-7.8 19.4-15.1q2.5-4.3 6-8.7 2.2-3 4.5-7c3.8-6.5 8.2-13.8 15-16 13-4.5 19.2 9.1 14 12.6-14 9.3 25.4 55.2 54.3 69.7 59.4 30 111.8 32 169.7 26.8a228 228 0 0 0 122-46.8c15-11.7 30.4-25.8 26.7-51.5-1.1-8 4.6-10 9.7-6.7 11.3 7.4 21.2 7.5 32.4-1.2 7-5.4 11.8-.4 16.6 4.5q2.8 3.2 5.7 5.2c6 3.8 4.6 11 3.3 17.4l-.3 1.2c-11.9 59.2-48.6 94.9-94 119.9-23 12.7-49 18-74.9 21.6-11.5 1.6-17.4-2.7-15.2-17.4 7-5.3 15.2-7.4 23.5-9.6 5.5-1.4 11-2.9 16.3-5.3 13.8-6.2 26-15.2 38.3-24.1q6.5-4.8 13.2-9.4 4.7-3.4 9.7-6.3c7.2-4.4 14.5-8.9 20.6-15.2l3-3q2.5-2.1 4.6-4.6c2.9-3.5 5.8-7.9 2.4-12.4-3.2-4.3-5.7-2-8.1.4l-2.2 2q-8.5 6-17 12.3a544 544 0 0 1-66 43.6 201 201 0 0 1-82.2 20.3c-27 1.6-53.9.3-81-6q-27.3-6.6-55.1-12.4c-14.9-3-27-13.7-38.8-24l-5.7-5q-1.4-1.1-2.6-2.5c-4-3.8-8.2-8-12.4-2.2-4.5 6-.2 10.3 4 14.3l2.8 3c23.6 27.3 54.5 33.5 85.3 39.8l14.7 3.2C632.5 230 631.9 230 616 231h-.7a147 147 0 0 1-86.4-18.5c-21.2-12.2-41.5-26.2-48.7-54.7-5.2-20.7-19.3-30-35.8-36.7l-1.4-.4c-1.7-.5-3.4-1-4.6-3.8 2.1-8 8.3-9.6 14.5-11.2" fill="black"/></g><g id="hair-variant04-efea9df8"><path d="M312.3 262.6a421 421 0 0 1 63.7-72.3 299 299 0 0 1 129-69c32.9-7.8 67-9.5 101.3-3.3 47 8.5 89.1 26 125.2 57.6 6.7 5.8 14.1 8 23.2 8.5 22.8 1.4 43.7 10.6 64.1 19.7a302 302 0 0 1 72.6 43.8c14.6 12.3 28 25.2 34 44.5 7.6 24-1 38.8-26.3 42.2-3.4.4-6.8.4-9.9 4.2 6.5 18.6 17.3 36.2 19.8 56.7 6.8 56.1-9 100.5-63.8 124-5.5 2.4-11 5.5-16.7.6s-1-9 .6-13.7c.7-2.2 1-5.4 0-7.3-6.5-12.2-6.6-25.4-7.3-38.6-.4-9.2-4-14.8-13-20.7-44.8-29.1-81.6-66.3-103.6-116-2.2-5-3.2-10.3-5.2-16.7-10.3 11-14.5 24.2-22.1 35.2-17.5 25.4-36.7 49-64 64.8-18.3 10.6-35.4 11.3-50.8-6.6-10.2 10-19.6 19.6-29.4 28.8a123 123 0 0 1-44 27.4c-8.1 2.9-16.7 5.3-24.7.6-6.5-4-10.5-.6-14.5 3-20.2 18.4-43 28.6-71.8 23.4-8.3 23 5 45.7 2.1 67.8-6.7 1.4-7.8-1.9-8.5-5.4q-4.2-20-8-40a73 73 0 0 0-30.7-45c-16.1-11.9-39-1-48.8 19.9-15.7 33.7-14.2 68.5-5.7 103.5 4.5 18.6 12 36 21.2 52.9 5.6 10.2 15 15 23.4 21 6.2 4.5 22.6-3.6 30.5-13.8 2-2.7 3.5-6 6-8.3 9.4-9.5 16.3-7.9 19.4 5.2 5.9 25.2 9 51 11.9 76.7 2.7 24 2.9 48.3 11.4 71.5s.7 41.2-22 50.5c-18.5 7.5-60.3 7.3-75-13.2-8.3-11.5-19-14-30.8-17a70 70 0 0 1-52.2-47.4c-2.4-6.8-3.7-13.6.7-19.6 31.9-43.4 22.3-87.5 1.6-131.2-7-14.6-11-30.4-11.7-46.5A365 365 0 0 1 234 427.3c17.7-51.7 42.2-99.9 67.4-148 3-5.5 6.8-10.6 10.9-16.7" fill="black"/></g><g id="mouth-variant16-efea9df8"><path fill-rule="evenodd" clip-rule="evenodd" d="m124.6 95.7 2.8 10.8c3.4 2.5 5 5.2 1.8 5.3-8 .4-28.1-18-31-26.6-2.3-6.6-2-12.3 5.6-13.1 2.5-.3 4-1.9 5.3-3.5 1.6-1.7 3-3.4 5.9-3-10.2 20.5-9.4 23 9.6 30m54.9-5.4c-4.2 20.3-13.8 27.6-35.3 27h-3c-2.8 0-4.7.2-6-2l.8-2c14.3 3.1 19.4-6.3 24.4-15.6l2.5-4.4 2-3.9q1-2.6 2.6-5c2-2.8 4.7-5.2 8.5-3.8 4.6 1.8 4.3 6 3.5 9.7M135 94c1.3 8.7 6.2 6.1 10.2 2.7 2.6-2.3 4.5-5.4 6.4-8.4l1-1.6c1.7-2.8 3.7-6.6 0-8.9-3.5-2.3-6.8-1-9 3.4q-2.2 4.4-6.2 9.4zm-4.7-23.1 3-2.8c3.5 5.4.9 9.5-2.2 14.3q-1.5 2-2.6 4.3c-6.8-8-2.4-12 1.8-15.8" fill="white"/><path fill-rule="evenodd" clip-rule="evenodd" d="M177.3 66.5c15.6 10.2 18 24 6.8 37.8a45 45 0 0 0-4 6q-2 4-5.2 7.5a43.4 43.4 0 0 1-52 5.6l-4.7-3A84 84 0 0 1 93.1 99C81 82 82 77.4 96.7 62c4-4 8.5-6.9 13-9.8q4.3-2.5 8.2-5.5c10.4-8 25 2.1 27.9 18.1 10.2.5 20.4 1 31.5 1.7m-33.1 50.7c21.5.7 31-6.6 35.3-27 .8-3.7 1.2-7.8-3.5-9.6-3.8-1.4-6.6 1-8.5 3.8q-1.5 2.4-2.7 5-.8 2-2 4l-2.4 4.3c-5 9.3-10 18.7-24.4 15.5l-.7 2.1c1.2 2.2 3 2 5.8 2zm-19.6-21.5 2.8 10.8c3.4 2.5 5 5.2 1.8 5.3-8 .4-28.1-18-31-26.6-2.3-6.6-2-12.3 5.6-13.1 2.5-.3 4-1.9 5.3-3.5 1.6-1.7 3-3.4 5.9-3-10.2 20.5-9.4 23 9.6 30m10.5-1.7c1.3 8.7 6.2 6.1 10.2 2.7 2.6-2.3 4.5-5.4 6.4-8.4l1-1.6c1.7-2.8 3.7-6.6 0-8.9-3.5-2.3-6.8-1-9 3.4q-2.2 4.4-6.2 9.4zm-4.7-23.1 3-2.8c3.5 5.4.9 9.5-2.2 14.3l-2.6 4.3c-6.8-8-2.4-12 1.8-15.8" fill="black"/></g><g id="beard-variant07-efea9df8"><path d="M232.7 76.6c13.8-9.2 26.5-6 38.8 1.8 5.1 3.2 10.2 8 9.4 15.5-.7 6.6-6.6 7.5-11.3 10-17.6 8.9-37 10-54.9 17.4a141 141 0 0 0-24.9 14.7c-4.1 2.9-8.1 4-12.3 2-4.7-2-3.6-7.5-3.8-12-.1-3.8.2-7.7-.1-11.5-1.6-20.6-1-21.6 17-23.6 2.2-.2 4.4-.5 5.5-3 8.8-17.8 22-16.2 36.6-11.3m177.6 33.9c2.5 10.3-2 14-8.8 13.4-24.5-2.4-49.3-3.5-72.8-13.8-6-2.7-14.3-4.7-13.7-13.4.8-10 8.1-16.3 16-20.2 4.3-2.2 8.8-3.7 13-6.1 11.9-7 19.3-6 28.8 5.7 2 2.6 3.4 4.7 7 4.2 12.3-1.8 20.4 4.8 24.7 18.5 1.2 4 3.6 7.3 5.8 11.7" fill="black"/></g><g id="nose-variant01-efea9df8"><path d="M53.4 95.7c.2-5.7.5-10.4.3-15-.2-7.3 3-10.2 10.5-8.5 2.8 10.7 2 22 1.1 32.7-1.8 19.6 7.7 32 23 41.6 19.6 12.3 25.6 32.7 13.4 48.6-19.8 25.4-56.3 21.8-75-4.1-2.2-3.2-1.4-7.5 0-11.2.9-2.3 1.9-5 5-5 3.8-.2 5.2 2.2 5.6 5.5 1.8 12.3 10.8 16.9 21.2 18.8 13 2.4 24.5-.5 32.3-12.4 7-10.7 5-20.9-6-26.9-25.4-13.7-35.9-34.6-31.4-64" fill="black"/></g><g id="eyes-variant02-efea9df8"><path d="M212.2 70q19.4.3 37.6 2.4c3 .4 5 3.3 5 6.7q-.1 5-4.7 7c-11.2 4.8-22 8.2-33.7.2-6.5-4.5-9-8.7-4.2-16.4M56 71.4c6.4 2.8 5.6 6.6 3 10.6-5.9 8.6-27.3 12.5-36 6.6-5-3.4-8-8-5.6-14C19.9 68.4 25 69 30.2 71c8.3 3.3 16.5 1.7 25.8.4m168.4-13c-4.2-9.5-9.9-15.2-19.8-15.7-6-.3-7-5.1-8.9-9.8 2-1.5 3.5-3.7 5.3-3.8q31.8-2.6 63.5-.1c6 .4 9.3 8 3.2 10.4-10 4-12.5 13.2-18.5 19.8-8.2 9-15.2 9.1-24.8-.8m-190-29.9c12.2.7 23.1 1 34 2 3.6.3 8 1.8 8 6.7 0 5.6-4.6 5.2-8.3 5.1-6.3 0-9.7 2.7-12.5 8.6-3.4 7.4-6.9 15.3-18 14.8C27 65 22.5 58.5 19.5 50.5c-2.2-5.7-5-8.4-11-8.2-3.4.1-7.1-.2-7.5-4.9-.4-5 3-6 7-7.2a68 68 0 0 1 26.4-1.7" fill="black"/></g><g id="eyebrows-variant11-efea9df8"><path d="M101.1 42.8c-8.7-12.1-25.2-16-38.8-12.5-12 3.2-21.7 11-33.6 14.4-4 1.1-7.5 2.7-9.7-2.1-1.9-3.9-1.5-7.4 2.2-10.3C40 18 74.8 5.4 99.9 19.4a46 46 0 0 1 15 15c3.3 4.7 4.5 11.6 0 15.1-5.9 4.6-10-1.2-13.8-6.7m185.9 6c-9.7-6.5-18.9-7.3-28-.8-3.2 2.3-6.7 4.8-10 .8s-2.4-8.6 1.3-12.6c5.6-6.1 13.2-7.1 20.8-8a33.7 33.7 0 0 1 36.7 30c.2 4.3 0 9.1-5.2 10.3-4.7 1-8.3-1.7-10.2-5.9s-3.2-8.7-5.4-13.8M190.6 30c5.2-6.6 8-15 14.5-20.6 2.5-2.1 4.4-5.5 8.5-3.2 3.7 2.1 4 5.9 3 9q-4.7 13-10.7 25.4c-2 4-7 5.5-11 4.2-6.6-2-5-7.9-4.4-13.9z" fill="black"/><path d="M190.7 29.8c-2 4.2-3.6 8.5-5.7 12.6-1.6 3.1-4.2 5.8-8 4.6-4.6-1.4-5-5.3-4-9.3q1.8-6 4-12c2-4.7 1.5-12.4 9.3-11.3 8.4 1.3 4.4 8.4 4.4 14.4z" fill="black"/></g><clipPath id="clip-efea9df8"><rect width="1744" height="1744" rx="0" ry="0"/></clipPath></defs><g clip-path="url(#clip-efea9df8)"><use transform="translate(532 491)" href="#head-variant01-efea9df8"/><use transform="translate(151 1029.3)" href="#clothes-variant11-efea9df8"/><use transform="translate(266 221.9)" href="#hair-variant04-efea9df8"/><use transform="translate(791 872)" href="#mouth-variant16-efea9df8"/><use transform="translate(653 805)" href="#beard-variant07-efea9df8"/><use transform="translate(901 669)" href="#nose-variant01-efea9df8"/><use transform="translate(805.2 732.6)" href="#eyes-variant02-efea9df8"/><use transform="translate(775 657)" href="#eyebrows-variant11-efea9df8"/></g></svg>