<svg xmlns="http://www.w3.org/2000/svg" viewBox="0 0 560 560" fill="none" shape-rendering="auto" aria-hidden="true"><metadata xmlns:rdf="http://www.w3.org/1999/02/22-rdf-syntax-ns#" xmlns:xsi="http://www.w3.org/2001/XMLSchema-instance" xmlns:dc="http://purl.org/dc/elements/1.1/" xmlns:dcterms="http://purl.org/dc/terms/"><rdf:RDF><rdf:Description><dc:title>Notionists</dc:title><dc:creator>Zoish</dc:creator><dc:source xsi:type="dcterms:URI">https://heyzoish.gumroad.com/l/notionists</dc:source><dcterms:license xsi:type="dcterms:URI">https://creativecommons.org/publicdomain/zero/1.0/</dcterms:license><dc:rights>Remix of “Notionists” (https://heyzoish.gumroad.com/l/notionists) by “Zoish”, licensed under “CC0 1.0” (https://creativecommons.org/publicdomain/zero/1.0/)</dc:rights></rdf:Description></rdf:RDF></metadata><defs><g id="mouth-variant26-9a1737ed"><path fill-rule="evenodd" clip-rule="evenodd" d="M104.5 68.3c5.8 1.4 12 3 10 11.7-4 1.5-6.9-.3-9.8-2.1-3.5-2.1-7-4.2-12.2-1.2 1.5-8.5 5.9-10 11.2-8.6zm93.3 5.8c3.4 3.2 1.2 7-1.4 10q-2 .8-3.6 1.7c-3.5 1.9-6.4 3.4-10 1.6-3-5.4-2.7-10.4 3-13.7 3.8-2 8.6-2.6 12 .4m-24.2 13.2c1.2-7.3-1.2-11.4-9.3-10.4-4.9.7-9.6 1.9-8.8 8.2.7 6.6 5 6.2 9.1 5.8l3.6-.2c1.5.1 3-1.1 5.4-3.4M126.3 105l1.5-.3c1.5-.2 3-.5 3.2-3-16.9-.8-30.7-8.7-44.4-20.5a41 41 0 0 0 39.7 23.8m.2-20c2.4 6.8 7.8 6.8 13.3 5 3.8-1.4 3.5-5.4 3.3-8.7-.4-5-3.8-6-8-6.3-6.1-.5-8.2 2.8-8.6 10" fill="white"/><path fill-rule="evenodd" clip-rule="evenodd" d="M186.9 59.6a77 77 0 0 1-41 4.6c-13.1-.8-24.3-4.5-35.4-9C99.3 51 83.6 57.4 76 68.5c-6.7 10-6 20 3.5 30 10.8 11.5 24.3 20.7 40 19.6q13.5-1 27-2.6c20.7-2.1 41.3-4.3 62.4-3 17.5 1 26.1-15.5 21.2-32.7-5.7-19.4-22.6-27.3-43.3-20.1M164.2 77c8-1 10.5 3 9.3 10.4q-3.4 3.5-5.4 3.4l-3.6.2c-4 .4-8.4.8-9.1-5.8-.8-6.3 4-7.5 8.8-8.2m-38 28 1.5-.3c1.5-.2 3-.5 3.2-3-16.9-.8-30.7-8.7-44.4-20.5a41 41 0 0 0 39.7 23.8m71.5-30.8c3.4 3.2 1.2 7-1.4 10q-2 .8-3.6 1.7c-3.5 1.9-6.4 3.4-10 1.6-3-5.4-2.7-10.4 3-13.7 3.8-2 8.6-2.6 12 .4m-71.3 10.7c2.4 7 7.8 7 13.3 5 3.8-1.3 3.5-5.3 3.3-8.6-.4-5-3.8-6-8-6.3-6.1-.5-8.2 2.8-8.6 10m-22-16.5c5.8 1.4 12 3 10 11.7-4 1.5-6.9-.3-9.8-2.1-3.5-2.1-7-4.2-12.2-1.2 1.5-8.5 5.9-10 11.2-8.6z" fill="black"/></g><g id="nose-variant15-9a1737ed"><path d="M59.8 80.5c4.5-7.8 8-15.1 12.7-21.7 3-4.2 8-7.4 13-3.1 4.9 4 0 7.2-2 10.7a228 228 0 0 0-31.3 82.3c13-2 25-1.4 30.4 11 5.6 12.7-2.5 23.2-10.6 31.8-7.3 7.7-16.6 13.5-29 7.7C42.8 183 69.6 184 65.6 166c-2.6-2.6-4.5-1.7-6.6-1.2-19.7 4.3-22.8 2.4-20.3-18.2a215 215 0 0 1 21.1-66" fill="black"/></g><g id="eyes-variant03-9a1737ed"><path d="M214 23q19.4.5 37.7 2.6c3 .3 4.9 3.3 5 6.6q-.1 5-4.8 7c-11.1 4.9-22 8.3-33.7.2-6.5-4.4-8.9-8.6-4.2-16.3M59.5 25.8c6.2 3.3 5.2 7 2.1 10.8-6.5 8-28.2 10-36.4 3.5-4.7-3.8-7.3-8.6-4.4-14.4 3-6 8.2-5 13-2.5 8 4 16.4 3 25.7 2.6" fill="black"/></g><g id="eyebrows-variant07-9a1737ed"><path d="M29.3 32.1C57 10 88.8 13.1 120 14.1c5.7 0 12.2 1.3 14.3 8.4 2.1 7.6-4.6 9.8-8.8 13.7a45 45 0 0 1-52.2 8.6 38 38 0 0 0-31.9 1.6Q38.6 48 35.7 49c-6.3 2.5-14.3 6-18.6-.4-4.4-6.7 5.6-9 8.3-13.7.6-1 2-1.6 3.9-2.8m264.1-8.3q11.6 6.5 20 17c2.5 3 5 6.3 3 10.2-2.4 4.3-6.7 2.7-10.4 2.2-12.5-1.5-23.7-9.2-37-7.2-5 .8-9.9.7-15 2.5-13 4.7-31-6.4-33-19.8q-1.7-8 6.8-10c22.2-5.7 44-9 65.6 5.1" fill="black"/></g><clipPath id="clip-9a1737ed"><rect width="560" height="560" rx="0" ry="0"/></clipPath></defs><g clip-path="url(#clip-9a1737ed)"><rect width="560" height="560" fill="#ffffff"/><use transform="translate(136 329)" href="#mouth-variant26-9a1737ed"/><use transform="translate(246 126)" href="#nose-variant15-9a1737ed"/><use transform="translate(150.2 189.6)" href="#eyes-variant03-9a1737ed"/><use transform="translate(120 114)" href="#eyebrows-variant07-9a1737ed"/></g></svg>