<svg xmlns="http://www.w3.org/2000/svg" viewBox="0 0 1744 1744" fill="none" shape-rendering="auto" aria-hidden="true"><metadata xmlns:rdf="http://www.w3.org/1999/02/22-rdf-syntax-ns#" xmlns:xsi="http://www.w3.org/2001/XMLSchema-instance" xmlns:dc="http://purl.org/dc/elements/1.1/" xmlns:dcterms="http://purl.org/dc/terms/"><rdf:RDF><rdf:Description><dc:title>Notionists</dc:title><dc:creator>Zoish</dc:creator><dc:source xsi:type="dcterms:URI">https://heyzoish.gumroad.com/l/notionists</dc:source><dcterms:license xsi:type="dcterms:URI">https://creativecommons.org/publicdomain/zero/1.0/</dcterms:license><dc:rights>Remix of “Notionists” (https://heyzoish.gumroad.com/l/notionists) by “Zoish”, licensed under “CC0 1.0” (https://creativecommons.org/publicdomain/zero/1.0/)</dc:rights></rdf:Description></rdf:RDF></metadata><defs><g id="head-variant01-f2eaa2b1"><path d="M553 723.7c-99 297-363.7 388.6-503.6 19.8-19.3-50.7 31-69.5 66.2-91.9 24.1-15.3 36.8-28.5 35.3-42.2C144 545 114 365.6 114 365.6l-3-5.8s.7-1.6-2.2 1.2c-3 3-9.9 34.2-37 34.2-24.5 0-49.2-10.9-61-86.3C6.3 281.6 8.7 210 39 197c12.5-5.3 24-7.2 35.2-.8s-13-22 112-126C267.5 2.4 395.8-7.5 447.6 4S551 40.8 574 94.5c27.8 65-25.9 114.3-14 262.5-2.2 53.6.8 171.2-146.6 210.6-28 7.5-19.3 48.4 22.7 58.4 67 21 117 72.3 117 97.9" fill="white"/><path d="M7.6 228.9c5.2-16.1 23.7-44.7 42.2-42C71.7 185 83.8 198 94 213a140 140 0 0 1 22.4 61.5c.5 3.7 1 7.6-1.2 11.3-4.5.6-4.9-3-5-5.6-.5-20.7-9.7-38.7-18.9-56.1-6.6-12.5-16.2-24.6-31.4-27.6-17.2-3.5-33 12-40.8 32.2-14.5 37.6-12 74.6 1.4 111 5.8 15.9 13.1 32.1 27.8 43.2 14.8 11.3 32.7 9.3 43.6-5.7 2.5-3.4 5.6-6.7 7-10.6 2.1-5.7 5.4-11 11.3-10.3 6.8 1 8 8.3 8.7 14C126.2 436 137 501 147 566c2.6 17.1 5.6 41.7 3.6 52.1-.7 3.7 0 7-4.5 7.8-4.9.7-7-2.1-7.7-6.5-2.3-17-3-23.6-4-49.6-1.2-34.3-9.6-68-15.3-102a604 604 0 0 1-10.9-97c-8.5 12.7-14.8 23.3-26.5 27.2a40.5 40.5 0 0 1-46.1-12.6 128 128 0 0 1-28.8-55.8c-8.4-34-9.9-67.1.9-100.6m572.7-71.5c6.5 4.4 5.7 10 3.7 15.2-21.6 55.7-17.6 113.8-15.8 171.6 2.1 66.4-14.5 126.8-58.7 177.5-15.4 17.6-35.8 29.8-56.5 40.3-21.4 11-25.9 20.1-19.2 43.6 1.3 4.7 4.4 9.6-.2 14.4s-9.8 3.1-15.4 1.7a406 406 0 0 1-137-68.3c-6-4.5-11-10.6-15.8-16.5-2.5-3-3-7.8.5-10.4 3.7-2.9 6.4.1 9.8 2.7A146 146 0 0 0 352 561c21 2.1 41.5-.2 62.3-.1 11.5 0 20.6-5.9 29.5-10.8 27.8-15.5 54.3-32.8 72.2-60.7a230 230 0 0 0 31.6-80.9c9.6-48 5.3-96.6 5.5-146.2 4.2-36.9 8.1-72.7 27.3-104.8M60.6 238.6c21 1 34.7 28 35.8 70.3-6 18.8-12.8-1-21 2.7-4 14.5 15.1 20 16.3 34-14-.6-21.1-9.3-25.9-19.8-5.5-12.2-1-22.2 9.7-29.9-6.7-13.4-21.7-18-30-30.5 10-3.5 15.1 2.9 21 6.8 5.9 4 9 11.3 17 15-.8-19.8-11.7-34-23-48.6" fill="black"/></g><g id="clothes-variant15-f2eaa2b1"><path d="M1341.4 722.1 37.7 718.8S71 509.1 133.9 390c73-138.7 176.8-250.5 390.4-316.9 18.6-5.8 172.5 68.7 172.5 68.7l108.7-70s175 48.2 241.3 85.5c84.2 47.3 179.2 187 223 296 46.6 115.8 71.6 269 71.6 269" fill="white"/><path d="M925.5 722.1c-13-1.7-13.5-12.7-17-20.7-4.4-10.4-9.8-13.3-18.7-5-6.5 5.9-10.2 4.1-14.6-3.3-5.3-9-14-16.3-3.7-27.8 3.9-4.2 0-9-5.4-10.3s-7.4-5.4-8.1-10.1c-1-6 4.6-6 8-8.2 9-6.1 16.2-13.9 18.6-25 .8-3.6 1.8-7.7 5.6-7.2 13.2 1.8 21.6-7.9 32.4-12.3 5 1.7 6.3 6.4 8 10.6 2.6 6.2 5.3 12 13.9 9.6a5.7 5.7 0 0 1 7.1 4c1.8 5.6 4 10 10.7 11 2.7.5 4.1 3.5 3.3 6-1.7 5.8.9 8.8 5.7 11a4.4 4.4 0 0 1 2 6.6c-8.5 11.9-5.3 23.9.3 37.4-16.8 4.4-28.3 13.8-29 32.9q-8.5 1-19 .8M605 713.2c-10.9 6-17.8-4-27-5.2-10.4-1.4-13 1.5-13.3 10.5-.2 5 .6 11-6.6 11.8-13.3 1.6-27.4-3.7-27.9-11-.6-9.7-3.7-12.8-12.6-7.6a12 12 0 0 1-14.3-1.2c-4.3-3.6-.2-7.8.8-11.7 2.5-11-.1-21.4-5.5-31-1.8-3-4.8-6.8-1.6-8.6 11.5-6.5 8-17.2 8.6-26.7.6-9.2 5.8-7.7 11.5-5.8 7.6 2.5 13.6 5 21.5-2.8 5.6-5.5 18-4.6 26.2-1.8 6 2.2 11 5 17.8 1.5 4.4 14.2 11 24 26 25.9 6 .7 5.5 6 2.6 9.8-8 10-1.5 21-2.4 31.4-.4 4.4 5.7 4 9.8 5.8a185 185 0 0 1-13.5 16.7m-440.4 17.4c-11.8-5-8.6-17.8-15.8-25.5-5.7-6.1-8.7-6.8-14.2-2.6-8.5 6.5-14.6 8.6-20.2-4.2-4-9-13.3-15.4-3.5-26.4 2.8-3.2-2-6.6-5.6-8.4-5.3-2.7-8.8-6.6-8.1-15 15 2.4 17-13.7 27.3-19.3 3-1.6 2.6-5 2.5-8-.2-5 3.6-8.3 7-6.6 11.1 5.3 15.8-3.1 22-8.8 9.6-9 12.2-8.3 15 4.5 1.5 6.8 3.1 12.6 12.1 11 1.9-.4 4.8.1 5.9 1.4 8.4 10.3 18.9 18.8 25.4 30.6 1.2 2 2 4.5.5 6-12 12-8 24 1 37-17.5 5.1-34.5 10-32.3 33.5-5.8.8-11.8.8-19 .8m1111.5-8.5c-15.3-1.7-12.1-16.3-17.8-24.2-6.8-9.4-11-8.8-17.9-3-7.2 6.2-12.8 9.5-15.4-3.7-.6-3-3.8-5.6-6-8.3-3.7-4.9-5.1-9.1.6-14.3 6.7-6 4.8-11.5-3.7-14-6-1.7-10.2-5.2-10-11.4.1-6 6-4.6 9.8-5.4 3.7-.7 6.8-3 7.3-6.4 1-7.2 5.9-9.7 12.4-11.2-2.1-11-.4-17.6 12.8-13.2 8.5 2.9 10.8-6.7 16-10.2 10.1-6.6 13.3-6.6 16.2 5.3 1.9 7.8 4.1 12.8 13.5 10.7 4.4-1 5.5 3 6.5 6.3 1 3.4 2.3 6.8 6.3 7.2 13 1 9.3 7.4 4.5 13.7 2.7 5.5 9.2 2.9 12.7 7.8-10.6 12.2-10.1 25.5-1 38-1.5 5.2-5.3 5.6-8.5 5.4-15-.6-14.8 16.2-24.7 21.6-2 1 1.3 5.3 2.9 8.6q-8.2 1-16.5.7M956.3 171c-8.8-6-16.5-11.5-17.4-22.6-.5-5.6-4.3-9.8-10.4-11.6 8.4-10.4 9-33.3 9-33.3s-3 8.6 73.4 31.2c-8.3 20.7.6 30.5-19 44.3-9.2-9.3-23-3.5-35.6-8m-23.2 200.2c-18.4 3.2-22-11.2-26.2-21.9-4.1-10.4-8.5-7.9-15.2-4.3-4.3 2.2-7.4 10.2-13.9 3.9-8.1-8-12.6-23.7-7.6-29.2 6-6.6 4.3-10.5-2.9-13.5-5.5-2.4-9.6-6-9.6-12.2-.1-7.4 7-5.9 11-8.3 7.6-4.6 9.6-13.5 14.6-20.1.5-.6.3-1.7.7-2.5 1.8-4.3 38.3-22.4 40-19.5a64 64 0 0 0 26.8 24.7c4.2 2.1 8.7 9.5 14.7 11.3 2.8 5.8-3.5 8.2-3.2 12 3 4 8.8 2.3 11.4 7.5-7.2 10-6 21-1.4 32 2.4 5.4 1.5 9.2-4.2 11a37 37 0 0 0-25.8 25.7c-1.3 4.1-4.6 4.5-9.2 3.4m-319.4-91.9c2.3 7.1.4 15.3 10.8 18-8.2 11.5-7.7 22.6-1.7 33.9q4.2 7.9-4.9 10.4c-14.4 3.6-26 9.8-27.4 27.1-.3 4.3-4.8 4.1-7.7.8-1.8-2.1-.8-6-4.6-7.6-2 3.6-1.2 10-7.9 9.2-6-.7-5.1-5.3-6-9.6-1.4-8-9-13-10.1-21.1-7.6-.7-11 5.2-16 8-5.4 3.2-9.1 3.6-11.8-3.3-3.9-9.7-16-17.8-4-30.2 3.7-3.8-2.2-7.3-6-9.1C511 303 507 299 507 293c0-6.6 8-4.4 10.2-7.4 6.3-8 18-10.8 19.8-23.6 1.6-11 10.2-1.7 16-2.7 2.5-3.3 4.7-7.5 8-10.4 10.4-9.1 14.6-8 20.2 4.6.8 2 1.8 5.4 2.8 5.5 13.9.5 18.2 14.8 29.6 20.2m-443.3 43.6c2.7-5.3 5.8-9.6 7-14.4 4.4-20 13-37.3 32.2-46.3 8.7-4 6.9-15.5 15.2-18.7 5.5 2.4 4.5 7.4 6 11.1 1 2.8 1.6 7.9 4 7.3 14.6-3.4 16.6 12.7 26.6 16.7 8 3.3 5.4 15.7 15 19.8-13.8 12.6-10.7 25.3-.6 39.4-17.8 5.8-34.9 12-36.2 33.5-6.3-.4-5.8-7-13.5-9-2-.6-2 7.2-8 6.8q-5.4-14.9-14-28c-9.4-.4-14.8 8.3-24 9.7-4-8.7-12-16-9.7-27.9m919.5-51.2c-1.2-6.5-6.1-7.5-10.4-9.3-4.6-2-5.8-6-6-10.3-.3-4.5 3.7-5.2 7-6 11-3.1 14-14.2 19.2-22 6.5-9.8 23.7-15.8 31.1-6.7 20.1 24.6 41 48.7 57.5 76 .4.7.2 1.7.5 4.3-19 1.9-28.3 15.2-33.6 34-6.5-7.7-12.5-11.2-21-4.7-1.4-10.1-9.3-15-12.1-22.9-2.7-7.5-7.2-5.7-12-3-15.8 9-16 9-24.4-7.7l-4.5-9.7c1.4-5.6 8.5-5.5 8.7-12M384.9 450c2.8-.6 5.2-.7 6.6-2 11.6-9.9 22.7-6.4 26.4 8.8 1 4.2 2.8 6 6.8 6s7.6 1 9.9 6.1c-9 8.1-2 20.3-6.2 29.8-4.1 9.3-11 17.4-17.7 27.5-8.6-10.8-20.9-6.7-31.5-9.2-12-2.8-19.3-8.3-22.6-19.8-.4-1.2-.4-2.8-1.2-3.6-12.1-10.7-6-22.3-2.5-34.2 5-17 12.5-20.4 27.5-11.1q2.2 1 4.5 1.6m743.4 44.2c-.9 13.8-15.8 18.3-16 34.4-10.6-11.1-21.4-10.2-31.7-10.8q-19.2-1.1-22.8-19.3c-1.5-7.5-6.2-11.7-12.8-15.4q5.7-14.3 7.7-29.5c.9-6.5 17.8-13.4 22.3-8.6 10.3 11.2 17 8.4 22.5-5 8.8 4.9 18.7 6 21.6 18 1.6 6.5 13.8 1.8 15.8 11.7-12.6 4.7-4.5 15.4-6.6 24.5m-401.5-45.9c11.8 9.1 16-2.6 23-7.7 7 5.8 18.6 5.2 20 18.5.8 6.3 13.1.6 15.2 10.3-6.6 4.4-7.8 10.6-6 19.5 3.1 15.9-13.4 23-17.4 38.2-12.8-13-28.5-5.7-41.7-12.2-14.2-7-9.6-27-26.3-31.3 6.6-10.4 9-20.7 10.2-31.6 1-8 14.5-10.1 23-3.7M421.5 158c-4.2 5.8-5.3 12.5-11.3 17.8-8.8-11.7-22.3-5-33.5-8.8a64 64 0 0 1-15.6-8.1c-6.8-4.5-5.9-18.2 1.3-23 14.3-9.5 27-21.4 45.4-23.8 10.8-1.4 18.8 4 31.5 4.1-9 9.7-8.5 18.3-9 26.5-.4 6.4-2.4 11.5-8.8 15.3" fill="black"/><path fill-rule="evenodd" clip-rule="evenodd" d="M1317.7 644.9c5.5 25.7 11 51.5 17.3 77.2 4.7 0 8.2 0 11.4-.9a483 483 0 0 1-11.7-60.7q-2.9-19.6-6.6-39a1045 1045 0 0 0-22-90 930 930 0 0 0-35.3-99.3 744 744 0 0 0-48.2-97.7 685 685 0 0 0-64.4-91.1v-.2c-20.5-23.6-40.8-47-66.5-65.8a397 397 0 0 0-39.2-24.2q-13.6-7.5-26.9-15.8c-27.4-17.6-57.8-27-88.2-36.2a725 725 0 0 1-43-14.2 193 193 0 0 0-31.6-8c-18.4-3.5-37-7-53.2-19.4-2 8.4-7.7 9.7-13.5 11-3.1.7-6.2 1.4-8.8 3.2q-26.8 18.5-54.4 36l-30.4 20c-2.2 1.4-4.1 2.8-6.7 1.3-10.3-6-21.5-10.1-32.7-14.2q-8.8-3-17.5-6.7l-17-6.9q-20.5-8-40-17.5c-7-3.5-14.2-6-21.5-8.3-12.4-4-24.8-8.1-34.9-17.5-3.5-3.4-9.7-3.3-13.5 2-5.7 8.3-14.6 11.2-23.6 14.2l-15.8 5a427 427 0 0 0-41.9 14.5q-41.7 18-82.1 39a403 403 0 0 0-88.4 61 602 602 0 0 0-102.2 122.5 768 768 0 0 0-53.2 99.6A898 898 0 0 0 80.6 497l-1.2 3.5a714 714 0 0 0-20 65.8Q57 577 54.1 587.5q-4.6 17.8-8.4 35.6-9.4 49.4-16.2 99c6.3 0 11.6 0 17.1-1.1 1-18.1 4.4-35.3 7.7-52.2l2.5-13a786 786 0 0 1 29.4-118c12.7-38.2 25.3-76.3 42.3-112.8 22.8-49.3 49-96.5 81.7-140.2a540 540 0 0 1 79.7-86.4c27.7-23.9 59-41.7 91.8-58.2q17.4-8.5 35-16.3a605 605 0 0 0 45.3-21.6c9.6-5.3 15.4-5 19.7 7.3a219 219 0 0 0 40.4 68.5 249 249 0 0 0 140.7 85.6c56 12 105.3-.3 146-40.4 22.1-21.6 43.2-44.9 54.9-74.4q6.6-17.3 12.7-35.3l6-17 34 10.8q16 5.3 32.4 10.3c45.7 14 86.6 38.4 125.6 65.4 43.3 30 75.4 71.4 105.2 114.2A770 770 0 0 1 1236 395a767 767 0 0 1 42.5 102.7 1121 1121 0 0 1 30.5 107.6zM642 125.9a88 88 0 0 0 26 9l4.5 2.2a52 52 0 0 0 17 6.2q-4.5 6.4-9 12.2a97 97 0 0 0-18.3 31.3c-2.2 5.5-4.4 11-5.2 17-1.1 9.1-5.9 11.4-15.2 9.6a127 127 0 0 1-42.5-19.3l-30-19.4q-19.9-13.3-40.5-25.8c-17.4-10.4-25.2-27.1-32.4-44.3-3.1-7.6 3.4-12.6 9-16.4 10-7 21.4-7.2 32.9-4.2 19.4 5 37.5 13.2 55.7 21.4a566 566 0 0 0 35 14.8q6.6 2.5 13 5.6m130.6 92.4c-3.2 5-6.6 10-13.7 8-5.9-1.4-7.3-6.5-8.7-11.6l-.7-2.3a130 130 0 0 0-43.4-64c-22.6 17.1-30.8 41.4-37 66.8l-.4 2.1c-1.4 6.4-2.8 12.7-12 12-22.1-2-43.4-6.8-62-20.6q-20.8-15.4-42-30l-18.5-13q3.2 12.1 12.5 20.7a281 281 0 0 0 73.4 49.3 180 180 0 0 0 110.5 13.2c37.7-6.6 67.1-28.5 90.5-58.3l3.8-4.7a53 53 0 0 0 15-29.5q-6.2 6.3-12 12.7c-10.2 11.2-19.6 21.5-32.3 28.2a61 61 0 0 0-22 19.5zm83.8-93.5a18 18 0 0 1-7.1 8.8q-40.6 38.3-86.5 70.3a146 146 0 0 0-46.4-65l21.7-14.2q32.2-20.9 63.7-41.8c4-2.7 6.2-1 8.8.9l1.1.8a45 45 0 0 0 27.3 9.3c20.8-1 26.7 10.8 17.4 31" fill="black"/><path d="M244.5 722.1c1.2-22.7 3.4-45.5 5.8-68.3 2.7-26.1 5.4-52.2 9.6-78.3q6-36.4 14.2-72.3c9-39.3 22.1-77.4 44.7-111.5 3-4.6 6-9 12-4.9 5.3 3.6 2.4 7.4.6 12.1q-14.1 36-27.3 72.2a638 638 0 0 0-27.3 109.6c-5.9 33.8-8.2 68.2-12 102.3-1.3 12.3-2 24.6-3.2 38-5.5 1.1-10.7 1.1-17 1.1m906.1 0c-9.2-36.8-12.3-74.6-22.4-111-7.7-28.1-14-56.8-24-84-7.1-19.3-14-39-23.4-57.6-12.7-25-23.3-51.2-34.6-77-1.3-2.9-3-6.3 1.2-8.9 4.5-2.6 7.5-.4 10 2.7 3.8 5 7.8 10.2 10.6 15.9q14.8 30.6 29.5 61.6a603 603 0 0 1 34.2 95.5 619 619 0 0 1 21.7 96.5c2.7 21.4 7.2 42.7 8.8 65.3-3.4 1-7 1-11.6 1M639.5 194.7c-8.2 2-11.1-2.7-12.5-8.4-1.5-6.2.8-11.7 6-15.5q5-3.5 10.9-.6c4.8 2.3 4.6 6.6 4.7 10.8.3 6.3-3.1 10.3-9 13.7m145.8-31.5c1.7 5.9 3 11.4-1.7 14.9-4.2 3-9.7 6.7-14.8 2-5.5-4.8-3.8-11.3-.2-16 4.2-5.4 10-8 16.7-1" fill="black"/></g><g id="hair-variant25-f2eaa2b1"><path d="M800.8 336.9c-1.3-5.4-2-10.1-5.6-13.7-8.6 33 .4 28.8-36.4 29.5-54 1.2-108 3.8-161.3 12.5-16.2 2.6-25.3-2.3-26-21.8-12.3 11.1-12.8 24.7-18.8 35.3-16.7 30.1-37.2 57.5-69.2 72a63 63 0 0 1-58.5-4.8 213 213 0 0 1-47 88.7c-7.4-10.8-8.6-23.7-12.1-35.5-5.7-18.7-21-33.8-39-35.3-13.4-1.2-36 13.6-42.4 27.5q-5.7 12-11.7 23.6c-1.6-.2-3-.1-3-.4-8.2-26.8-26.5-50-31.6-77.3a154 154 0 0 1 13.7-101.7 341 341 0 0 1 103.5-121.7c40.5-29.2 85.6-48 133-61a579 579 0 0 1 171.8-19.1c29.2 1 57.7 7.5 86.1 15.3a294 294 0 0 1 70.8 27.7c37.9 21.9 66 52.4 82 93.7 11.6 29.8 9.5 59 1.8 89.7-9 35.5-27.6 64.2-52.2 90.2-9.6 10.2-12.6 23.7-15.8 36.8-1 4.1-.2 8.7-7 10.8-8.1-10.3-9-23.3-9.4-35.3-1.2-37.5-3.1-74.7-11.2-111.4-1-4.6-2.9-9-4.5-14.3" fill="black"/></g><g id="mouth-variant20-f2eaa2b1"><path d="M101.4 92.5c-2.6-12.2-2.9-25.4-21.6-18.7-2.6.9-5-3.7-3.1-6.7 4.4-7 10.7-11.9 19.6-10.9 10.6 1.3 20.9 10.6 20 19.5-.7 8.1-2 17.4-14.9 16.8" fill="black"/></g><g id="nose-variant09-f2eaa2b1"><path d="M75.1 116.2c3.9 16.3 7.4 31.6 11.2 46.7 5 19.6 2.1 28.4-15.7 35.9-20 8.2-45.5 7-59.6-15.5-2.2-3.5-3.6-6.6-3-10.6.7-3.2 1.9-5.7 5.4-6.3 3.7-.6 5 1.5 6.4 4.6q13.9 29.4 43.7 17.1c10.1-4 13.3-11.8 10-21.6a292 292 0 0 1-13.5-67c-1.5-14.8-4.2-30.2 5.7-43.3h4z" fill="black"/><path d="M31.5 176.5c-5.7-8.1 0-10.7 5.5-12.3 4-1.2 8.2 1 7.9 5.6-.5 8-6.1 8.8-13.4 6.7" fill="black"/></g><g id="eyes-variant02-f2eaa2b1"><path d="M212.2 70q19.4.3 37.6 2.4c3 .4 5 3.3 5 6.7q-.1 5-4.7 7c-11.2 4.8-22 8.2-33.7.2-6.5-4.5-9-8.7-4.2-16.4M56 71.4c6.4 2.8 5.6 6.6 3 10.6-5.9 8.6-27.3 12.5-36 6.6-5-3.4-8-8-5.6-14C19.9 68.4 25 69 30.2 71c8.3 3.3 16.5 1.7 25.8.4m168.4-13c-4.2-9.5-9.9-15.2-19.8-15.7-6-.3-7-5.1-8.9-9.8 2-1.5 3.5-3.7 5.3-3.8q31.8-2.6 63.5-.1c6 .4 9.3 8 3.2 10.4-10 4-12.5 13.2-18.5 19.8-8.2 9-15.2 9.1-24.8-.8m-190-29.9c12.2.7 23.1 1 34 2 3.6.3 8 1.8 8 6.7 0 5.6-4.6 5.2-8.3 5.1-6.3 0-9.7 2.7-12.5 8.6-3.4 7.4-6.9 15.3-18 14.8C27 65 22.5 58.5 19.5 50.5c-2.2-5.7-5-8.4-11-8.2-3.4.1-7.1-.2-7.5-4.9-.4-5 3-6 7-7.2a68 68 0 0 1 26.4-1.7" fill="black"/></g><g id="eyebrows-variant03-f2eaa2b1"><path d="M46.1 22c23.6-.3 45.4-8.9 68.1-5.8 18.2 2.5 36.3 4 54.6.9 6.6-1.2 11.6 2 13 12 1.5-13.5 13.4-12.8 17.1-11.2 15.5 6.6 30.2 1 44.9-.5 20-2 48.5 10.6 58.3 28.4a52 52 0 0 0 4.4 6.1c2.8 3.7 7.3 7.2 3 12.1-4.1 4.6-9.2 1.7-13-.3Q283.8 56.6 272 48a18 18 0 0 0-19-2.4 76 76 0 0 1-38.9 4.4c-14.4-1.5-29.5 3.4-43 2-21.5-2.5-43.2 3.4-64.2-3.5-8.4-2.8-16.7-6.9-25.1.2-.9.7-2.7 1.3-3.6.9-12.3-6-24.4 0-36.4.1-10.2 0-20.2 3-30.3 1.6-3.8-.5-9.2 2-11-3.6-2-6.2 4-8.2 7.5-10.3 8.4-5.2 17-10.7 27.7-11.4 3.2-.2 6.3-2.4 10.4-4" fill="black"/></g><clipPath id="clip-f2eaa2b1"><rect width="1744" height="1744" rx="0" ry="0"/></clipPath></defs><g clip-path="url(#clip-f2eaa2b1)"><use transform="translate(532 491)" href="#head-variant01-f2eaa2b1"/><use transform="translate(151 1029.3)" href="#clothes-variant15-f2eaa2b1"/><use transform="translate(266 221.9)" href="#hair-variant25-f2eaa2b1"/><use transform="translate(791 872)" href="#mouth-variant20-f2eaa2b1"/><use transform="translate(901 669)" href="#nose-variant09-f2eaa2b1"/><use transform="translate(805.2 732.6)" href="#eyes-variant02-f2eaa2b1"/><use transform="translate(775 657)" href="#eyebrows-variant03-f2eaa2b1"/></g></svg>