<svg xmlns="http://www.w3.org/2000/svg" viewBox="0 0 560 560" fill="none" shape-rendering="auto" aria-hidden="true"><metadata xmlns:rdf="http://www.w3.org/1999/02/22-rdf-syntax-ns#" xmlns:xsi="http://www.w3.org/2001/XMLSchema-instance" xmlns:dc="http://purl.org/dc/elements/1.1/" xmlns:dcterms="http://purl.org/dc/terms/"><rdf:RDF><rdf:Description><dc:title>Notionists</dc:title><dc:creator>Zoish</dc:creator><dc:source xsi:type="dcterms:URI">https://heyzoish.gumroad.com/l/notionists</dc:source><dcterms:license xsi:type="dcterms:URI">https://creativecommons.org/publicdomain/zero/1.0/</dcterms:license><dc:rights>Remix of “Notionists” (https://heyzoish.gumroad.com/l/notionists) by “Zoish”, licensed under “CC0 1.0” (https://creativecommons.org/publicdomain/zero/1.0/)</dc:rights></rdf:Description></rdf:RDF></metadata><defs><g id="mouth-variant01-94172e7b"><path d="M185.6 58.2c7.2 8.7 9.1 20 20.2 25 4.5 2 2.4 7.7-2.9 9.1a31 31 0 0 1-10.1.5c-22.4-1.6-44.7-3.4-67.2.5-7.7 1.3-16-.3-24-.7-4.3-.2-7.5-2.4-8-6.8s3.5-6.4 6.5-6.5c13.7-.4 21-10.2 28.8-19 6.8-8 15-9.4 24.8-9.5 11.1-.2 22.7-4 32 7.4m-15.5 60.3c-10 1.2-19.5 3.4-28-6.2 9.4-4.8 17.9-4.2 26-4.8 3-.2 6.9 1.9 7.6 5.7.5 2.9-2.3 4.1-5.6 5.3" fill="black"/></g><g id="nose-variant13-94172e7b"><path d="M99.8 181.6c-8.7 16.5-33.4 25.7-48.5 18.9-4.3-2-6.2-5.8-7-10a6 6 0 0 1 3.3-6.5c4.6-2 5.8 2.3 8.6 4.8 7 6 13 .7 19-3.4 5.8-4 9.1-8.5 4.3-14.7-10.5-13.1-14.8-29.2-21.8-44-3.1-6.5-5-13.5-3.8-21 .5-3.3 1.9-5.5 5.6-5.6 2.8 0 5 .8 5.9 3.8 7.5 26.3 23.3 48.6 34.6 73.1.5 1 0 2.5-.2 4.6" fill="black"/></g><g id="eyes-variant05-94172e7b"><path d="M20 24c5-12 8.8-29.4 24-22.5C64.7 11 58 32.2 53.7 49 52 55.2 39.2 64.8 35.4 63.2 19.1 56.4 16.2 41.5 20 24m226.8 36.8c-8.6 7.5-17 7.6-22.2-1.5-9-16-8.6-32.8 3.3-47.2 2.5-3 13.8-3.6 16.3-1q20.8 22.7 2.6 49.7" fill="black"/></g><g id="eyebrows-variant04-94172e7b"><path d="M14 39c8.8-14.4 22-18.6 36.9-20 23.2-2.3 44 8.5 65.9 12.8 8 1.5 6.8 7.5 1.4 10.7-9.4 5.7-19.5 11-31.2 7-22.5-7.6-45.1-12-68.6-4.1-6.2 2-5-2-4.2-6.3M254 29c15-2.6 28.7-5.3 42.2 1.5Q312.3 38.8 309 56c-5 3.1-7.5-.4-10.6-2.5a38 38 0 0 0-37.3-4.6c-9.3 3.7-19.2 2.4-29 2.4-4.7 0-8.4-1.8-8.7-7-.4-5.5.9-10.8 6.9-12 7.3-1.7 15-2.2 23.7-3.3" fill="black"/></g><clipPath id="clip-94172e7b"><rect width="560" height="560" rx="0" ry="0"/></clipPath></defs><g clip-path="url(#clip-94172e7b)"><rect width="560" height="560" fill="#ffffff"/><use transform="translate(136 329)" href="#mouth-variant01-94172e7b"/><use transform="translate(246 126)" href="#nose-variant13-94172e7b"/><use transform="translate(150.2 189.6)" href="#eyes-variant05-94172e7b"/><use transform="translate(120 114)" href="#eyebrows-variant04-94172e7b"/></g></svg>