<svg xmlns="http://www.w3.org/2000/svg" viewBox="0 0 1744 1744" fill="none" shape-rendering="auto" aria-hidden="true"><metadata xmlns:rdf="http://www.w3.org/1999/02/22-rdf-syntax-ns#" xmlns:xsi="http://www.w3.org/2001/XMLSchema-instance" xmlns:dc="http://purl.org/dc/elements/1.1/" xmlns:dcterms="http://purl.org/dc/terms/"><rdf:RDF><rdf:Description><dc:title>Notionists</dc:title><dc:creator>Zoish</dc:creator><dc:source xsi:type="dcterms:URI">https://heyzoish.gumroad.com/l/notionists</dc:source><dcterms:license xsi:type="dcterms:URI">https://creativecommons.org/publicdomain/zero/1.0/</dcterms:license><dc:rights>Remix of “Notionists” (https://heyzoish.gumroad.com/l/notionists) by “Zoish”, licensed under “CC0 1.0” (https://creativecommons.org/publicdomain/zero/1.0/)</dc:rights></rdf:Description></rdf:RDF></metadata><defs><g id="head-variant01-f4eaa5d7"><path d="M553 723.7c-99 297-363.7 388.6-503.6 19.8-19.3-50.7 31-69.5 66.2-91.9 24.1-15.3 36.8-28.5 35.3-42.2C144 545 114 365.6 114 365.6l-3-5.8s.7-1.6-2.2 1.2c-3 3-9.9 34.2-37 34.2-24.5 0-49.2-10.9-61-86.3C6.3 281.6 8.7 210 39 197c12.5-5.3 24-7.2 35.2-.8s-13-22 112-126C267.5 2.4 395.8-7.5 447.6 4S551 40.8 574 94.5c27.8 65-25.9 114.3-14 262.5-2.2 53.6.8 171.2-146.6 210.6-28 7.5-19.3 48.4 22.7 58.4 67 21 117 72.3 117 97.9" fill="white"/><path d="M7.6 228.9c5.2-16.1 23.7-44.7 42.2-42C71.7 185 83.8 198 94 213a140 140 0 0 1 22.4 61.5c.5 3.7 1 7.6-1.2 11.3-4.5.6-4.9-3-5-5.6-.5-20.7-9.7-38.7-18.9-56.1-6.6-12.5-16.2-24.6-31.4-27.6-17.2-3.5-33 12-40.8 32.2-14.5 37.6-12 74.6 1.4 111 5.8 15.9 13.1 32.1 27.8 43.2 14.8 11.3 32.7 9.3 43.6-5.7 2.5-3.4 5.6-6.7 7-10.6 2.1-5.7 5.4-11 11.3-10.3 6.8 1 8 8.3 8.7 14C126.2 436 137 501 147 566c2.6 17.1 5.6 41.7 3.6 52.1-.7 3.7 0 7-4.5 7.8-4.9.7-7-2.1-7.7-6.5-2.3-17-3-23.6-4-49.6-1.2-34.3-9.6-68-15.3-102a604 604 0 0 1-10.9-97c-8.5 12.7-14.8 23.3-26.5 27.2a40.5 40.5 0 0 1-46.1-12.6 128 128 0 0 1-28.8-55.8c-8.4-34-9.9-67.1.9-100.6m572.7-71.5c6.5 4.4 5.7 10 3.7 15.2-21.6 55.7-17.6 113.8-15.8 171.6 2.1 66.4-14.5 126.8-58.7 177.5-15.4 17.6-35.8 29.8-56.5 40.3-21.4 11-25.9 20.1-19.2 43.6 1.3 4.7 4.4 9.6-.2 14.4s-9.8 3.1-15.4 1.7a406 406 0 0 1-137-68.3c-6-4.5-11-10.6-15.8-16.5-2.5-3-3-7.8.5-10.4 3.7-2.9 6.4.1 9.8 2.7A146 146 0 0 0 352 561c21 2.1 41.5-.2 62.3-.1 11.5 0 20.6-5.9 29.5-10.8 27.8-15.5 54.3-32.8 72.2-60.7a230 230 0 0 0 31.6-80.9c9.6-48 5.3-96.6 5.5-146.2 4.2-36.9 8.1-72.7 27.3-104.8M60.6 238.6c21 1 34.7 28 35.8 70.3-6 18.8-12.8-1-21 2.7-4 14.5 15.1 20 16.3 34-14-.6-21.1-9.3-25.9-19.8-5.5-12.2-1-22.2 9.7-29.9-6.7-13.4-21.7-18-30-30.5 10-3.5 15.1 2.9 21 6.8 5.9 4 9 11.3 17 15-.8-19.8-11.7-34-23-48.6" fill="black"/></g><g id="clothes-variant25-f4eaa5d7"><path d="M1340.4 725.6 36.7 722.3s46.7-304.1 171.4-445C264 214.1 310.5 151.8 435.4 107c21.4-7.7 53.1-88 70.1-96.4 16.1-8 5.5 52.2 20.4 64.4a872 872 0 0 0 96 69.6c58.9 37.2 86 114.9 86 114.9s26.4-74.9 48.4-111.7c15.5-26 67.3-102.4 67.3-102.4s94.7 29.6 129.8 55.7c21.3 15.8 8.8 12.3 105.4 67.5 83.9 47.9 166.2 179.1 210 288 46.6 115.8 71.6 269 71.6 269" fill="white"/><path fill-rule="evenodd" clip-rule="evenodd" d="M1334 725.6c-6.7-27-12.5-54-18.3-81q-3.7-18-7.7-35.8c-8.2-37-19-73-30.9-108.8a740 740 0 0 0-42-101.5 796 796 0 0 0-56-96.5c-30-43.3-62.6-84.5-105.8-115.4-31.4-22.4-66.2-39.2-100.9-55.9-12.3-6-24.9-3.2-37.2-.5l-4 1q-14.8 3-29.4 6.4l-35.3 7.7c-5.1 1-7 4-8.5 8.2l-6 17.5q-6.3 18.3-12.1 36.7c-2.6 8.2-7 11.8-15.7 11.6q-11.1-.1-22.2.2-12 .3-23.8.1c-14-.3-20.9 4.7-19.2 21.5 1.9 18 1.8 36 1.8 54.3q0 16 .3 32.2 1.4 41.4.5 82.7c-1 51.3-1 102.6-1 154 .1 53.2.2 106.5-1 160.2a22 22 0 0 1-11.8.2 5398 5398 0 0 1-1.6-160.5q.2-47.7-.1-95.6c-.4-63.9-.7-127.8 1.8-191.7.2-3.5-1-6.7-4.9-6.8l-6.9 7.6c-12.8 14-25.4 27.8-31.4 47.9a83 83 0 0 1-15.1-31.5c-3.7-11.9-7.3-23.3-17-31.9-2 5.8-2 11.1-2 16.5v33l.2 69-.1 84.4q-.2 91.5 0 182.8.2 11.1-.3 22.1c-.4 18.6-.9 37.2 2 55.6h-14.2a960 960 0 0 1-1.9-62.5V264c0-24-7.7-30.8-30.6-37-38-10-76.2-20.9-105.4-49.7-10.8-10.6-22.4-5.3-32-1l-1.2.6c-8.6 4-17.5 6.9-26.4 9.8-12 4-24 8-35.1 14.3l-6.6 4a80 80 0 0 1-15.4 8.2c-3 1.4-5.9 2.7-9.3-.5-3.8-3.4-3.7-7-2-11.5l5.7-17.1a503 503 0 0 1 17.7-47c1.3-2.3 2.6-4.6 1.3-7.7-4-2.7-7.7-.7-11 1.1l-1.8 1-2.2 1-2 1c-42.4 21.3-84.8 42.6-119.8 76a651 651 0 0 0-69 75.8A743 743 0 0 0 113.6 460c-23.6 58.8-44 119-54.3 182q-3 17.4-5.7 34.9l-7.9 47.7c-5.5 1-10.8 1-17.1 1q6.8-49.5 16.2-98.9a589 589 0 0 1 8.4-35.3q2.8-10.7 5.3-21.5c5.3-22.6 12.8-44.6 20.3-66.6l1-2.7a832 832 0 0 1 84-179 584 584 0 0 1 57-76.2c38-43.3 80-82 132.7-106.3a693 693 0 0 0 81.6-45.8c7.5-4.8 11-11.7 14.6-18.6q2-3.8 4.3-7.6c14.7-23.5 30-46.4 53.1-62.8l1.6-1.2c2.9-2.3 5.7-4.4 9.7-2 3.6 2 3.4 5.1 3.3 8.4v2.8q1.1 24.9 3.4 49.6c.5 5.3 2.7 10 8 12.4 22.4 10.3 41.5 25.3 60.6 40.4 11.5 9 23 18 35.2 26a213 213 0 0 1 71 74.6q2.8 5.3 5.2 11.8l2.6 6.6C717 196.2 737 165.5 757 135l11.7-18q2.9-4.8 5.2-10c2.2-4.6 4.4-9.2 7.8-13.4a20 20 0 0 0 2.4-21.7c-2.2-4.7-3.4-9.6-1.5-14.7 8.5-2.6 13 2.3 17.8 7.4l1 1c9-5.8 8-13.3 3.3-21.3-1.6-2.8-3-5.5-.6-8.2 2.3-2.5 5.4-2.2 8.4-1.3 37.1 10.7 74 22 108.2 40.6q7.1 3.9 14.5 7.3c13.3 6.4 26.6 12.8 36.3 23.5 15.4 17 35.1 26.2 54.8 35.4 11.8 5.6 23.5 11 34.4 18.2a376 376 0 0 1 67.4 53.7c23 24.3 44.5 50 63.2 77.6a753 753 0 0 1 45.6 74.5 856 856 0 0 1 48 109.3q18.6 52 32.7 105.5c6.8 25.8 11.2 52 15.5 78.3 3.7 22 7.3 44 12.4 66-3.2 1-6.7 1-11.4 1M681.7 211a365 365 0 0 0-80.3-71.5 262 262 0 0 1-25.9-19.5c-12-9.8-24-19.7-38.2-26.2-16.8-7.6-25.8-18.4-26.4-36.5v-2.4q0-5.9-.7-11.6c-.8-7.6-9.7-11.6-14.4-5.9q-2.5 2.9-5.3 5.3-3.9 3.3-6.9 7.5c-23 36.6-45.8 73.2-62.4 113.3-2.2 5.4-3.7 12.5.9 16.9 3.7 3.6 8.4 1.7 13-.2l2.4-1 19.5-7.4a510 510 0 0 1 39.8-14.4c14.3-4.3 25.2-1.8 35.3 9.5a106 106 0 0 0 38.3 26 575 575 0 0 0 48.5 17.7c14.2 4.7 28.4 9.4 42.3 15.1 17.1 7 33 16.1 32.8 38.5 0 3.5.8 7 6.6 6.5 2.9-8 2.9-16-1.1-24l-5.2-10.6q-5.8-11.9-12.6-25.1M863 66l9 3.2 44.4 20.4 23.1 10.6 1 .5c3.3 1.4 6.8 3 6.8 7 0 4.4-3.5 5-6.7 5.6l-1.8.4-14.5 3.6a385 385 0 0 1-37.5 8.1c-26.6 4-41 14.7-48.3 40.3q-1.4 4.8-3.2 9.5-2.5 6.8-4 13.4c-2.5 12-10.2 13.2-19.5 14l-17.7 2q-14.5 1.7-29.2 2.8c-8 .5-12.6 4.6-15.6 11q-3.5 7.2-7.4 14c-4.8 8.7-9.7 17.4-12.6 27-1.4 4.4-3.4 11-11.7 10.8q3.1-36.1 17.5-69.3a247 247 0 0 1 24.7-41.5A298 298 0 0 0 781 125c11.2-22.5 27.6-40.4 44.2-58.3l5.2-5.7c3.5-3.9 5.9-5 10.6-3.2q11 4.4 22 8.2" fill="black"/><path d="M246.1 725.6c1.6-9.1.2-18.6.6-28a913 913 0 0 1 12-116.4 905 905 0 0 1 14.3-73.6c6-24.5 11.8-49.4 23-72.5 6.8-13.6 10.2-28.8 21.5-40 2.4-2.4 4.4-5.9 8.3-4 4.3 2 4 6.1 2.4 10-3.3 8.3-5.8 17.1-10.5 24.6-14 22.5-18.9 48.2-25 73-7.6 31.6-11 64.3-16.3 96.5-7 42.5-8.6 85.4-10.7 129.3-6.3 1.1-12.4 1.1-19.6 1.1m903.6 0c-6.5-30.4-11.3-61-17.6-91.3-4.1-20-11-39.2-15.4-59-6.8-30.3-19-58.7-30.2-87.4-6.7-17.1-15.2-33.5-22.8-50.3q-9.5-20.8-18.7-41.5c-1.3-3.1-2.7-6.5 1.5-9 4.3-2.6 7.6-.5 9.8 2.7 5 6.9 10 13.8 13.9 21.3 16 32.2 32.7 64.2 43.8 98.4 7.4 22.8 15.5 45.6 21 69.2 3.8 16 8 32 11.7 48q10.8 48.5 14.6 98c-3.4 1-7 1-11.6 1" fill="black"/><path fill-rule="evenodd" clip-rule="evenodd" d="M939 348c-5.8-35.3-5-69 11.3-103 29.1 32.8 28.4 71 27.8 108.3l-.2 15.7c5 1.9 7.7.1 10.1-1.5l2.4-1.4c12.5-5.5 16.3-3.2 18.4 10.7 3.8 25.2 4 50.7 4.2 76.1l.1 11c0 6.9-3.7 11.9-8.5 15.1-13.4 9.1-24 21-34.6 33q-9.8 11.1-20.4 21.4c-9.9 9-26.7 12-37.6 3.7l-10.5-7.9c-15.8-11.8-31.6-23.6-46.5-36.4a49 49 0 0 1-18.1-48.5c1.7-10.4 2.6-21 3.5-31.7q1-12.6 2.6-25.2c2.8-20.7 6.7-23.1 25.5-14.9l5.1 1.6c4.5 1.2 9.2 2.5 13.3 8l2-15c1.6-12 3.1-23.1 3-34.4v-.6c0-1.6 0-3.6-.8-4.2-18-12.2-14.7-28.2-6.7-43.7l1-2a92 92 0 0 0 11.9-31.7c0-1.2 1.1-2.3 2-3.4l1.2-1.4 1.5.3 1.5.4c1.5 10.4 7 18.7 12.4 27.1a83 83 0 0 1 11.5 22.5c2.6 9.9 1 18.2-6.1 24.5s-8 13.6-7 22l.7 6a195 195 0 0 1 1.4 14.3c.9 17.7 3.6 19.9 22.9 16.4a93 93 0 0 0-.3-31.1m29.3 142 3.3-2.7a74 74 0 0 1 7.5-5.9c14-9 20.8-20.6 18.4-38.3-1.3-9.7-1-19.5-1-29.4q.3-7.7.1-15.3V396c0-4.6 0-9.3-4-13a61 61 0 0 0-13.1 5c-6 2.7-12 5.4-18.5 5.4q-11.1 0-22.2.5c-23.6.8-47.2 1.7-69.9-7.8-7.8-3.3-10.9-.8-11.3 7.4a463 463 0 0 1-7.1 59.4l-.1.4c-1.2 6.3-2.5 13.7 3.6 18.8a7267 7267 0 0 0 65.2 52.8c7.8 6.4 15.8 5 21.1-2.6q6.4-8.4 13.9-16 7.2-7.3 14-16.2M948 302.5c1.2.6 2.5 1.3 3.8.8l12-1.5c-8 8.2-12.9 8.3-21.1.8 1.9-1.9 3.6-1 5.3-.1" fill="black"/></g><g id="hair-variant53-f4eaa5d7"><path d="M401.3 231.8c8.1-5.9 18.5-6.8 20.8-19.3 1.3-7.2 9.5.4 14.5-1.3-8.3-22.8-3.5-31.4 17.3-31.1 11.8-21 14.1-22 30.3-10.7 5.3-8.2 2.6-17.4 3-26 .6-8.9 0-18 1-26.7.8-5.4 3.5-11 10-12.1 6-1 10 2.1 13.9 6.8 7.3 9 18.6 14 23.4 29.2 8-24.7-7.1-49.2 14.3-67.2l32.8 25c3.6-7.3 1.2-14.9 1.7-22.1.4-6.8 0-13.7.4-20.5.2-4.3 1.2-9 6-10.3 4-1.1 5.5 3.1 8 5.4 15 14 29.5 28.6 39.4 47.7V71q-.2-7.8 3.2-14.8c4-8 8.6-9.6 15.7-3.2 13 12 24.8 24.5 29.3 42.2a11 11 0 0 0 6.8 8.4c3.7-14.4-2.2-26.8-6.2-39.4-3.3-10.5-4.7-20.4 2.6-30.3 5.1-6.9 10-7.3 13.7-.4 9 16.6 31.4 17 40 33.7C764 68.7 773 84 781.9 99.5c3 5.2 4.5 11.2 4 17.2-.6 8.2 2 15.8 5.1 23.6 3-10.1 12.8-17.8 6.3-31.7 10.1 3.2 14.7 7.6 16.7 14.2 2.7 9 10.2 15.7 12 25.2a7 7 0 0 0 4.1 4.5c31.4 9 36.5 35 40.3 62 3.4 24.4-7.1 45.8-14 68-1.3 4.4-3 8.7-5.4 16 7-4.4 12.3-6.6 16.2-10.4 7-6.9 12-4.3 16.6 2.4 7.6 11.3 5 24 3.4 36-1 8.1 17.1 49.6-14.4 89.5-8.9 11.2-19 17-25.7 28-2.9 4.6-7.9 2.2-9.8-2.6-1.9-4.7-4.2-9.8-4.2-14.7.5-37-15.6-66-43.3-89.4-1-.8-2.7-1.4-2.9-2.4-3.5-19-18.4-14.1-31-15.6-18.4-2.1-37-5.2-50.1-20.6-3.3-3.8-7-4-11.2-4.8-23.3-4.2-46.4 27.3-62.4 9.4-15.4-17.2-33.1-18.1-53.2-15.3-23.2 3.2-41.8 16.8-60.8 28.3C499 328 414.1 358 403.7 440.7a62 62 0 0 0 4 31c4.3 10.5 4.7 21.6 8.5 32 4.3 11.7.2 23.2-6.7 32.6-6 8.4-10 17.7-14.8 26.6-2.2 4.4-4.5 9.3-9.6 8.8-6-.6-7.5-6-8-11.5-2-24.2-6.5-47.8-20.2-68.7-4.1-6.3-7.6-13.4-12.9-18.7-11.4-11.5-13.9-26-15.3-40.8-3.5-36.1 7.2-69 19.6-102.6 13-35 35-64.5 53-97.6" fill="black"/></g><g id="mouth-variant16-f4eaa5d7"><path fill-rule="evenodd" clip-rule="evenodd" d="m124.6 95.7 2.8 10.8c3.4 2.5 5 5.2 1.8 5.3-8 .4-28.1-18-31-26.6-2.3-6.6-2-12.3 5.6-13.1 2.5-.3 4-1.9 5.3-3.5 1.6-1.7 3-3.4 5.9-3-10.2 20.5-9.4 23 9.6 30m54.9-5.4c-4.2 20.3-13.8 27.6-35.3 27h-3c-2.8 0-4.7.2-6-2l.8-2c14.3 3.1 19.4-6.3 24.4-15.6l2.5-4.4 2-3.9q1-2.6 2.6-5c2-2.8 4.7-5.2 8.5-3.8 4.6 1.8 4.3 6 3.5 9.7M135 94c1.3 8.7 6.2 6.1 10.2 2.7 2.6-2.3 4.5-5.4 6.4-8.4l1-1.6c1.7-2.8 3.7-6.6 0-8.9-3.5-2.3-6.8-1-9 3.4q-2.2 4.4-6.2 9.4zm-4.7-23.1 3-2.8c3.5 5.4.9 9.5-2.2 14.3q-1.5 2-2.6 4.3c-6.8-8-2.4-12 1.8-15.8" fill="white"/><path fill-rule="evenodd" clip-rule="evenodd" d="M177.3 66.5c15.6 10.2 18 24 6.8 37.8a45 45 0 0 0-4 6q-2 4-5.2 7.5a43.4 43.4 0 0 1-52 5.6l-4.7-3A84 84 0 0 1 93.1 99C81 82 82 77.4 96.7 62c4-4 8.5-6.9 13-9.8q4.3-2.5 8.2-5.5c10.4-8 25 2.1 27.9 18.1 10.2.5 20.4 1 31.5 1.7m-33.1 50.7c21.5.7 31-6.6 35.3-27 .8-3.7 1.2-7.8-3.5-9.6-3.8-1.4-6.6 1-8.5 3.8q-1.5 2.4-2.7 5-.8 2-2 4l-2.4 4.3c-5 9.3-10 18.7-24.4 15.5l-.7 2.1c1.2 2.2 3 2 5.8 2zm-19.6-21.5 2.8 10.8c3.4 2.5 5 5.2 1.8 5.3-8 .4-28.1-18-31-26.6-2.3-6.6-2-12.3 5.6-13.1 2.5-.3 4-1.9 5.3-3.5 1.6-1.7 3-3.4 5.9-3-10.2 20.5-9.4 23 9.6 30m10.5-1.7c1.3 8.7 6.2 6.1 10.2 2.7 2.6-2.3 4.5-5.4 6.4-8.4l1-1.6c1.7-2.8 3.7-6.6 0-8.9-3.5-2.3-6.8-1-9 3.4q-2.2 4.4-6.2 9.4zm-4.7-23.1 3-2.8c3.5 5.4.9 9.5-2.2 14.3l-2.6 4.3c-6.8-8-2.4-12 1.8-15.8" fill="black"/></g><g id="nose-variant16-f4eaa5d7"><path d="m72.7 175.1.8 3.5c7.2 25.1-.3 33.5-27 30.2-5-.7-9.5-2.3-9.9-8-.5-5.9 4.6-6.1 8.8-7 4.6-.8 9-2 15.3-3.4a154 154 0 0 1-8.4-36.6c-2-15.8.7-30.4 5.8-45 2-5.7 5.6-10.6 12-7.9 5.6 2.4 3.2 8.1 1.4 12.4-8.6 20.4-7 40.7 1.2 61.8" fill="black"/></g><g id="eyes-variant04-f4eaa5d7"><path d="M212.2 70q19.4.3 37.6 2.4c3 .4 5 3.3 5 6.7q-.1 5-4.7 7c-11.2 4.8-22 8.2-33.7.2-6.5-4.5-9-8.7-4.2-16.4M52.4 64.4c7 0 7.8 3.8 7 8.5-2 10.2-20 22.4-30.4 20.5-5.9-1-10.5-4-10.7-10.5-.2-6.7 4.8-8.2 10.3-8.4 9-.3 15.8-5.2 23.8-10M20 24c5-12 8.8-29.4 24-22.5C64.7 11 58 32.2 53.7 49 52 55.2 39.2 64.8 35.4 63.2 19.1 56.4 16.2 41.5 20 24m226.8 36.8c-8.6 7.5-17 7.6-22.2-1.5-9-16-8.6-32.8 3.3-47.2 2.5-3 13.8-3.6 16.3-1q20.8 22.7 2.6 49.7" fill="black"/></g><g id="eyebrows-variant09-f4eaa5d7"><path d="M56.5 41.8Q47.3 41 40 41q-8.4-.5-9-8.8c-.5-5.3 3-7 7.5-8.5 8.6-3 17.1-.5 25.2.7 15.4 2.1 31.5-.6 46.4 6.3 5 2.3 8.3 4.7 6.4 10.3-1.8 5.2-6.1 5.2-10.6 4.1-16-3.7-32.4.9-49.4-3.3M250.8 32c17.2.9 33.1-5 49.3-1.2 4 1 9 .7 8.8 7 0 6.2-4.7 7.4-9.5 8-19 2.2-38 4-56.9 6.4-5.7.7-11 .1-12.6-5.6-1.7-5.7 4-7.8 8-10 3.5-2.1 7.8-3.1 12.9-4.7" fill="black"/></g><g id="gesture-waveOkLongArms-f4eaa5d7"><path d="m14 1186.2 235.4 16.5s68.7-71.2 47.4-271.7c-3-29 27.8-209 29.3-222.7 4-36 21.3-104.9 40.1-131.2 85.3-119.3 74-138.5 79.3-166.4 5.7-29.4 15.4-80.4 21.3-100 2.7-9 22.5-72.8 4.8-75.8-84.4-14.2-65.4 148.2-97.5 133.2-49-23-59-87.3-59-87.3s-64.7-175.3-99-177.3c-14-.9 2.1 88.8 2.1 88.8s-72.3-95.6-89-95.7c-16.7 0 8 71.1 8 71.1s-34.8-30.2-48.7-20.8c-18.4 12.5 67 155.3 53.2 155.3-10.5 0-28.8-35.7-41.5-42.3-21.5-11.2-29.2-13.5-31.3 6.5-2.1 21.2 42.6 88.2 63 125.7 10.6 19.4 73.2 132 86.6 162.7 16.8 38.8-24.5 99.8-41.6 129.3-17 29.6-86.2 202.4-108.8 233.3-22.7 30.9-45.8 81.3-55.9 135.6-11.1 60.1 1.8 133.2 1.8 133.2" fill="white"/><path fill-rule="evenodd" clip-rule="evenodd" d="M339.5 676.1q-2 11-4.3 21.8l4.8-28.2a6434 6434 0 0 0-12.6 71q-2.5 15-4.7 30.2c-5.7 40-9 80.4-12.3 120.7a72 72 0 0 1-3 13.7c-1.7 6.3-3.5 12.6-2.7 18.6 1.4 10.8 1.8 21.6 2.2 32.5.6 15.8 1.2 31.7 5 47.3a70 70 0 0 1 1.2 21.5c-2.6 41.7-9 82.4-24.5 121.6-8.2 20.8-18 40-34.2 56.2l-11.7-.7c3.8-10.4 9.6-19.7 15.5-29q6.1-9.5 11.4-19.6 14-28.6 19.2-60l.1-.8c3.3-19.3 6.7-38.7 7-58.5.2-12.4-.3-24.4-8-36l-9.8 27.5c-21.8 61.5-43.4 122.5-89.7 172.5a60 60 0 0 1-17-1c33-33.6 55.6-73.2 71.4-115.8l5.5-14.8c13.2-35.3 26.5-70.8 33.2-108.3q2.7-14.5 6.3-28.8c3.3-14 6.6-28 8.2-42.3l3.8-32.4c6.6-58 13.2-116 24.1-173.5a423 423 0 0 1 45.9-127.2c9.4-17 20-33.1 30.7-49.3q11.8-17.6 22.7-35.5l5-7.4c5.4-7.6 10.8-15.2 10.4-25.5-1.6-41.2 9-80.4 19.4-119.6l4.8-17.8c4.1-16 8-32.2 7.7-49-.1-10.2-5.5-14-13.7-9.2a115 115 0 0 0-45.8 57.3 209 209 0 0 0-12.5 61c-1.3 15.7-12.7 21.7-27.4 16.3-17.6-6.4-27.6-20.8-37.5-35l-.8-1a171 171 0 0 1-19.7-43.8q-2.9-9-6.4-17.8a1385 1385 0 0 0-58-130.3c-7.2-14-14.7-28.8-31.9-36.2l2 18c4.6 42.6 9 84.4 22.8 124.8l-6.5 2.7c-24.8-57.6-53.8-112.2-101.5-155a26 26 0 0 0-2.6 18.5c3.7 23 13.8 43.4 24 63.8l10.4 21.8c4.5 10 9.8 19.8 15 29.5q5.3 9.6 10.1 19l.3.6c2.4 4.8 5 10.1.7 15.3-4.3-.7-5.6-3.3-6.8-5.7l-.3-.5a467 467 0 0 0-35-59.4c-11.7-17.5-23.4-35.1-39.8-49l-1.9-1.6c-4.4-4-9-8-14.4-3.7-6.3 5-4.8 13.3-1.6 20l14.1 28.5q9.4 18.7 18.4 37.7l7 15q15.1 32 29.5 64.4c1.9 4.4 3.2 9-3.7 13.3a186 186 0 0 1-30-32c-12.6-15.7-25.3-31.4-44-41-6.5 8.1-8.6 15.5-2.3 26a1437 1437 0 0 1 27.6 48.8l18.2 33q8.3 14.8 15.3 30.3c6.6 13.9 13.1 27.8 21.6 40.6a683 683 0 0 1 53.5 100.6c13.8 31.2 9 61-2.7 90a916 916 0 0 1-50.6 100.5 598 598 0 0 0-35 79.5l-4.3 11.4-1.6 4.1a1068 1068 0 0 0-27.2 75.8l-5.7 18.4a558 558 0 0 0-17.9 66 426 426 0 0 0-5.8 100.3l.6 13.2c1.6 34 3.1 68 21.5 98.2l-34.6-2c-41.8-86.5-20.3-170.4 11.8-253.8a104 104 0 0 0-24.8 43.8q-10.7 32.8-17.8 66.4a342 342 0 0 0-2 137q.8 1.5.8 3.8-6 1-11.8-.7l-.6-1.3c-3.1-7.4-6-14-6.6-21.4a526 526 0 0 1-2-76.3c2.4-38.4 13.7-75 25.2-111.5q1.1-3.3 2-6.8c1.4-5.5 2.8-11 5.8-16A4106 4106 0 0 0 71 890q11.3-20 23-39.8c13.7-23.7 24-49.1 34.2-74.6 8.4-21 16.9-42 27.3-62q9.5-18.7 18.1-37.8c7.8-16.9 15.6-33.8 24.7-49.9 14.1-24.8 18.5-49.6 10.6-76.5-7-23.7-19.5-44.7-32-65.7l-12.3-21.1q-6.9-12-14-23.8c-8-13.1-16-26.2-22.6-40.1-10.4-22-22.2-43.2-34-64.4l-19-34.5c-6.4-11.9-12.9-24-10.5-38.2 3-18 13.5-22.4 29.4-13.7 6.6 3.6 12.3 8.5 18 13.4q6.3 5.6 13.2 10.5c-4.1-4.9-6-10.7-8-16.4a72 72 0 0 0-4-10.5q-18-35.6-33.7-72.5a27 27 0 0 1 6.5-30.7c7.6-6.7 17.3-5 25.7 1.3q3.5 2.4 7.8 4l3.6 1.7a57 57 0 0 1-6.4-38.4c.6-6.8 1.1-13.6 8.4-16.6q12-4.8 22.5 4.2c16.2 13.8 29 30.3 42 46.9l1.6 2q4.4 5.5 8 11.4c4.6 6.7 9.1 13.4 15.2 19.3-5.5-19.5-7.2-39-8.9-58.6l-.1-1.7-.4-3.3c-.7-5.8-1.4-11.2 5-14.8 7-4 13.3-.6 19 3.4 16.5 11.5 26.7 28 35.6 45.5a940 940 0 0 1 36.2 82.4q4.6 11.6 9.6 23c7.1 16.9 14.3 33.7 19.6 51.4a108 108 0 0 0 37.9 55c9.5 7.3 17.6 4.2 19.4-6.6l1.5-9.1c3.9-23.5 7.7-46.7 19.8-68.7 10-18.2 21-33.3 38.4-43.9 15.3-9.3 30.8-5.5 34.6 8.3a56 56 0 0 1 1.8 20.2 394 394 0 0 1-14.4 64.2q-4.8 16.5-9 33.3l-3.3 12.9a111 111 0 0 0-5.9 42q2.2 17.9-2 35.5c-5.3 20.5-16.7 37.7-28 55a299 299 0 0 0-19.2 31.6c-7.3 14.8-16.2 29-25 43.1q-5.9 9.4-11.5 18.8c-15.1 25.1-20.2 52.4-25.4 79.7M47.3 1055.8q0 1.3-.3 2.5c-4 30.6 1.2 58.4 7 86.3-4-20.7-3.8-41.5-3.6-62.4q.1-16.2-.3-32.4c-2.6 1.5-2.7 3.8-2.8 6" fill="black"/><path d="M273.6 406.3c1.5 24.2 6 46.1 19 66.5 6.3-5.2 5.6-9.6 4.2-13.5-13.4-37.4-9.8-76.3-10.2-114.9l.2-6.4c.2-4 0-7.9-5.5-8.1s-6.3 4.2-6.5 7.8c-1 14.4-2.2 29-1.4 43.3.4 8 .5 16.1.2 25.3M246 540.2c-4.7-3-9-4.8-11.7.1-2 3.4 1.3 5.8 3.5 8.5a92 92 0 0 0 26.7 24.6c8.1 4.7 16 4.5 24.3 1.2q4.7-1.8 4.5-6.9c-.4-4-3.4-4.3-6.5-4.4-17.3-.6-29.4-10.2-40.9-23.1M228 397c-5.5-2.3-10.3-3.6-14.8.2 5.8 10.8 28.6 23.9 39.5 22.5-2.5-13.5-15.4-15.6-24.6-22.8" fill="black"/><path d="M1721.2 1194h-235s-39.6-69.7-42-145.2c-.9-24.9 11.2-81.4 6.6-222-3.2-99.7-19.3-218.5-32.2-248.4-9.8-22.6-44-67-79.1-87.4-43.4-25.3-59-78.3-58.2-99.2s10.3-47.6 26.3-47.6 19.7 29.3 26 58.9c23.5 109.3 84.3 42.8 76.4-15-4.6-32.6-24-66.3-45.4-70.9-22.2-4.8-40.7-2.6-45.7-10.5s1.5-31.8 18.7-37c17.1-5.3 37.2-16.3 67.7 7.6s28.1 25.8 29 6.6c1.7-33-40.7-105.3-48.3-128.2-7.7-22.9-.4-32 11-38.2s40.3 35.3 49.2 49.9c17.4 28.8 32.3 119.9 45.2 114.2s7.1-68 3.7-99.5c-3.7-33.7-12.2-76.2 4.5-75.2s31.4 60.8 42.8 90.8c17 44.7 1 152.4 17.7 150.5s24.3-66.4 23.9-76.9-1.1-55.9 12-61.8c22.1-9.8 32 53.4 33 73.5.8 21.3-10.1 62.8-18.2 83.3s-37.5 126.6-52.6 156.4c-19.2 37.8-1.2 75.3 14 105.8 15.3 30.5 93.1 259.2 113.9 291.3 20.7 32.2 40.8 83.9 47.7 138.7 7.5 60.7-12.6 135.5-12.6 135.5" fill="white"/><path fill-rule="evenodd" clip-rule="evenodd" d="M1410.9 583.9a257 257 0 0 1 19.2 77.4l13 135.4q.5 15.3.5 30.7c.2 19.7.4 39.3 3 58.6 2.7 21.7 1.6 43 .5 64.2l-.8 15.6c-.4 9.7-3 19-5.5 28.3a111 111 0 0 0-5.5 33c1.3 36.9 5 73.3 17 108.8 7 21 15.6 40.8 30.9 58h11.7a153 153 0 0 0-13.6-29.5q-5.7-10-10.4-20.7a217 217 0 0 1-15.8-62.3c-2.9-28.7-5.6-57.4-.8-86.4q1.4-6.7 3.4-12.4 1.5-4 2.3-7.6l1.8 7.1c18.4 73.4 37 148 87.6 211a59 59 0 0 0 16.8 0c-18.3-23.3-36-46.6-46.7-73.4a606 606 0 0 1-28.1-84l-7.6-30a627 627 0 0 1-12.1-51.3 1055 1055 0 0 1-15.3-149.5l-.4-17.2c-.3-15-.5-30.2-2.7-45.2q-7.7-55.5-14.8-110.8l-1.8-13c-3.4-26-10.9-51-28.3-70.6-23.1-26-47-51.5-73-74.6a138 138 0 0 1-42.6-69.2c-4.6-16.7 1.3-31 8-45.4 1.4-3.2 4-6 7.9-5.4s8 2.8 8.1 7c.3 7.3 2.3 14.3 4.3 21.2q2.4 8 3.8 16.2c2.8 21.2 12 39.8 24.5 56.5 11 14.5 42 15.5 50.4 2.5 12.8-20 21.3-40.7 19.5-65.6-2.7-35.3-33.5-92-83.8-86.7l-.6.1c-3.5.4-7.7.8-9.7-3.1-2.3-4.4 0-9.4 2.6-11.8q2.8-2.6 5.2-5.4c3.4-3.7 6.7-7.4 11.6-9.7 18.6-8.8 44.7-2.5 62.7 15.4a121 121 0 0 1 33.4 60.3c.9 4 2.1 10.1 9 8 6.4-1.9 5.5-8.3 4.5-13.1q-1.6-7.8-3.7-15.4-1.9-6.4-3.3-13l-6.7-32.3-7.3-35c-3.8-17.4-11-33.5-18.4-49.6q-5.7-12.2-10.7-24.8-2.2-5.5-5-11c-4.3-9-8.8-18-8.3-28.5.6-11 4.3-12.9 13.4-7.2a69 69 0 0 1 23.2 26.7 433 433 0 0 1 40.4 94.3c1.8 7 4.4 13.7 7 20.5 6.1 16.1 12.3 32.4 8.6 50.7-.9 4.7-.8 11.3 6.5 11.7s8-5.4 8.6-10.6l.1-1c1.5-11.7 2-23.3 2.6-35a381 381 0 0 1 3.4-41.3c1.8-11.7 1.3-23.7-.6-35.7-1.5-9.3-2.2-18.8-3-28.2-1-13-1.9-26-5-38.9a44 44 0 0 1 1-23.7 243 243 0 0 1 29.4 60.1c10.3 30.3 13 62.3 14.7 94.3 1.3 23.8 3.7 47.5 6 71.3l1 11.3c.6 5.7 1.2 12 7.4 15 4.7-.5 6.7-3.7 8.4-7.2 18.6-38.8 32.3-78.7 29.2-122.6a33 33 0 0 1 8-23.3c4 2.3 5.1 5.7 6 8.9q1.2 5.5 2.7 11a587 587 0 0 1 9.2 41q2.2 13.6-.5 26.8a1343 1343 0 0 1-64.7 203.6c-6.7 17-9 34.2-11.3 51.7l-.4 2.7a60 60 0 0 0 4.5 30l12.6 31.5c13.4 33.9 26.8 67.7 43.2 100.3 12.3 24.6 20.6 51 28.8 77l4.6 15q.8 2 1.3 4a1113 1113 0 0 1 22.8 77.5l4.4 17.7c5.6 22.5 11.2 45 14 68 4.2 32.9 3.8 66 0 99.2l-1.4 13.8c-3.5 34.1-7 68-27.2 97.4h34.6l6-13a205 205 0 0 0 14.7-37.3c11-43.8 11-87.2 1.6-131q-3.8-16.5-8.9-32.5a279 279 0 0 1-11.6-48.7c18.1 25.7 24.7 55 31.3 84.3l1.5 6.6c8.5 37.5 9.3 75.8 8 114a236 236 0 0 1-8.8 50l-1.7 6.7q6 1.4 11.8 0l.7-1.4a71 71 0 0 0 7.8-20.8 512 512 0 0 0 6.5-76.1c0-38.4-9.2-75.7-18.6-112.8l-1.5-6.9a59 59 0 0 0-4.8-16.2q-16.9-32.7-33-65.7l-21-42c-12.3-24.5-21-50.5-29.8-76.6a703 703 0 0 0-23.6-63.4c-9-20-17-40.4-25.2-60.9l-11.9-29.3-4.2-9.8c-6.1-14.2-12.3-28.4-12.4-44.5-.2-27.5 9.8-52.2 19.7-76.8q6-14.3 11-28.8 4.1-12 8.7-23.9a376 376 0 0 0 14.1-42 365 365 0 0 1 5.7-19.4 278 278 0 0 0 7-25.8q2-9 4.3-17.9c5.6-22.3 11.1-44.5 3.9-68.3-2-6.4-3-13-4.2-19.7-1.5-8.9-3-17.7-6.4-26-4.2-10-10-20.9-22.1-20-11.9 1-15 12.7-17.2 22.7q-1.6 8-2.3 16l-.8 8-1.8 16.7c-2.1 21.2-4.2 42.7-15.2 63.3l-1.6-11.3c-1.2-7.6-2.3-14.7-2.4-21.8-.3-31.6-2-62.7-9.9-93.7-8.3-32.4-22-62.1-38.2-91-4.2-7.3-11.6-8.1-19.2-6.4-7.8 1.8-8.9 8-9.1 14.9-.7 23 .5 46 6.3 68.5 6.7 26 4.7 52-.1 79.5-4-4.6-4.6-9.6-5-14.3-.4-3-.7-5.9-1.8-8.6q-8.2-19.4-15.6-39l-11.2-28a157 157 0 0 0-36.2-54.6c-7.7-7.4-17.6-12.4-28-7.2-11 5.6-14.7 16.5-12.6 28.4 1.7 9.6 3.8 19.1 8 28.1l7.4 15.9c7.5 15.8 15 31.7 21.4 48a215 215 0 0 1 13.4 52c-3.8 1-5.5-.3-6.9-2-15.4-18.3-34.6-26-59-27-19.6-.8-44.7 19.3-50.5 36.6-4.1 12.4 7.3 28 20.2 27.9h1.2c11.9-.1 23.6-.2 34.4 6.8 26.5 17.2 35.3 43.3 37 72.9 1 17.6-1.9 34-17.9 44.9-7.5 5-17 8.1-23 .3a107 107 0 0 1-24.2-57 121 121 0 0 0-11.6-38.4c-4-7.1-9.2-10.7-17.2-11.1a29.4 29.4 0 0 0-30 24c-8.4 44.2 2.5 82.5 35 114.1q37.5 36.5 74.6 73.5a103 103 0 0 1 21.6 34.2m278 547q.1-1.5.5-3a548 548 0 0 0 6.1-88c8 37.6 1 72.7-9.4 107.5l.4-3 1-6.5z" fill="black"/></g><clipPath id="clip-f4eaa5d7"><rect width="1744" height="1744" rx="0" ry="0"/></clipPath></defs><g clip-path="url(#clip-f4eaa5d7)"><use transform="translate(532 491)" href="#head-variant01-f4eaa5d7"/><use transform="translate(151 1029.3)" href="#clothes-variant25-f4eaa5d7"/><use transform="translate(266 221.9)" href="#hair-variant53-f4eaa5d7"/><use transform="translate(791 872)" href="#mouth-variant16-f4eaa5d7"/><use transform="translate(901 669)" href="#nose-variant16-f4eaa5d7"/><use transform="translate(805.2 732.6)" href="#eyes-variant04-f4eaa5d7"/><use transform="translate(775 657)" href="#eyebrows-variant09-f4eaa5d7"/><use transform="translate(0 559)" href="#gesture-waveOkLongArms-f4eaa5d7"/></g></svg>