<svg xmlns="http://www.w3.org/2000/svg" viewBox="0 0 560 560" fill="none" shape-rendering="auto" aria-hidden="true"><metadata xmlns:rdf="http://www.w3.org/1999/02/22-rdf-syntax-ns#" xmlns:xsi="http://www.w3.org/2001/XMLSchema-instance" xmlns:dc="http://purl.org/dc/elements/1.1/" xmlns:dcterms="http://purl.org/dc/terms/"><rdf:RDF><rdf:Description><dc:title>Notionists</dc:title><dc:creator>Zoish</dc:creator><dc:source xsi:type="dcterms:URI">https://heyzoish.gumroad.com/l/notionists</dc:source><dcterms:license xsi:type="dcterms:URI">https://creativecommons.org/publicdomain/zero/1.0/</dcterms:license><dc:rights>Remix of “Notionists” (https://heyzoish.gumroad.com/l/notionists) by “Zoish”, licensed under “CC0 1.0” (https://creativecommons.org/publicdomain/zero/1.0/)</dc:rights></rdf:Description></rdf:RDF></metadata><defs><g id="mouth-variant16-9917365a"><path fill-rule="evenodd" clip-rule="evenodd" d="m124.6 95.7 2.8 10.8c3.4 2.5 5 5.2 1.8 5.3-8 .4-28.1-18-31-26.6-2.3-6.6-2-12.3 5.6-13.1 2.5-.3 4-1.9 5.3-3.5 1.6-1.7 3-3.4 5.9-3-10.2 20.5-9.4 23 9.6 30m54.9-5.4c-4.2 20.3-13.8 27.6-35.3 27h-3c-2.8 0-4.7.2-6-2l.8-2c14.3 3.1 19.4-6.3 24.4-15.6l2.5-4.4 2-3.9q1-2.6 2.6-5c2-2.8 4.7-5.2 8.5-3.8 4.6 1.8 4.3 6 3.5 9.7M135 94c1.3 8.7 6.2 6.1 10.2 2.7 2.6-2.3 4.5-5.4 6.4-8.4l1-1.6c1.7-2.8 3.7-6.6 0-8.9-3.5-2.3-6.8-1-9 3.4q-2.2 4.4-6.2 9.4zm-4.7-23.1 3-2.8c3.5 5.4.9 9.5-2.2 14.3q-1.5 2-2.6 4.3c-6.8-8-2.4-12 1.8-15.8" fill="white"/><path fill-rule="evenodd" clip-rule="evenodd" d="M177.3 66.5c15.6 10.2 18 24 6.8 37.8a45 45 0 0 0-4 6q-2 4-5.2 7.5a43.4 43.4 0 0 1-52 5.6l-4.7-3A84 84 0 0 1 93.1 99C81 82 82 77.4 96.7 62c4-4 8.5-6.9 13-9.8q4.3-2.5 8.2-5.5c10.4-8 25 2.1 27.9 18.1 10.2.5 20.4 1 31.5 1.7m-33.1 50.7c21.5.7 31-6.6 35.3-27 .8-3.7 1.2-7.8-3.5-9.6-3.8-1.4-6.6 1-8.5 3.8q-1.5 2.4-2.7 5-.8 2-2 4l-2.4 4.3c-5 9.3-10 18.7-24.4 15.5l-.7 2.1c1.2 2.2 3 2 5.8 2zm-19.6-21.5 2.8 10.8c3.4 2.5 5 5.2 1.8 5.3-8 .4-28.1-18-31-26.6-2.3-6.6-2-12.3 5.6-13.1 2.5-.3 4-1.9 5.3-3.5 1.6-1.7 3-3.4 5.9-3-10.2 20.5-9.4 23 9.6 30m10.5-1.7c1.3 8.7 6.2 6.1 10.2 2.7 2.6-2.3 4.5-5.4 6.4-8.4l1-1.6c1.7-2.8 3.7-6.6 0-8.9-3.5-2.3-6.8-1-9 3.4q-2.2 4.4-6.2 9.4zm-4.7-23.1 3-2.8c3.5 5.4.9 9.5-2.2 14.3l-2.6 4.3c-6.8-8-2.4-12 1.8-15.8" fill="black"/></g><g id="nose-variant10-9917365a"><path d="M69.4 95c-.6-14.1-4.3-27.2.4-40.1 1.2-3.3 1.2-8.6 6.7-8 5.5.8 4.5 5.6 4 9.2-4.6 30.7 7 58.6 15 87 2.7 9.3 6.6 18.2 6.1 28.4-.8 16.4-11.3 26.4-27.4 23.6a30 30 0 0 0-17.2 1.8c-14 5.6-26-5-39.6-5.3-4 0-6.6-7.3-7-12.7 0-2.5.4-5.2 3.5-6 2-.8 4.4.2 5.3 2.2 3.6 7 9.3 3.3 14.4 4.2 11.9 2 23 1.3 34.8.9 5.8-.3 11.7 3.3 17.2-1.7 5.8-5.2 4-11.3 2.2-17.6C81.7 139.3 72 118.7 69.4 95" fill="black"/></g><g id="eyes-variant01-9917365a"><path d="M224.4 58.4c-4.2-9.5-9.9-15.2-19.8-15.7-6-.3-7-5.1-8.9-9.8 2-1.5 3.5-3.7 5.3-3.8q31.8-2.6 63.5-.1c6 .4 9.3 8 3.2 10.4-10 4-12.5 13.2-18.5 19.8-8.2 9-15.2 9.1-24.8-.8m-191-29.6c12.2.7 23.1 1 34 2 3.6.3 8 1.8 8 6.7 0 5.6-4.6 5.2-8.3 5.1-6.3 0-9.7 2.7-12.5 8.6-3.4 7.4-6.9 15.3-18 14.8-10.5-.5-15.1-7.2-18.1-15.2-2.2-5.7-5-8.4-11-8.2-3.4.1-7.1-.2-7.5-4.9-.4-5 3-6 7-7.2a68 68 0 0 1 26.4-1.7" fill="black"/></g><g id="eyebrows-variant10-9917365a"><path d="M103.9 38.7C81.4 47 59.2 43 37.3 43c-3 0-6.3-2.2-9.2-4-2.7-1.5-4.4-4-3-7.4q2.1-5.4 8-4.5a188 188 0 0 0 79.9-7c5-1.6 13.3-8 16.2 1.6 3 10.2-6.8 10.8-13.4 13zm155.6-5.6c-7.2 2.7-13.5 5.3-19.9 7.6-2.4.8-5.1.9-6.8-1.8-1.6-2.4-1-4.4.5-7 13.4-22 56.2-24.9 71-4.4q2.8 3.6 4.2 7.8c1.3 4.1 2.4 9.2-2.2 11.5-4.3 2.2-7.7-1.1-10.7-4.5-14-15.5-17-16.3-36-9.2" fill="black"/></g><clipPath id="clip-9917365a"><rect width="560" height="560" rx="0" ry="0"/></clipPath></defs><g clip-path="url(#clip-9917365a)"><rect width="560" height="560" fill="#ffffff"/><use transform="translate(136 329)" href="#mouth-variant16-9917365a"/><use transform="translate(246 126)" href="#nose-variant10-9917365a"/><use transform="translate(150.2 189.6)" href="#eyes-variant01-9917365a"/><use transform="translate(120 114)" href="#eyebrows-variant10-9917365a"/></g></svg>