<svg xmlns="http://www.w3.org/2000/svg" viewBox="0 0 560 560" fill="none" shape-rendering="auto" aria-hidden="true"><metadata xmlns:rdf="http://www.w3.org/1999/02/22-rdf-syntax-ns#" xmlns:xsi="http://www.w3.org/2001/XMLSchema-instance" xmlns:dc="http://purl.org/dc/elements/1.1/" xmlns:dcterms="http://purl.org/dc/terms/"><rdf:RDF><rdf:Description><dc:title>Notionists</dc:title><dc:creator>Zoish</dc:creator><dc:source xsi:type="dcterms:URI">https://heyzoish.gumroad.com/l/notionists</dc:source><dcterms:license xsi:type="dcterms:URI">https://creativecommons.org/publicdomain/zero/1.0/</dcterms:license><dc:rights>Remix of “Notionists” (https://heyzoish.gumroad.com/l/notionists) by “Zoish”, licensed under “CC0 1.0” (https://creativecommons.org/publicdomain/zero/1.0/)</dc:rights></rdf:Description></rdf:RDF></metadata><defs><g id="mouth-variant15-961731a1"><path d="M83 84.8c-2.4 17.7 16.1 32.5 32.4 26-4.3-15.8-20.8-17.4-32.4-26" fill="white"/><path fill-rule="evenodd" clip-rule="evenodd" d="M72.3 101.8c12.4 23.4 36 29.9 61.7 16.3 10.5-6.4 14.9-16.6 18.7-26.1a27 27 0 0 0-1.5-24.2C137.2 42 120 41.3 99.3 45.2c-22.5 4.3-37.8 36.4-27 56.6m43.1 9c-16.3 6.5-34.8-8.3-32.4-26q5.7 3.9 11.9 6.7c8.9 4.3 17.6 8.5 20.5 19.3" fill="black"/><path d="M67 36c8.2 3.7 7.7 9.3 4.2 15-2.6 4.5-6.5 7.2-11.7 4-4.8-3-3.7-7.1-1-11 2.2-3 3-7.3 8.5-8" fill="black"/></g><g id="nose-variant08-961731a1"><path d="M74.2 187A31 31 0 0 0 86 171.1a23 23 0 0 0-4.4-22.8c-5.3-6-12.4-3.7-19-1.7-4.2 1.3-9.5 5.3-12.2-1.2-2.4-5.6 1.8-10 6-12.7a28 28 0 0 1 26.8-2.8c11.9 4.7 16.4 14.5 18.1 25.8 6.7 44.3-31 54.4-60.7 52.5q-3.2-.3-6-2.2c-3.3-2.2-8.6-3.8-7.1-9.1 1.6-6 6.7-5 11.6-4q17.9 3.3 35-5.8" fill="black"/></g><g id="eyes-variant03-961731a1"><path d="M214 23q19.4.5 37.7 2.6c3 .3 4.9 3.3 5 6.6q-.1 5-4.8 7c-11.1 4.9-22 8.3-33.7.2-6.5-4.4-8.9-8.6-4.2-16.3M59.5 25.8c6.2 3.3 5.2 7 2.1 10.8-6.5 8-28.2 10-36.4 3.5-4.7-3.8-7.3-8.6-4.4-14.4 3-6 8.2-5 13-2.5 8 4 16.4 3 25.7 2.6" fill="black"/></g><g id="eyebrows-variant11-961731a1"><path d="M101.1 42.8c-8.7-12.1-25.2-16-38.8-12.5-12 3.2-21.7 11-33.6 14.4-4 1.1-7.5 2.7-9.7-2.1-1.9-3.9-1.5-7.4 2.2-10.3C40 18 74.8 5.4 99.9 19.4a46 46 0 0 1 15 15c3.3 4.7 4.5 11.6 0 15.1-5.9 4.6-10-1.2-13.8-6.7m185.9 6c-9.7-6.5-18.9-7.3-28-.8-3.2 2.3-6.7 4.8-10 .8s-2.4-8.6 1.3-12.6c5.6-6.1 13.2-7.1 20.8-8a33.7 33.7 0 0 1 36.7 30c.2 4.3 0 9.1-5.2 10.3-4.7 1-8.3-1.7-10.2-5.9s-3.2-8.7-5.4-13.8M190.6 30c5.2-6.6 8-15 14.5-20.6 2.5-2.1 4.4-5.5 8.5-3.2 3.7 2.1 4 5.9 3 9q-4.7 13-10.7 25.4c-2 4-7 5.5-11 4.2-6.6-2-5-7.9-4.4-13.9z" fill="black"/><path d="M190.7 29.8c-2 4.2-3.6 8.5-5.7 12.6-1.6 3.1-4.2 5.8-8 4.6-4.6-1.4-5-5.3-4-9.3q1.8-6 4-12c2-4.7 1.5-12.4 9.3-11.3 8.4 1.3 4.4 8.4 4.4 14.4z" fill="black"/></g><clipPath id="clip-961731a1"><rect width="560" height="560" rx="0" ry="0"/></clipPath></defs><g clip-path="url(#clip-961731a1)"><rect width="560" height="560" fill="#ffffff"/><use transform="translate(136 329)" href="#mouth-variant15-961731a1"/><use transform="translate(246 126)" href="#nose-variant08-961731a1"/><use transform="translate(150.2 189.6)" href="#eyes-variant03-961731a1"/><use transform="translate(120 114)" href="#eyebrows-variant11-961731a1"/></g></svg>