<svg xmlns="http://www.w3.org/2000/svg" viewBox="0 0 560 560" fill="none" shape-rendering="auto" aria-hidden="true"><metadata xmlns:rdf="http://www.w3.org/1999/02/22-rdf-syntax-ns#" xmlns:xsi="http://www.w3.org/2001/XMLSchema-instance" xmlns:dc="http://purl.org/dc/elements/1.1/" xmlns:dcterms="http://purl.org/dc/terms/"><rdf:RDF><rdf:Description><dc:title>Notionists</dc:title><dc:creator>Zoish</dc:creator><dc:source xsi:type="dcterms:URI">https://heyzoish.gumroad.com/l/notionists</dc:source><dcterms:license xsi:type="dcterms:URI">https://creativecommons.org/publicdomain/zero/1.0/</dcterms:license><dc:rights>Remix of “Notionists” (https://heyzoish.gumroad.com/l/notionists) by “Zoish”, licensed under “CC0 1.0” (https://creativecommons.org/publicdomain/zero/1.0/)</dc:rights></rdf:Description></rdf:RDF></metadata><defs><g id="mouth-variant08-97173334"><path d="M155.6 136.2c-8.8 0-16.5.5-24-.4-5.1-.6-10.4-3.4-9-10 1.4-5.5 6-6 11.3-5.2 6.6 1 13.4 1.2 20.2 1.5 4 .2 8 .8 9.2 5.2 1.5 5.4-2 7.7-7.7 8.9" fill="black"/><path d="M179.7 91.3c8.6 7.2 17 7.6 26.6 1.3 10-6.6 12.9-15.7 13.3-28A686 686 0 0 1 67.5 54.3c5 6.8 12.4 3.6 13.8 11.8 3.5 19.1 12.4 23.6 30.6 17.1 5.6-2 9.2-2 12.7 3.8q16.3 27.6 42.1 8.8c3.5-2.4 6.4-5.7 13-4.6" fill="white"/><path fill-rule="evenodd" clip-rule="evenodd" d="M206.9 52.5c-3.8.3-7.6.6-11.5.1-10.4 1-20.2-.1-29.8-1.3q-8-1-15.9-1.4c-27-1.3-54.1-3.6-81.2-6l-1.9-.2c-5.2-.6-10.5-1.1-13 3.7-3 6.1 0 12.6 5.2 17a72 72 0 0 1 16.6 20c7 12.3 18.7 17 32.4 14.7 6-1 9.7.7 13.5 4.4a38.7 38.7 0 0 0 52.9 3.2c3.8-3 7.3-4.6 11.4-2.3 13.2 7.4 24.1.6 34.4-6 15.1-9.5 18.3-32.3 6.2-42.3-5.7-4.7-12.3-4.2-19.3-3.6m-.6 40.1c-9.7 6.3-18 5.9-26.6-1.3-5.6-1-8.6 1.3-11.5 3.5l-1.5 1.1c-17.3 12.4-31 9.7-42-8.8-3.6-5.8-7.2-5.8-12.8-3.8-18.2 6.5-27.1 2-30.6-17.1-.8-4.6-3.4-5.6-6.5-6.8-2.4-1-5.1-2-7.3-5 51.6 9.6 101.2 12 152 10.1-.3 12.4-3.1 21.5-13.2 28.1" fill="black"/></g><g id="nose-variant10-97173334"><path d="M69.4 95c-.6-14.1-4.3-27.2.4-40.1 1.2-3.3 1.2-8.6 6.7-8 5.5.8 4.5 5.6 4 9.2-4.6 30.7 7 58.6 15 87 2.7 9.3 6.6 18.2 6.1 28.4-.8 16.4-11.3 26.4-27.4 23.6a30 30 0 0 0-17.2 1.8c-14 5.6-26-5-39.6-5.3-4 0-6.6-7.3-7-12.7 0-2.5.4-5.2 3.5-6 2-.8 4.4.2 5.3 2.2 3.6 7 9.3 3.3 14.4 4.2 11.9 2 23 1.3 34.8.9 5.8-.3 11.7 3.3 17.2-1.7 5.8-5.2 4-11.3 2.2-17.6C81.7 139.3 72 118.7 69.4 95" fill="black"/></g><g id="eyes-variant04-97173334"><path d="M212.2 70q19.4.3 37.6 2.4c3 .4 5 3.3 5 6.7q-.1 5-4.7 7c-11.2 4.8-22 8.2-33.7.2-6.5-4.5-9-8.7-4.2-16.4M52.4 64.4c7 0 7.8 3.8 7 8.5-2 10.2-20 22.4-30.4 20.5-5.9-1-10.5-4-10.7-10.5-.2-6.7 4.8-8.2 10.3-8.4 9-.3 15.8-5.2 23.8-10M20 24c5-12 8.8-29.4 24-22.5C64.7 11 58 32.2 53.7 49 52 55.2 39.2 64.8 35.4 63.2 19.1 56.4 16.2 41.5 20 24m226.8 36.8c-8.6 7.5-17 7.6-22.2-1.5-9-16-8.6-32.8 3.3-47.2 2.5-3 13.8-3.6 16.3-1q20.8 22.7 2.6 49.7" fill="black"/></g><g id="eyebrows-variant10-97173334"><path d="M103.9 38.7C81.4 47 59.2 43 37.3 43c-3 0-6.3-2.2-9.2-4-2.7-1.5-4.4-4-3-7.4q2.1-5.4 8-4.5a188 188 0 0 0 79.9-7c5-1.6 13.3-8 16.2 1.6 3 10.2-6.8 10.8-13.4 13zm155.6-5.6c-7.2 2.7-13.5 5.3-19.9 7.6-2.4.8-5.1.9-6.8-1.8-1.6-2.4-1-4.4.5-7 13.4-22 56.2-24.9 71-4.4q2.8 3.6 4.2 7.8c1.3 4.1 2.4 9.2-2.2 11.5-4.3 2.2-7.7-1.1-10.7-4.5-14-15.5-17-16.3-36-9.2" fill="black"/></g><clipPath id="clip-97173334"><rect width="560" height="560" rx="0" ry="0"/></clipPath></defs><g clip-path="url(#clip-97173334)"><rect width="560" height="560" fill="#ffffff"/><use transform="translate(136 329)" href="#mouth-variant08-97173334"/><use transform="translate(246 126)" href="#nose-variant10-97173334"/><use transform="translate(150.2 189.6)" href="#eyes-variant04-97173334"/><use transform="translate(120 114)" href="#eyebrows-variant10-97173334"/></g></svg>