<svg xmlns="http://www.w3.org/2000/svg" viewBox="0 0 560 560" fill="none" shape-rendering="auto" aria-hidden="true"><metadata xmlns:rdf="http://www.w3.org/1999/02/22-rdf-syntax-ns#" xmlns:xsi="http://www.w3.org/2001/XMLSchema-instance" xmlns:dc="http://purl.org/dc/elements/1.1/" xmlns:dcterms="http://purl.org/dc/terms/"><rdf:RDF><rdf:Description><dc:title>Notionists</dc:title><dc:creator>Zoish</dc:creator><dc:source xsi:type="dcterms:URI">https://heyzoish.gumroad.com/l/notionists</dc:source><dcterms:license xsi:type="dcterms:URI">https://creativecommons.org/publicdomain/zero/1.0/</dcterms:license><dc:rights>Remix of “Notionists” (https://heyzoish.gumroad.com/l/notionists) by “Zoish”, licensed under “CC0 1.0” (https://creativecommons.org/publicdomain/zero/1.0/)</dc:rights></rdf:Description></rdf:RDF></metadata><defs><g id="mouth-variant06-93172ce8"><path fill-rule="evenodd" clip-rule="evenodd" d="M88 69.6a154 154 0 0 0 115.4-.2c4-1.8 8.7-4 12.3 1.5 4.2 6.4.6 12.2-3.4 17.4A72 72 0 0 1 203 99c-3.8 3.4-9 7.4-13.6 3.4-8.8-7.6-14.7-5.6-22.7 1.7-11.3 10.2-21 4.5-27.6-7-21.7 14.3-21.7 14.3-32.7 1.8h-.9q-1-.2-1.6.2c-14.7 12.7-17.9 11.3-24-8.6l-1-5c-1.4-6.7-2.7-13.5-12.1-14.9.5-4.5 3.2-7.5 6.3-10.2 3.1.4 5 2.4 7 4.5 2 2.2 4.1 4.4 7.7 4.8m11 14.3a22 22 0 0 0-13.5-6.3c-1.3 6 1.1 10.1 3.4 14.3l2.3 4.2c6-1.6 7.8-5.5 7.8-12.2m27.6 8.8c1.8 6-2.6 8.1-8 7.9-4.3-2.8-4.5-6-4.8-9.2q0-1.5-.3-3c6.2-1.9 11.4-1.2 13 4.3m36.8 4.4c1.7-7.5-2-6.8-5.6-6a10 10 0 0 1-3.8.2c-2.4-.6-5.3.5-5.2 3.8.2 5.2 4.3 5.8 8.1 5.7 1.9 0 3.7-1.4 6.5-3.7m29-2.4c-3.8-4.7-5-8.8 1.5-12.1 4.6-1.3 8.7-2.3 8.5 2-.3 5.2-3.6 9.2-10 10" fill="black"/></g><g id="nose-variant14-93172ce8"><path d="M7.4 184c5.4-8.7 22.6-12.2 32.1-7.3 6.6 3.4 13 7.6 20 1.7 6.5-5.6 4.6-12.2 1.5-18.7q-2.4-4.8 2.2-7.5c3-1.9 5.5-1.1 8.2.8a20 20 0 0 1 8 21.5c-1.6 7.3-3.8 16-12.7 19-4 1.4-8.8 3.5-12.3 2.4-15.4-4.7-33.8 3.4-47-12" fill="black"/></g><g id="eyes-variant01-93172ce8"><path d="M224.4 58.4c-4.2-9.5-9.9-15.2-19.8-15.7-6-.3-7-5.1-8.9-9.8 2-1.5 3.5-3.7 5.3-3.8q31.8-2.6 63.5-.1c6 .4 9.3 8 3.2 10.4-10 4-12.5 13.2-18.5 19.8-8.2 9-15.2 9.1-24.8-.8m-191-29.6c12.2.7 23.1 1 34 2 3.6.3 8 1.8 8 6.7 0 5.6-4.6 5.2-8.3 5.1-6.3 0-9.7 2.7-12.5 8.6-3.4 7.4-6.9 15.3-18 14.8-10.5-.5-15.1-7.2-18.1-15.2-2.2-5.7-5-8.4-11-8.2-3.4.1-7.1-.2-7.5-4.9-.4-5 3-6 7-7.2a68 68 0 0 1 26.4-1.7" fill="black"/></g><g id="eyebrows-variant02-93172ce8"><path d="M97.9 41.8c6.6-.8 12-1.8 17.5-2.3 4.7-.5 8.2 1.8 10.3 6 1.9 4-1.5 6-3.4 8.8-14.9 21.7-37 16.6-56.8 13-14-2.6-30.4-5.1-37.1-22.7-3.5-9-2.8-12 7.1-13 5.7-.5 11 1.3 16.2 3 14.8 5.1 30.5 7.5 46.2 7.2m130.5.4c5.6-4 10.8-3 16.4-1.8 17.1 3.5 34.3 5.8 50.2-4.7 4.3-2.9 9.2-3.5 12.7.7 3.2 3.9.3 7.8-1.9 11.6-7 12.4-18.9 16.4-31.4 19.6-10 2.6-20.4 2-30.5 1.4-15.9-1-21.8-11-15.5-26.8" fill="black"/></g><clipPath id="clip-93172ce8"><rect width="560" height="560" rx="0" ry="0"/></clipPath></defs><g clip-path="url(#clip-93172ce8)"><rect width="560" height="560" fill="#ffffff"/><use transform="translate(136 329)" href="#mouth-variant06-93172ce8"/><use transform="translate(246 126)" href="#nose-variant14-93172ce8"/><use transform="translate(150.2 189.6)" href="#eyes-variant01-93172ce8"/><use transform="translate(120 114)" href="#eyebrows-variant02-93172ce8"/></g></svg>